{"glyphs":{"0":{"ha":975,"x_min":121,"x_max":978,"o":"m 978 676 q 892 363 978 526 q 673 97 806 200 q 414 -5 541 -5 q 201 82 282 -5 q 121 325 121 170 q 211 631 121 473 q 438 891 300 790 q 699 993 576 993 q 903 908 829 993 q 978 676 978 823 m 253 309 q 299 166 253 222 q 416 111 345 111 q 613 200 512 111 q 780 430 713 290 q 846 694 846 570 q 807 829 846 782 q 697 876 769 876 q 493 790 598 876 q 321 569 389 705 q 253 309 253 433 z "},"1":{"ha":561,"x_min":154,"x_max":602,"o":"m 444 857 q 370 830 425 851 q 220 785 250 785 q 188 797 199 785 q 176 827 176 810 q 219 899 176 874 q 397 957 262 923 q 559 990 532 990 q 602 951 602 990 q 572 873 602 924 q 405 485 503 755 q 283 47 307 214 q 260 8 280 22 q 214 -5 240 -5 q 154 49 154 -5 q 252 416 154 138 q 444 857 351 694 z "},"2":{"ha":928,"x_min":41,"x_max":896,"o":"m 271 151 q 335 154 313 154 q 525 142 392 154 q 728 119 659 130 q 815 97 798 108 q 842 69 832 87 q 852 31 852 51 q 827 -4 852 14 q 779 -22 802 -22 q 699 -9 753 -22 q 479 24 607 13 q 241 36 351 36 q 140 21 193 36 q 83 11 111 11 q 54 21 66 11 q 41 49 41 31 q 138 200 41 111 q 410 380 235 290 q 694 565 625 490 q 764 711 764 640 q 712 825 764 777 q 585 873 661 873 q 454 850 514 873 q 338 763 395 826 q 296 737 315 737 q 252 754 271 737 q 232 794 232 772 q 341 927 232 863 q 599 990 451 990 q 811 913 726 990 q 896 715 896 837 q 803 493 896 595 q 457 271 711 392 q 271 151 349 218 z "},"3":{"ha":928,"x_min":64,"x_max":916,"o":"m 700 501 q 792 423 757 477 q 828 315 828 369 q 718 84 828 173 q 432 -5 608 -5 q 179 63 295 -5 q 64 207 64 132 q 82 254 64 233 q 125 275 100 275 q 184 248 170 275 q 437 111 261 111 q 628 166 561 111 q 696 306 696 222 q 669 380 696 349 q 605 423 642 412 q 468 435 568 435 q 426 453 441 435 q 410 494 410 471 q 430 534 410 516 q 485 551 450 551 q 536 550 512 551 l 585 546 q 655 571 595 546 q 749 636 715 595 q 783 729 783 676 q 731 831 783 790 q 591 872 678 872 q 364 768 442 872 q 310 739 343 739 q 267 755 284 739 q 250 796 250 770 q 359 923 250 857 q 607 989 469 989 q 827 918 739 989 q 916 741 916 846 q 859 596 916 660 q 700 501 803 533 z "},"4":{"ha":947,"x_min":118,"x_max":937,"o":"m 750 504 q 889 507 863 507 q 925 498 913 507 q 937 461 937 489 q 916 406 937 427 q 859 386 895 386 q 710 385 763 386 q 635 115 649 204 q 611 18 624 42 q 555 -5 598 -5 q 510 14 526 -5 q 494 65 494 33 q 583 382 494 134 q 196 374 257 374 q 141 398 163 374 q 118 453 118 422 q 195 621 118 489 q 373 861 273 753 q 532 970 473 970 q 589 935 589 970 q 555 888 589 911 q 373 684 466 826 q 262 489 279 542 q 627 500 321 489 q 752 813 703 704 q 827 956 802 922 q 886 990 852 990 q 922 951 922 990 q 891 863 922 929 q 826 707 861 797 l 750 504 z "},"5":{"ha":928,"x_min":60,"x_max":970,"o":"m 343 602 q 542 644 437 644 q 768 560 682 644 q 854 366 854 476 q 731 99 854 203 q 399 -5 608 -5 q 158 64 257 -5 q 60 205 60 134 q 77 260 60 236 q 118 283 94 283 q 178 257 168 283 q 427 113 236 113 q 640 188 557 113 q 722 353 722 264 q 672 478 722 431 q 514 526 623 526 q 375 500 459 526 q 269 478 307 478 q 230 495 247 478 q 214 536 214 512 q 247 686 214 576 q 307 848 281 795 q 358 927 333 900 q 404 960 384 954 q 603 978 423 966 q 921 990 783 990 q 958 981 945 990 q 970 943 970 972 q 948 888 970 909 q 890 867 926 867 q 433 848 633 867 q 343 602 380 738 z "},"6":{"ha":928,"x_min":114,"x_max":971,"o":"m 292 522 q 557 615 442 615 q 781 541 697 615 q 865 338 865 466 q 734 99 865 203 q 452 -5 602 -5 q 207 84 299 -5 q 114 313 114 174 q 201 622 114 456 q 428 890 288 788 q 721 993 568 993 q 888 948 805 993 q 971 851 971 903 q 911 783 971 783 q 827 831 871 783 q 770 863 808 850 q 694 876 731 876 q 477 786 581 876 q 292 522 374 696 m 543 500 q 428 481 485 500 q 314 426 371 463 q 252 366 258 389 q 245 313 245 342 q 300 165 245 219 q 452 111 355 111 q 645 180 556 111 q 733 338 733 250 q 543 500 733 500 z "},"7":{"ha":831,"x_min":195,"x_max":956,"o":"m 770 876 l 260 876 q 212 895 230 876 q 195 940 195 913 q 209 979 195 963 q 245 994 222 994 l 721 989 l 892 994 q 956 946 956 994 q 930 899 956 928 q 595 465 752 703 q 366 57 439 227 q 331 9 351 25 q 285 -7 311 -7 q 218 54 218 -7 q 230 111 218 71 q 358 330 242 150 q 582 650 475 511 q 770 876 689 789 z "},"8":{"ha":913,"x_min":57,"x_max":1022,"o":"m 564 546 q 774 281 774 408 q 717 138 774 204 q 565 34 661 73 q 379 -5 470 -5 q 149 64 240 -5 q 57 232 57 134 q 123 402 57 330 q 346 558 190 475 q 267 729 267 630 q 371 917 267 842 q 621 993 475 993 q 814 941 727 993 q 936 796 901 888 q 981 799 966 799 q 1022 753 1022 799 q 921 668 1022 668 q 564 546 825 668 m 460 615 q 818 761 629 694 q 610 876 780 876 q 462 831 526 876 q 397 729 397 787 q 460 615 397 662 m 446 488 q 252 359 315 421 q 189 232 189 298 q 235 149 189 186 q 379 111 281 111 q 563 162 484 111 q 642 281 642 214 q 597 378 642 334 q 446 488 553 422 z "},"9":{"ha":928,"x_min":147,"x_max":925,"o":"m 737 453 q 626 392 690 415 q 505 370 562 370 q 283 448 371 370 q 195 648 195 526 q 316 886 195 781 q 604 991 437 991 q 838 910 751 991 q 925 694 925 828 q 840 372 925 544 q 615 97 755 201 q 309 -7 474 -7 q 193 14 239 -7 q 147 69 147 35 q 163 115 147 98 q 204 132 178 132 q 269 120 227 132 q 322 110 305 110 q 553 205 433 110 q 737 453 673 301 m 519 485 q 562 488 541 485 q 606 499 584 492 q 648 516 627 506 q 688 539 669 526 q 726 567 708 551 q 765 606 744 583 q 789 655 785 630 q 793 694 793 680 q 604 875 793 875 q 404 804 481 875 q 326 648 326 734 q 380 529 326 572 q 519 485 435 485 z "}," ":{"ha":678,"x_min":0,"x_max":0,"o":""},"!":{"ha":505,"x_min":119,"x_max":547,"o":"m 547 953 q 519 867 547 924 q 436 657 498 823 q 361 452 374 491 q 336 355 347 412 q 275 311 328 311 q 208 378 208 311 q 291 646 208 448 q 419 918 374 844 q 505 991 464 991 q 547 953 547 991 m 322 110 q 286 29 322 63 q 204 -5 250 -5 q 144 19 169 -5 q 119 79 119 44 q 157 162 119 126 q 240 197 195 197 q 299 172 275 197 q 322 110 322 147 z "},"\"":{"ha":629,"x_min":168,"x_max":733,"o":"m 428 950 q 401 880 428 936 q 301 602 344 766 q 235 558 291 558 q 168 616 168 558 q 248 829 168 663 q 375 994 328 994 q 428 950 428 994 m 733 950 q 707 880 733 933 q 607 602 650 766 q 541 558 596 558 q 473 616 473 558 q 553 829 473 663 q 681 994 633 994 q 733 950 733 994 z "},"#":{"ha":954,"x_min":68,"x_max":986,"o":"m 342 597 q 228 583 248 583 q 161 629 161 583 q 199 682 161 667 q 385 704 237 696 q 481 912 436 833 q 564 991 526 991 q 595 975 595 991 q 588 931 595 951 q 558 864 581 911 q 493 711 532 808 q 728 717 648 717 q 840 949 806 905 q 900 993 874 993 q 939 965 939 993 q 909 892 939 954 q 836 720 880 829 l 925 720 q 986 669 986 720 q 953 624 986 636 q 847 612 920 612 l 798 612 q 724 389 767 532 q 873 390 779 390 q 926 340 926 390 q 850 283 926 283 q 694 282 751 283 q 643 46 660 153 q 585 -1 636 -1 q 542 14 558 -1 q 525 54 525 30 q 572 281 525 119 l 350 277 q 293 45 314 152 q 267 12 290 24 q 221 -1 243 -1 q 171 52 171 -1 q 227 271 171 92 l 107 261 q 68 323 68 261 q 99 361 68 348 q 262 379 131 375 q 342 597 317 541 m 686 611 q 456 604 528 608 q 382 382 416 495 l 606 387 q 684 603 635 478 q 685 607 684 604 q 686 611 686 610 z "},"$":{"ha":778,"x_min":43,"x_max":807,"o":"m 558 872 q 613 971 591 943 q 660 999 636 999 q 689 981 689 999 q 656 884 689 950 q 745 886 712 886 q 790 872 773 886 q 807 836 807 857 q 790 784 807 810 q 736 758 773 758 q 599 762 685 762 q 517 543 554 654 q 708 342 708 476 q 624 191 708 258 q 395 97 541 123 l 380 26 q 357 -3 378 8 q 315 -14 337 -14 q 277 33 277 -14 q 285 86 277 51 l 256 86 q 104 113 165 86 q 43 179 43 140 q 56 218 43 202 q 93 233 70 233 q 145 223 109 233 q 300 200 226 200 l 314 200 q 397 464 347 320 q 210 647 210 530 q 301 786 210 725 q 558 872 393 847 m 435 570 q 507 755 474 677 q 378 713 422 742 q 335 653 335 684 q 358 606 335 625 q 435 570 380 587 m 482 432 q 421 215 441 297 q 539 267 496 235 q 583 330 583 299 q 559 387 583 365 q 482 432 534 410 z "},"%":{"ha":975,"x_min":98,"x_max":1061,"o":"m 416 993 q 524 950 479 993 q 568 854 568 908 q 490 655 568 740 q 298 570 412 570 q 189 613 233 570 q 144 720 144 657 q 227 905 144 818 q 416 993 309 993 m 397 899 q 297 845 335 899 q 260 733 260 792 q 278 684 260 705 q 323 664 297 664 q 413 722 373 664 q 453 836 453 781 q 437 879 453 859 q 397 899 422 899 m 98 47 q 107 79 98 63 q 257 262 125 111 q 529 553 389 414 q 810 823 719 741 q 975 964 952 951 q 1015 977 997 977 q 1046 962 1031 977 q 1061 925 1061 947 q 1019 872 1061 907 q 579 458 797 687 q 233 58 361 230 q 147 -3 190 -3 q 112 12 126 -3 q 98 47 98 26 m 810 418 q 917 376 873 418 q 961 279 961 334 q 883 80 961 165 q 692 -5 806 -5 q 582 38 626 -5 q 538 144 538 82 q 620 330 538 243 q 810 418 701 418 m 790 323 q 690 270 728 323 q 653 158 653 217 q 671 110 653 130 q 717 89 690 89 q 806 148 766 89 q 846 261 846 206 q 830 303 846 283 q 790 323 814 323 z "},"&":{"ha":1017,"x_min":33,"x_max":1011,"o":"m 353 568 q 322 726 322 652 q 415 912 322 831 q 648 993 509 993 q 786 940 724 993 q 848 818 848 888 q 771 669 848 735 q 511 524 693 603 q 688 283 559 430 q 860 497 804 388 q 907 528 873 528 q 950 511 930 528 q 971 472 971 494 q 957 428 971 455 q 890 338 943 401 q 764 208 837 275 q 950 126 850 136 q 1011 53 1011 121 q 995 13 1011 29 q 951 -3 978 -3 q 668 129 818 -3 q 490 32 585 66 q 309 -3 394 -3 q 122 70 212 -3 q 33 243 33 142 q 113 421 33 340 q 353 568 193 503 m 471 616 q 660 720 600 673 q 720 818 720 766 q 700 861 720 842 q 648 879 680 879 q 506 837 560 879 q 452 726 452 795 q 471 616 452 679 m 395 473 l 392 472 q 219 367 273 421 q 165 243 165 312 q 214 150 165 184 q 321 115 262 115 q 589 207 445 115 q 395 473 459 348 z "},"'":{"ha":310,"x_min":168,"x_max":428,"o":"m 428 950 q 401 880 428 936 q 301 602 344 766 q 235 558 291 558 q 168 616 168 558 q 248 829 168 663 q 375 994 328 994 q 428 950 428 994 z "},"(":{"ha":739,"x_min":132,"x_max":835,"o":"m 422 -267 q 405 -299 422 -286 q 354 -313 387 -313 q 260 -252 315 -313 q 169 -89 206 -192 q 132 123 132 14 q 238 531 132 340 q 511 857 344 722 q 787 993 677 993 q 822 981 809 993 q 835 953 835 970 q 822 918 835 931 q 775 893 810 904 q 572 761 694 868 q 357 472 449 653 q 265 123 265 292 q 299 -56 265 33 q 380 -195 332 -145 q 422 -267 422 -238 z "},")":{"ha":739,"x_min":-29,"x_max":673,"o":"m 383 946 q 401 979 383 966 q 452 991 419 991 q 546 929 491 991 q 637 765 602 867 q 673 555 673 663 q 568 149 673 340 q 295 -178 462 -43 q 18 -314 128 -314 q -16 -302 -3 -314 q -29 -273 -29 -290 q -15 -237 -29 -250 q 31 -214 -1 -224 q 234 -82 112 -189 q 448 205 355 24 q 541 555 541 387 q 507 737 541 648 q 425 873 473 825 q 383 946 383 916 z "},"*":{"ha":511,"x_min":123,"x_max":627,"o":"m 472 761 q 579 635 579 673 q 567 606 579 618 q 538 595 555 595 q 474 630 510 595 q 403 694 438 665 q 375 561 385 623 q 325 510 365 510 q 278 571 278 510 q 298 690 278 608 q 262 667 281 680 q 171 621 202 621 q 123 667 123 621 q 142 697 123 681 q 289 781 160 713 q 222 819 246 808 q 182 869 182 841 q 196 899 182 888 q 231 911 211 911 q 351 852 269 911 q 394 958 376 923 q 431 993 412 993 q 464 984 456 993 q 472 953 472 975 q 447 846 472 924 q 585 882 561 882 q 627 844 627 882 q 568 791 627 810 q 472 761 509 773 z "},"+":{"ha":778,"x_min":102,"x_max":783,"o":"m 494 439 q 456 197 456 256 q 432 166 456 178 q 383 154 408 154 q 339 168 356 154 q 322 201 322 181 q 361 435 322 274 q 195 425 265 433 q 140 421 155 421 q 102 489 102 421 q 139 531 102 515 q 392 550 177 547 q 478 807 460 780 q 532 835 496 835 q 587 808 587 835 q 577 765 587 794 q 519 554 567 736 q 730 558 648 558 q 783 505 783 558 q 705 443 783 443 q 494 439 617 443 z "},",":{"ha":505,"x_min":93,"x_max":322,"o":"m 197 -5 q 141 22 163 -1 q 119 79 119 46 q 157 162 119 126 q 240 197 195 197 q 300 170 279 197 q 322 94 322 143 q 253 -85 322 17 q 135 -187 184 -187 q 106 -175 119 -187 q 93 -149 93 -163 q 102 -117 93 -130 q 139 -83 111 -104 q 197 -5 180 -54 z "},"-":{"ha":639,"x_min":125,"x_max":602,"o":"m 555 566 q 602 515 602 566 q 586 457 602 479 q 542 436 570 436 q 261 422 386 436 q 170 415 203 415 q 125 481 125 415 q 142 520 125 503 q 186 544 160 538 q 339 558 212 550 q 555 566 467 566 z "},".":{"ha":505,"x_min":225,"x_max":428,"o":"m 428 484 q 392 402 428 437 q 310 368 356 368 q 250 393 275 368 q 225 453 225 418 q 263 535 225 500 q 346 571 300 571 q 405 546 381 571 q 428 484 428 521 z "},"/":{"ha":714,"x_min":14,"x_max":865,"o":"m 865 936 q 810 871 865 911 q 408 428 600 682 q 149 62 217 174 q 111 15 128 29 q 64 0 93 0 q 28 16 42 0 q 14 53 14 31 q 26 99 14 77 q 189 338 53 150 q 370 570 288 473 q 624 850 496 721 q 770 986 752 979 q 814 993 788 993 q 848 977 831 993 q 865 936 865 962 z "},":":{"ha":505,"x_min":119,"x_max":453,"o":"m 453 570 q 417 489 453 524 q 335 454 381 454 q 275 479 300 454 q 250 539 250 504 q 288 621 250 585 q 371 657 325 657 q 430 632 406 657 q 453 570 453 607 m 322 110 q 286 29 322 63 q 204 -5 250 -5 q 144 19 169 -5 q 119 79 119 44 q 157 162 119 126 q 240 197 195 197 q 299 172 275 197 q 322 110 322 147 z "},";":{"ha":505,"x_min":93,"x_max":453,"o":"m 453 570 q 417 489 453 524 q 335 454 381 454 q 275 479 300 454 q 250 539 250 504 q 288 621 250 585 q 371 657 325 657 q 430 632 406 657 q 453 570 453 607 m 197 -5 q 141 22 163 -1 q 119 79 119 46 q 157 162 119 126 q 240 197 195 197 q 300 170 279 197 q 322 94 322 143 q 253 -85 322 17 q 135 -187 184 -187 q 106 -175 119 -187 q 93 -149 93 -163 q 102 -117 93 -130 q 139 -83 111 -104 q 197 -5 180 -54 z "},"<":{"ha":778,"x_min":114,"x_max":827,"o":"m 285 492 q 522 372 398 431 q 679 302 646 313 q 705 260 705 296 q 692 214 705 231 q 653 196 678 196 q 573 224 633 196 l 440 288 l 260 378 q 139 441 153 432 q 119 462 125 450 q 114 493 114 473 q 121 528 114 515 q 144 551 129 542 q 250 598 160 561 l 480 692 q 690 774 618 748 q 783 800 762 800 q 815 780 803 800 q 827 733 827 760 q 766 676 827 697 q 548 598 705 659 q 285 492 391 538 z "},"=":{"ha":778,"x_min":109,"x_max":777,"o":"m 724 690 q 777 637 777 690 q 699 575 777 575 q 446 569 592 575 q 244 557 300 563 q 189 553 203 553 q 150 621 150 553 q 174 656 150 643 q 242 674 198 669 q 463 684 287 678 q 724 690 638 690 m 682 427 q 734 374 734 427 q 659 311 734 311 q 405 305 551 311 q 201 293 258 299 q 149 289 162 289 q 109 357 109 289 q 132 392 109 379 q 200 410 156 406 q 421 420 245 414 q 682 427 597 427 z "},">":{"ha":778,"x_min":57,"x_max":770,"o":"m 599 503 q 361 622 485 564 q 204 692 237 681 q 185 707 193 695 q 178 734 178 720 q 191 781 178 763 q 231 799 205 799 q 310 771 251 799 l 444 707 l 624 616 q 744 553 730 562 q 764 532 758 544 q 770 501 770 521 q 755 456 770 472 q 671 412 741 441 l 453 322 q 214 228 307 262 q 100 195 122 195 q 69 214 81 195 q 57 261 57 234 q 117 318 57 298 q 336 396 179 336 q 599 503 492 456 z "},"[":{"ha":600,"x_min":32,"x_max":746,"o":"m 178 -182 q 273 -186 212 -183 l 376 -194 q 426 -201 417 -197 q 440 -213 434 -205 q 449 -231 446 -221 q 452 -253 452 -241 q 431 -294 452 -275 q 378 -313 411 -313 q 211 -307 353 -313 q 50 -289 68 -300 q 32 -250 32 -278 q 71 -51 32 -221 q 175 355 110 119 q 301 766 240 591 q 374 958 361 941 q 407 982 386 974 q 454 990 428 990 q 611 987 529 990 q 712 978 693 984 q 738 959 730 972 q 746 926 746 947 q 676 863 746 863 q 579 867 640 863 q 473 871 519 871 q 304 330 411 720 q 178 -182 197 -60 z "},"\\":{"ha":714,"x_min":205,"x_max":578,"o":"m 524 0 q 443 53 450 0 q 367 453 422 224 q 231 866 312 682 q 205 940 205 924 q 225 980 205 966 q 264 993 245 993 q 304 988 292 993 q 328 957 317 983 q 405 758 369 863 q 482 500 440 652 q 551 218 524 349 q 578 56 578 87 q 562 17 578 34 q 524 0 547 0 z "},"]":{"ha":600,"x_min":-82,"x_max":629,"o":"m 489 863 q 236 879 260 867 q 212 929 212 890 q 233 971 212 954 q 286 989 254 989 q 448 985 336 989 q 585 979 559 982 q 620 964 611 975 q 629 930 629 953 q 549 621 629 891 q 419 165 465 343 q 328 -220 373 -13 q 310 -278 318 -262 q 285 -303 301 -294 q 249 -313 269 -313 q -43 -301 -4 -313 q -82 -250 -82 -290 q -63 -204 -82 -224 q -12 -184 -45 -184 q 83 -188 17 -184 q 200 -192 150 -192 q 489 863 342 448 z "},"{":{"ha":633,"x_min":68,"x_max":802,"o":"m 286 374 q 340 325 321 360 q 359 252 359 289 q 318 25 359 185 q 296 -104 296 -62 q 330 -163 296 -137 q 463 -196 364 -189 q 507 -253 507 -199 q 487 -294 507 -276 q 433 -313 467 -313 q 247 -254 325 -313 q 170 -113 170 -195 q 199 57 170 -56 q 233 236 233 192 q 202 294 233 271 q 115 322 171 317 q 82 340 96 324 q 68 374 68 355 q 129 435 68 431 q 276 464 234 441 q 337 531 318 487 q 381 689 355 576 q 416 815 402 780 q 463 886 431 851 q 539 946 496 921 q 636 982 583 972 q 749 993 690 993 q 787 976 772 993 q 802 933 802 960 q 741 872 802 872 q 625 854 671 872 q 552 805 579 836 q 515 736 525 773 q 493 646 505 699 q 447 488 464 525 q 384 417 429 452 q 286 374 338 382 z "},"|":{"ha":606,"x_min":114,"x_max":590,"o":"m 590 957 q 564 868 590 929 q 372 334 477 668 q 241 -167 267 1 q 174 -218 235 -218 q 114 -165 114 -218 q 187 178 114 -81 q 363 694 260 437 q 491 972 467 951 q 546 994 515 994 q 590 957 590 994 z "},"}":{"ha":633,"x_min":-123,"x_max":631,"o":"m 403 297 q 341 349 363 309 q 318 425 318 388 q 361 650 318 481 q 376 762 376 707 q 357 832 376 808 q 310 864 337 855 q 228 879 283 873 q 190 896 204 881 q 176 932 176 911 q 271 993 176 993 q 437 933 372 993 q 503 785 503 874 q 473 619 503 729 q 440 437 440 492 q 464 387 440 412 q 587 353 487 361 q 631 310 631 349 q 566 241 631 247 q 440 221 487 235 q 367 180 393 207 q 330 118 340 153 q 307 8 321 84 q 281 -110 292 -75 q 238 -190 270 -146 q 162 -261 205 -233 q 61 -301 118 -290 q -57 -313 4 -313 q -104 -295 -84 -313 q -123 -253 -123 -277 q -61 -191 -123 -191 q 50 -180 14 -191 q 113 -147 85 -170 q 154 -92 141 -125 q 186 33 166 -58 q 228 181 211 144 q 291 253 245 218 q 403 297 338 288 z "},"•":{"ha":644,"x_min":186,"x_max":519,"o":"m 519 385 q 460 252 519 309 q 325 195 401 195 q 226 235 267 195 q 186 335 186 276 q 247 468 186 410 q 383 526 309 526 q 480 486 441 526 q 519 385 519 445 z "},"«":{"ha":833,"x_min":86,"x_max":835,"o":"m 201 330 q 358 135 273 229 q 380 74 380 111 q 323 28 380 28 q 276 46 299 28 q 192 148 254 65 q 109 267 131 231 q 86 343 86 304 q 101 384 86 363 q 164 444 117 404 q 298 550 211 484 q 408 628 385 616 q 446 640 431 640 q 486 627 470 640 q 501 593 501 614 q 493 559 501 573 q 454 525 484 545 q 201 330 317 433 m 534 330 q 692 135 606 229 q 714 74 714 111 q 657 28 714 28 q 610 46 632 28 q 526 148 587 65 q 442 267 465 231 q 419 343 419 304 q 435 384 419 363 q 497 444 450 404 q 632 550 545 484 q 742 628 719 616 q 779 640 765 640 q 819 627 804 640 q 835 593 835 614 q 825 557 835 571 q 787 525 814 543 q 534 330 650 433 z "},"»":{"ha":833,"x_min":32,"x_max":781,"o":"m 665 338 q 509 533 593 439 q 486 595 486 557 q 543 640 486 640 q 590 622 568 640 q 674 520 613 603 q 758 401 736 438 q 781 325 781 364 q 765 284 781 304 q 703 224 750 264 q 569 118 656 184 q 458 40 481 52 q 421 28 435 28 q 381 41 397 28 q 366 75 366 54 q 374 109 366 96 q 412 143 382 123 q 665 338 550 236 m 332 338 q 175 533 260 439 q 153 595 153 557 q 210 640 153 640 q 257 622 235 640 q 341 520 279 603 q 425 401 402 438 q 447 325 447 364 q 432 284 447 304 q 369 224 416 264 q 235 118 322 184 q 125 40 148 52 q 87 28 102 28 q 47 41 63 28 q 32 75 32 54 q 40 109 32 96 q 79 143 49 123 q 332 338 216 236 z "},"–":{"ha":764,"x_min":125,"x_max":726,"o":"m 125 481 q 146 524 125 506 q 201 547 168 543 q 413 558 235 551 q 675 566 591 566 q 726 515 726 566 q 661 436 726 436 q 438 431 577 436 q 265 422 300 427 q 175 415 208 415 q 125 481 125 415 z "},"—":{"ha":1278,"x_min":125,"x_max":1240,"o":"m 125 481 q 151 528 125 509 q 224 549 178 547 l 686 559 q 1189 566 1101 566 q 1240 515 1240 566 q 1175 436 1240 436 q 678 431 1060 436 q 265 422 296 426 q 175 415 208 415 q 125 481 125 415 z "},"“":{"ha":825,"x_min":283,"x_max":832,"o":"m 408 811 q 465 783 443 807 q 486 726 486 759 q 449 644 486 680 q 366 608 411 608 q 305 635 327 608 q 283 711 283 663 q 352 891 283 789 q 471 993 421 993 q 500 981 487 993 q 513 954 513 969 q 504 922 513 935 q 467 889 495 909 q 408 811 425 859 m 728 811 q 784 783 762 807 q 806 726 806 759 q 768 644 806 680 q 685 608 730 608 q 625 635 646 608 q 603 711 603 663 q 629 815 603 753 q 705 935 655 877 q 790 993 755 993 q 819 981 806 993 q 832 954 832 969 q 821 919 832 932 q 786 889 810 907 q 728 811 745 859 z "},"”":{"ha":825,"x_min":268,"x_max":817,"o":"m 372 790 q 316 818 338 794 q 294 875 294 842 q 332 958 294 922 q 415 993 370 993 q 475 966 454 993 q 497 890 497 939 q 428 710 497 812 q 310 608 359 608 q 281 621 294 608 q 268 647 268 633 q 279 683 268 670 q 314 713 290 695 q 372 790 355 742 m 692 790 q 635 818 657 794 q 614 875 614 842 q 651 957 614 922 q 734 993 689 993 q 795 966 773 993 q 817 890 817 939 q 790 787 817 848 q 714 667 764 725 q 629 608 665 608 q 600 621 613 608 q 587 647 587 633 q 598 683 587 670 q 633 713 609 695 q 692 790 675 742 z "},"‘":{"ha":505,"x_min":283,"x_max":513,"o":"m 408 811 q 465 783 443 807 q 486 726 486 759 q 449 644 486 680 q 366 608 411 608 q 305 635 327 608 q 283 711 283 663 q 352 891 283 789 q 471 993 421 993 q 500 981 487 993 q 513 954 513 969 q 504 922 513 935 q 467 889 495 909 q 408 811 425 859 z "},"’":{"ha":505,"x_min":268,"x_max":497,"o":"m 372 790 q 316 818 338 794 q 294 875 294 842 q 332 958 294 922 q 415 993 370 993 q 475 966 454 993 q 497 890 497 939 q 428 710 497 812 q 310 608 359 608 q 281 621 294 608 q 268 647 268 633 q 279 683 268 670 q 314 713 290 695 q 372 790 355 742 z "},"·":{"ha":505,"x_min":180,"x_max":383,"o":"m 383 374 q 347 293 383 327 q 265 258 311 258 q 205 283 230 258 q 180 343 180 308 q 218 425 180 389 q 301 461 256 461 q 360 436 336 461 q 383 374 383 411 z "},"،":{"ha":505,"x_min":225,"x_max":454,"o":"m 350 571 q 406 543 385 567 q 428 486 428 519 q 390 404 428 439 q 307 368 353 368 q 247 395 269 368 q 225 471 225 422 q 294 651 225 549 q 413 753 363 753 q 442 741 429 753 q 454 714 454 728 q 444 679 454 692 q 408 649 433 666 q 350 571 368 619 z "},"؛":{"ha":505,"x_min":119,"x_max":425,"o":"m 321 501 q 377 473 355 497 q 399 416 399 450 q 361 334 399 370 q 278 298 323 298 q 218 326 239 298 q 196 401 196 353 q 265 582 196 479 q 383 684 334 684 q 412 671 399 684 q 425 644 425 659 q 414 609 425 622 q 379 579 404 597 q 321 501 338 549 m 322 110 q 286 29 322 63 q 204 -5 250 -5 q 144 19 169 -5 q 119 79 119 44 q 157 162 119 126 q 240 197 195 197 q 299 172 275 197 q 322 110 322 147 z "},"؟":{"ha":589,"x_min":138,"x_max":681,"o":"m 461 868 q 345 819 391 868 q 300 718 300 770 q 346 597 300 675 q 392 503 382 536 q 401 441 401 470 q 374 347 401 395 q 302 298 346 298 q 269 312 282 298 q 256 347 256 326 q 268 389 256 363 q 282 439 282 417 q 274 478 282 457 q 235 542 267 499 q 180 642 192 602 q 168 718 168 681 q 254 900 168 819 q 478 981 340 981 q 621 940 562 981 q 681 850 681 900 q 618 798 681 798 q 565 825 598 798 q 461 868 511 868 m 340 110 q 304 29 340 64 q 222 -5 269 -5 q 162 19 187 -5 q 138 79 138 44 q 175 162 138 126 q 258 197 212 197 q 317 172 294 197 q 340 110 340 147 z "},"ހ":{"ha":743,"x_min":-78,"x_max":718,"o":"m -78 -68 q -60 -22 -78 -38 q 0 7 -42 -6 q 364 204 205 72 q 597 498 522 336 q 626 544 612 529 q 669 558 640 558 q 705 543 692 558 q 718 505 718 528 q 586 271 718 425 q 264 -4 454 117 q -8 -125 73 -125 q -59 -109 -39 -125 q -78 -68 -78 -93 m 427 746 m 688 -149 z "},"ށ":{"ha":1090,"x_min":-78,"x_max":1079,"o":"m 722 393 q 307 4 525 134 q -7 -125 89 -125 q -59 -109 -39 -125 q -78 -65 -78 -92 q 12 5 -78 -12 q 302 132 159 33 q 600 415 444 230 q 567 475 567 438 q 595 532 567 507 q 657 557 623 557 q 714 543 690 557 q 741 511 738 529 q 954 612 868 521 q 990 646 976 636 q 1025 656 1004 656 q 1064 641 1049 656 q 1079 604 1079 627 q 968 468 1079 532 q 722 393 858 405 m 791 746 m 850 -65 z "},"ނ":{"ha":1160,"x_min":-78,"x_max":1143,"o":"m 639 328 q 269 13 484 150 q -7 -125 54 -125 q -59 -109 -39 -125 q -78 -65 -78 -92 q -17 1 -78 -16 q 256 139 92 33 q 517 354 419 244 q 453 449 453 391 q 472 503 453 477 q 533 529 492 529 q 597 498 570 529 q 648 472 621 472 q 687 480 667 472 q 739 517 707 488 q 817 557 783 557 q 848 549 833 557 q 891 505 863 541 q 926 463 913 475 q 1007 551 973 486 q 1080 615 1042 615 q 1143 555 1143 615 q 1064 420 1143 505 q 916 336 985 336 q 857 353 882 336 q 799 410 831 369 q 639 328 752 346 m 791 746 m 876 -65 z "},"ރ":{"ha":1026,"x_min":-78,"x_max":1014,"o":"m 640 298 q 279 16 490 157 q -7 -125 67 -125 q -59 -109 -39 -125 q -78 -65 -78 -92 q 0 8 -78 -17 q 258 139 103 42 q 553 367 414 236 q 479 475 479 416 q 504 535 479 513 q 572 557 529 557 q 696 507 644 557 q 947 684 872 684 q 1014 633 1014 684 q 936 539 1014 575 q 779 424 866 506 q 871 397 806 405 q 943 323 943 389 q 914 266 943 288 q 842 244 885 244 q 640 298 745 244 m 688 746 m 860 -58 m 689 949 z "},"ބ":{"ha":1035,"x_min":90,"x_max":990,"o":"m 564 429 q 802 599 663 599 q 938 547 886 599 q 990 415 990 496 q 825 120 990 245 q 431 -5 659 -5 q 182 77 273 -5 q 90 273 90 159 q 173 474 90 391 q 379 557 255 557 q 492 521 440 557 q 564 429 543 485 m 522 114 q 763 227 671 138 q 856 406 856 316 q 834 459 856 437 q 778 481 812 481 q 672 428 724 481 q 600 296 621 375 q 522 114 569 175 m 218 265 q 259 158 218 204 q 357 113 300 113 q 441 183 404 113 q 478 332 478 254 q 448 409 478 377 q 374 440 417 440 q 261 392 304 440 q 218 265 218 343 m 550 746 m 710 -122 z "},"ޅ":{"ha":972,"x_min":-78,"x_max":949,"o":"m 650 300 q 636 298 645 298 q 504 340 558 298 q 450 450 450 382 q 503 584 450 524 q 599 643 556 643 q 637 629 622 643 q 652 595 652 616 q 615 528 652 566 q 578 460 578 490 q 608 416 578 433 q 686 399 638 399 q 748 421 718 399 q 814 503 777 444 q 896 557 848 557 q 934 540 920 557 q 949 497 949 523 q 789 265 949 429 q 383 -12 629 102 q -7 -125 137 -125 q -59 -109 -39 -125 q -78 -65 -78 -92 q -56 -11 -78 -33 q 9 14 -33 11 q 352 105 161 24 q 650 300 542 186 m 661 780 m 833 -81 z "},"ކ":{"ha":800,"x_min":83,"x_max":777,"o":"m 232 122 q 468 292 349 178 q 643 534 587 406 q 717 589 667 589 q 760 574 744 589 q 777 534 777 560 q 664 327 777 461 q 396 90 552 192 q 147 -12 239 -12 q 101 4 119 -12 q 83 41 83 20 q 114 136 83 77 q 174 364 174 253 q 157 446 174 401 q 146 497 146 478 q 162 539 146 522 q 208 557 178 557 q 298 383 298 557 q 232 122 298 223 m 414 746 m 653 -80 z "},"އ":{"ha":766,"x_min":-20,"x_max":730,"o":"m 589 428 q 300 104 452 221 q 46 -12 149 -12 q -2 2 16 -12 q -20 41 -20 16 q 56 121 -20 95 q 268 239 165 159 q 444 429 370 319 q 529 529 494 502 q 597 557 563 557 q 690 493 649 557 q 730 350 730 429 q 707 159 730 243 q 660 46 683 75 q 597 17 637 17 q 539 77 539 17 q 572 182 539 113 q 608 339 608 259 q 589 428 608 395 m 653 -85 m 650 -239 m 417 746 z "},"ވ":{"ha":612,"x_min":-83,"x_max":586,"o":"m 361 192 q 321 187 342 187 q 184 229 237 187 q 132 340 132 271 q 209 494 132 429 q 386 559 285 559 q 532 512 478 559 q 586 382 586 465 q 513 188 586 294 q 269 -22 439 81 q -12 -125 98 -125 q -64 -109 -45 -125 q -83 -65 -83 -92 q 7 7 -83 -9 q 361 192 197 39 m 457 386 q 380 450 457 450 q 297 418 332 450 q 261 354 261 386 q 342 294 261 294 q 422 326 387 294 q 457 386 457 357 m 313 746 m 581 -149 m 309 949 z "},"މ":{"ha":710,"x_min":-82,"x_max":697,"o":"m 297 406 q 255 421 271 406 q 239 461 239 437 q 306 534 239 508 q 493 559 373 559 q 642 525 586 559 q 697 433 697 490 q 409 91 697 300 q -12 -118 121 -118 q -82 -61 -82 -118 q 7 14 -82 -1 q 363 194 159 40 q 567 418 567 348 q 488 441 567 441 q 371 420 437 441 q 297 406 323 406 m 425 746 m 566 -214 z "},"ފ":{"ha":717,"x_min":-212,"x_max":689,"o":"m 493 294 q 541 224 541 270 q 416 34 541 156 q 111 -199 292 -87 q -142 -310 -71 -310 q -193 -293 -174 -310 q -212 -250 -212 -277 q -151 -183 -212 -201 q 226 15 43 -124 q 408 215 408 155 q 359 262 408 249 q 307 310 307 278 q 325 350 307 336 q 401 376 342 364 q 542 444 542 406 q 520 466 542 453 q 458 489 498 478 q 416 538 416 499 q 465 593 416 574 q 523 623 488 602 q 576 660 559 644 q 632 684 604 684 q 669 668 654 684 q 685 629 685 652 q 587 543 685 591 q 689 443 689 509 q 641 358 689 393 q 493 294 592 323 m 429 746 m 566 -285 m 0 557 z "},"ދ":{"ha":878,"x_min":-158,"x_max":857,"o":"m 493 195 q 211 -87 393 62 q -93 -236 29 -236 q -140 -221 -123 -236 q -158 -182 -158 -206 q -138 -139 -158 -155 q -71 -110 -118 -123 q 155 12 35 -77 q 374 225 275 100 q 342 281 342 244 q 370 335 342 315 q 436 354 398 354 q 493 338 467 354 q 524 304 518 323 q 595 296 555 296 q 711 390 711 296 q 579 486 711 460 q 529 539 529 495 q 586 597 529 587 q 659 622 610 602 q 736 660 708 642 q 802 684 774 684 q 842 668 826 684 q 857 629 857 652 q 823 579 857 602 q 725 533 789 557 q 813 480 780 519 q 846 392 846 441 q 771 242 846 300 q 590 183 696 183 q 493 195 536 183 m 550 746 m 570 -258 m 549 990 m 0 557 z "},"ތ":{"ha":782,"x_min":-64,"x_max":762,"o":"m 300 272 q 208 155 208 192 q 225 134 208 145 q 297 98 241 123 q 395 41 365 69 q 425 -24 425 13 q 283 -163 425 -90 q 32 -236 141 -236 q -39 -219 -14 -236 q -64 -172 -64 -202 q 31 -107 -64 -114 q 181 -76 107 -102 q 254 -33 254 -51 q 243 -18 254 -24 q 197 3 232 -12 q 84 65 111 38 q 57 139 57 93 q 247 395 57 229 q 589 561 436 561 q 714 509 665 561 q 762 380 762 458 q 694 208 762 277 q 505 138 627 138 q 396 174 452 138 q 300 272 340 211 m 387 347 q 449 282 410 308 q 519 256 487 256 q 601 286 572 256 q 631 368 631 316 q 614 423 631 402 q 570 444 597 444 q 387 347 492 444 m 424 746 m 604 -319 m 424 949 m 504 1038 z "},"ލ":{"ha":789,"x_min":-161,"x_max":783,"o":"m 621 440 q 460 429 553 429 q 372 450 403 429 q 340 503 340 471 q 370 555 340 534 q 501 673 445 610 q 562 703 527 703 q 601 686 586 703 q 615 646 615 669 q 521 541 615 600 q 652 550 557 541 q 736 557 718 557 q 770 542 757 557 q 783 505 783 527 q 630 281 783 458 q 241 -66 476 104 q -90 -236 5 -236 q -142 -220 -123 -236 q -161 -176 -161 -203 q -100 -110 -161 -133 q 303 127 100 -33 q 621 440 506 288 m 357 773 m 629 -199 z "},"ގ":{"ha":794,"x_min":-53,"x_max":778,"o":"m 207 0 q 404 33 323 0 q 485 117 485 66 q 453 154 485 136 q 347 200 421 172 q 243 319 243 239 q 299 405 243 366 q 494 502 355 445 q 710 558 633 558 q 760 542 741 558 q 778 501 778 526 q 701 432 778 439 q 494 382 608 425 q 380 317 380 340 q 388 305 380 310 q 443 283 395 300 q 583 207 551 243 q 615 134 615 170 q 484 -51 615 24 q 164 -125 353 -125 q 9 -96 72 -125 q -53 -26 -53 -68 q -37 16 -53 -2 q 4 33 -22 33 q 55 23 19 33 q 207 0 134 0 m 427 746 m 618 -236 m 443 949 z "},"ޏ":{"ha":935,"x_min":28,"x_max":918,"o":"m 553 412 q 380 296 496 368 q 151 18 151 156 q 199 -86 151 -47 q 336 -126 248 -126 q 515 -93 412 -126 q 582 -77 564 -77 q 618 -92 604 -77 q 632 -132 632 -108 q 537 -207 632 -176 q 335 -239 443 -239 q 108 -170 189 -239 q 28 14 28 -100 q 275 355 28 202 q 203 450 203 389 q 231 519 203 490 q 307 547 258 547 q 342 539 325 547 q 382 499 359 530 q 422 468 406 468 q 448 473 439 468 q 476 494 457 477 q 570 557 541 557 q 600 546 585 557 q 640 490 614 534 q 679 435 665 449 q 779 525 741 455 q 854 591 817 591 q 918 528 918 591 q 833 388 918 467 q 664 309 747 309 q 615 332 639 309 q 553 412 591 355 m 664 -364 m 570 746 z "},"ސ":{"ha":1489,"x_min":54,"x_max":1475,"o":"m 366 302 q 269 134 342 203 q 125 64 197 64 q 74 80 93 64 q 54 123 54 96 q 123 187 54 175 q 197 238 162 195 q 240 332 231 281 q 180 387 203 351 q 157 463 157 424 q 183 529 157 502 q 248 557 210 557 q 336 518 298 557 q 382 421 373 479 q 766 397 538 397 q 1173 462 1053 397 q 1332 612 1292 527 q 1413 671 1359 671 q 1457 655 1439 671 q 1475 614 1475 640 q 1391 461 1475 550 q 1163 327 1307 372 q 749 281 1019 281 q 366 302 509 281 m 807 746 m 999 139 m 807 949 m 807 780 m 1004 -33 z "},"ޑ":{"ha":581,"x_min":21,"x_max":611,"o":"m 170 61 q 264 24 176 42 q 457 1 352 7 q 516 -16 500 -1 q 533 -65 533 -32 q 454 -122 533 -122 q 159 -68 297 -122 q 21 52 21 -14 q 143 171 21 125 q 293 235 242 208 q 343 273 343 262 q 200 325 343 287 q 167 345 180 330 q 154 379 154 359 q 170 424 154 403 q 260 484 185 444 l 393 554 q 482 585 450 585 q 520 566 503 585 q 538 525 538 547 q 499 474 538 498 q 323 389 460 450 q 460 340 417 365 q 504 273 504 316 q 418 174 504 222 q 170 61 332 126 m 611 -240 m 293 746 z "},"ޒ":{"ha":770,"x_min":66,"x_max":734,"o":"m 386 509 q 551 604 475 570 q 668 639 627 639 q 716 624 699 639 q 734 583 734 609 q 652 513 734 534 q 472 433 557 488 q 538 406 509 412 q 588 380 568 398 q 607 339 607 361 q 515 273 607 273 q 340 321 445 273 q 193 8 193 159 q 243 -90 193 -54 q 383 -126 293 -126 q 576 -83 456 -126 q 654 -62 636 -62 q 690 -78 677 -62 q 704 -118 704 -94 q 593 -200 704 -162 q 382 -239 483 -239 q 152 -170 237 -239 q 66 8 66 -101 q 231 376 66 196 q 174 467 174 412 q 202 530 174 503 q 269 557 231 557 q 386 509 332 557 m 660 -395 m 449 746 z "},"ޓ":{"ha":1035,"x_min":89,"x_max":989,"o":"m 366 46 q 290 -94 290 -32 q 530 -200 290 -200 q 718 -159 614 -200 q 783 -140 766 -140 q 820 -156 806 -140 q 833 -196 833 -172 q 731 -276 833 -240 q 522 -313 629 -313 q 262 -254 359 -313 q 164 -93 164 -196 q 249 69 164 -14 q 135 159 181 94 q 89 304 89 224 q 166 481 89 405 q 358 557 244 557 q 468 520 420 557 q 524 433 515 484 q 648 539 573 498 q 798 581 722 581 q 935 527 882 581 q 989 392 989 473 q 801 145 989 245 q 366 46 612 46 m 457 161 q 734 237 614 168 q 854 385 854 307 q 834 440 854 418 q 778 463 813 463 q 645 396 715 463 q 457 161 575 330 m 322 165 q 399 273 370 214 q 429 371 429 333 q 407 420 429 400 q 346 440 385 440 q 254 397 292 440 q 216 297 216 355 q 247 213 216 250 q 322 165 277 176 m 711 -414 m 570 746 z "},"ޔ":{"ha":989,"x_min":-90,"x_max":933,"o":"m 521 339 q 284 60 416 171 q 86 -88 152 -50 q -24 -126 20 -126 q -72 -111 -54 -126 q -90 -69 -90 -95 q -21 7 -90 -23 q 203 149 92 56 q 399 368 314 243 q 342 460 342 401 q 371 528 342 499 q 443 557 399 557 q 513 530 485 557 q 542 461 542 504 q 751 530 637 475 q 833 557 806 557 q 906 506 880 557 q 933 380 933 455 q 875 145 933 256 q 747 35 817 35 q 697 50 716 35 q 677 87 677 64 q 730 175 677 125 q 788 267 765 207 q 811 379 811 326 q 802 433 811 407 q 521 339 678 368 m 623 746 m 629 -183 z "},"ޕ":{"ha":717,"x_min":-212,"x_max":689,"o":"m 493 294 q 541 224 541 270 q 416 34 541 156 q 111 -199 292 -87 q -142 -310 -71 -310 q -193 -293 -174 -310 q -212 -250 -212 -277 q -151 -183 -212 -201 q 226 15 43 -124 q 408 215 408 155 q 359 262 408 249 q 307 310 307 278 q 325 350 307 336 q 401 376 342 364 q 542 444 542 406 q 520 466 542 453 q 458 489 498 478 q 416 538 416 499 q 465 593 416 574 q 523 623 488 602 q 576 660 559 644 q 632 684 604 684 q 669 668 654 684 q 685 629 685 652 q 587 543 685 591 q 689 443 689 509 q 641 358 689 393 q 493 294 592 323 m 429 746 m 566 -285 m 0 557 m 363 -146 q 386 -95 363 -119 q 435 -71 408 -71 q 483 -89 465 -71 q 501 -138 501 -107 q 479 -188 501 -165 q 431 -210 458 -210 q 381 -192 399 -210 q 363 -146 363 -174 z "},"ޖ":{"ha":843,"x_min":-69,"x_max":783,"o":"m 648 536 q 770 404 770 503 q 695 255 770 312 q 494 197 620 197 q 446 199 468 197 l 403 204 q 318 174 387 204 q 211 120 250 144 q 142 72 172 97 q 94 20 113 47 q 64 -33 74 -6 q 54 -86 54 -60 q 104 -169 54 -138 q 241 -200 153 -200 q 393 -171 311 -200 q 456 -155 436 -155 q 494 -171 479 -155 q 509 -210 509 -186 q 426 -282 509 -252 q 240 -313 342 -313 q 14 -249 97 -313 q -69 -89 -69 -184 q 17 108 -69 18 q 271 256 104 198 q 249 300 249 269 q 277 357 249 336 q 353 378 305 378 q 409 356 386 378 q 432 317 432 335 q 498 310 458 310 q 635 403 635 310 q 505 489 635 470 q 457 542 457 496 q 510 600 457 587 q 586 625 538 606 q 660 659 635 643 q 725 682 698 682 q 767 666 750 682 q 783 628 783 650 q 748 578 783 600 q 648 536 713 557 m 633 -403 m 475 746 m 0 557 z "},"ޗ":{"ha":782,"x_min":-64,"x_max":865,"o":"m 322 300 q 229 205 249 231 q 208 155 208 179 q 225 134 208 145 q 297 98 241 123 q 395 41 365 69 q 425 -24 425 13 q 283 -163 425 -90 q 32 -236 141 -236 q -39 -219 -14 -236 q -64 -172 -64 -202 q 31 -107 -64 -114 q 181 -76 107 -102 q 254 -33 254 -51 q 243 -18 254 -24 q 197 3 232 -12 q 84 65 111 38 q 57 139 57 93 q 90 228 57 179 q 199 349 123 277 q 299 434 252 399 q 380 488 345 468 q 441 541 392 496 q 608 709 550 641 q 736 886 667 778 q 780 935 762 925 q 817 945 798 945 q 852 931 840 945 q 865 897 865 918 q 799 760 865 851 q 612 554 732 669 q 723 499 684 545 q 762 385 762 453 q 684 213 762 287 q 509 139 605 139 q 381 182 435 139 q 322 300 328 225 m 570 446 q 505 428 543 446 q 459 403 467 411 q 444 373 452 395 q 436 326 436 352 q 456 271 436 292 q 505 250 475 250 q 591 289 551 250 q 631 376 631 327 q 570 446 631 446 m 625 -315 m 350 746 z "},"ޘ":{"ha":782,"x_min":-64,"x_max":770,"o":"m 300 272 q 208 155 208 192 q 225 134 208 145 q 297 98 241 123 q 395 41 365 69 q 425 -24 425 13 q 283 -163 425 -90 q 32 -236 141 -236 q -39 -219 -14 -236 q -64 -172 -64 -202 q 31 -107 -64 -114 q 181 -76 107 -102 q 254 -33 254 -51 q 243 -18 254 -24 q 197 3 232 -12 q 84 65 111 38 q 57 139 57 93 q 247 395 57 229 q 589 561 436 561 q 714 509 665 561 q 762 380 762 458 q 694 208 762 277 q 505 138 627 138 q 396 174 452 138 q 300 272 340 211 m 387 347 q 449 282 410 308 q 519 256 487 256 q 601 286 572 256 q 631 368 631 316 q 614 423 631 402 q 570 444 597 444 q 387 347 492 444 m 424 746 m 604 -319 m 424 949 m 504 1038 m 508 830 q 531 881 508 857 q 581 905 554 905 q 629 887 610 905 q 647 839 647 869 q 625 789 647 811 q 576 766 603 766 q 526 784 545 766 q 508 830 508 802 m 354 654 q 377 705 354 680 q 426 729 399 729 q 475 711 456 729 q 493 662 493 692 q 471 612 493 634 q 422 590 449 590 q 372 608 391 590 q 354 654 354 625 m 631 654 q 654 705 631 680 q 704 729 677 729 q 752 711 734 729 q 770 662 770 692 q 749 612 770 634 q 700 590 727 590 q 650 608 669 590 q 631 654 631 625 z "},"ޙ":{"ha":743,"x_min":-78,"x_max":727,"o":"m -78 -68 q -60 -22 -78 -38 q 0 7 -42 -6 q 364 204 205 72 q 597 498 522 336 q 626 544 612 529 q 669 558 640 558 q 705 543 692 558 q 718 505 718 528 q 586 271 718 425 q 264 -4 454 117 q -8 -125 73 -125 q -59 -109 -39 -125 q -78 -68 -78 -93 m 427 746 m 688 -149 m 589 136 q 611 186 589 162 q 661 211 634 211 q 709 193 691 211 q 727 144 727 174 q 705 94 727 116 q 656 72 684 72 q 607 90 625 72 q 589 136 589 107 z "},"ޚ":{"ha":743,"x_min":-78,"x_max":718,"o":"m -78 -68 q -60 -22 -78 -38 q 0 7 -42 -6 q 364 204 205 72 q 597 498 522 336 q 626 544 612 529 q 669 558 640 558 q 705 543 692 558 q 718 505 718 528 q 586 271 718 425 q 264 -4 454 117 q -8 -125 73 -125 q -59 -109 -39 -125 q -78 -68 -78 -93 m 427 746 m 688 -149 m 288 385 q 310 435 288 411 q 359 460 333 460 q 408 441 390 460 q 426 393 426 423 q 404 343 426 365 q 355 321 382 321 q 306 338 324 321 q 288 385 288 356 z "},"ޛ":{"ha":878,"x_min":-158,"x_max":857,"o":"m 493 195 q 211 -87 393 62 q -93 -236 29 -236 q -140 -221 -123 -236 q -158 -182 -158 -206 q -138 -139 -158 -155 q -71 -110 -118 -123 q 155 12 35 -77 q 374 225 275 100 q 342 281 342 244 q 370 335 342 315 q 436 354 398 354 q 493 338 467 354 q 524 304 518 323 q 595 296 555 296 q 711 390 711 296 q 579 486 711 460 q 529 539 529 495 q 586 597 529 587 q 659 622 610 602 q 736 660 708 642 q 802 684 774 684 q 842 668 826 684 q 857 629 857 652 q 823 579 857 602 q 725 533 789 557 q 813 480 780 519 q 846 392 846 441 q 771 242 846 300 q 590 183 696 183 q 493 195 536 183 m 550 746 m 570 -258 m 549 990 m 0 557 m 515 720 q 538 770 515 746 q 587 795 561 795 q 636 777 618 795 q 654 728 654 758 q 632 678 654 700 q 583 656 610 656 q 534 673 552 656 q 515 720 515 691 z "},"ޜ":{"ha":1026,"x_min":-78,"x_max":1014,"o":"m 640 298 q 279 16 490 157 q -7 -125 67 -125 q -59 -109 -39 -125 q -78 -65 -78 -92 q 0 8 -78 -17 q 258 139 103 42 q 553 367 414 236 q 479 475 479 416 q 504 535 479 513 q 572 557 529 557 q 696 507 644 557 q 947 684 872 684 q 1014 633 1014 684 q 936 539 1014 575 q 779 424 866 506 q 871 397 806 405 q 943 323 943 389 q 914 266 943 288 q 842 244 885 244 q 640 298 745 244 m 688 746 m 860 -58 m 689 949 m 612 671 q 635 722 612 697 q 684 746 658 746 q 733 728 715 746 q 751 679 751 709 q 729 629 751 651 q 680 607 707 607 q 631 625 649 607 q 612 671 612 642 z "},"ޝ":{"ha":1489,"x_min":54,"x_max":1475,"o":"m 366 302 q 269 134 342 203 q 125 64 197 64 q 74 80 93 64 q 54 123 54 96 q 123 187 54 175 q 197 238 162 195 q 240 332 231 281 q 180 387 203 351 q 157 463 157 424 q 183 529 157 502 q 248 557 210 557 q 336 518 298 557 q 382 421 373 479 q 766 397 538 397 q 1173 462 1053 397 q 1332 612 1292 527 q 1413 671 1359 671 q 1457 655 1439 671 q 1475 614 1475 640 q 1391 461 1475 550 q 1163 327 1307 372 q 749 281 1019 281 q 366 302 509 281 m 807 746 m 999 139 m 807 949 m 807 780 m 1004 -33 m 728 699 q 751 749 728 725 q 800 774 774 774 q 848 755 830 774 q 867 707 867 737 q 845 657 867 680 q 795 635 823 635 q 746 652 764 635 q 728 699 728 670 m 574 522 q 596 573 574 549 q 646 597 619 597 q 694 579 676 597 q 713 530 713 561 q 691 480 713 503 q 642 458 669 458 q 592 476 610 458 q 574 522 574 494 m 851 522 q 874 573 851 549 q 924 597 897 597 q 972 579 954 597 q 990 530 990 561 q 968 480 990 503 q 920 458 947 458 q 870 476 888 458 q 851 522 851 494 z "},"ޞ":{"ha":1489,"x_min":54,"x_max":1475,"o":"m 366 302 q 269 134 342 203 q 125 64 197 64 q 74 80 93 64 q 54 123 54 96 q 123 187 54 175 q 197 238 162 195 q 240 332 231 281 q 180 387 203 351 q 157 463 157 424 q 183 529 157 502 q 248 557 210 557 q 336 518 298 557 q 382 421 373 479 q 766 397 538 397 q 1173 462 1053 397 q 1332 612 1292 527 q 1413 671 1359 671 q 1457 655 1439 671 q 1475 614 1475 640 q 1391 461 1475 550 q 1163 327 1307 372 q 749 281 1019 281 q 366 302 509 281 m 807 746 m 999 139 m 807 949 m 807 780 m 1004 -33 m 713 125 q 735 176 713 151 q 785 200 758 200 q 833 182 815 200 q 851 133 851 163 q 829 83 851 105 q 781 61 808 61 q 731 79 749 61 q 713 125 713 96 z "},"ޟ":{"ha":1489,"x_min":54,"x_max":1475,"o":"m 366 302 q 269 134 342 203 q 125 64 197 64 q 74 80 93 64 q 54 123 54 96 q 123 187 54 175 q 197 238 162 195 q 240 332 231 281 q 180 387 203 351 q 157 463 157 424 q 183 529 157 502 q 248 557 210 557 q 336 518 298 557 q 382 421 373 479 q 766 397 538 397 q 1173 462 1053 397 q 1332 612 1292 527 q 1413 671 1359 671 q 1457 655 1439 671 q 1475 614 1475 640 q 1391 461 1475 550 q 1163 327 1307 372 q 749 281 1019 281 q 366 302 509 281 m 807 746 m 999 139 m 807 949 m 807 780 m 1004 -33 m 713 536 q 735 587 713 562 q 785 611 758 611 q 833 593 815 611 q 851 544 851 574 q 829 494 851 516 q 781 472 808 472 q 731 490 749 472 q 713 536 713 507 z "},"ޠ":{"ha":782,"x_min":-64,"x_max":762,"o":"m 300 272 q 208 155 208 192 q 225 134 208 145 q 297 98 241 123 q 395 41 365 69 q 425 -24 425 13 q 283 -163 425 -90 q 32 -236 141 -236 q -39 -219 -14 -236 q -64 -172 -64 -202 q 31 -107 -64 -114 q 181 -76 107 -102 q 254 -33 254 -51 q 243 -18 254 -24 q 197 3 232 -12 q 84 65 111 38 q 57 139 57 93 q 247 395 57 229 q 589 561 436 561 q 714 509 665 561 q 762 380 762 458 q 694 208 762 277 q 505 138 627 138 q 396 174 452 138 q 300 272 340 211 m 387 347 q 449 282 410 308 q 519 256 487 256 q 601 286 572 256 q 631 368 631 316 q 614 423 631 402 q 570 444 597 444 q 387 347 492 444 m 424 746 m 604 -319 m 424 949 m 504 1038 m 529 -17 q 552 34 529 9 q 601 58 574 58 q 649 40 631 58 q 667 -9 667 22 q 646 -59 667 -37 q 597 -81 624 -81 q 547 -63 566 -81 q 529 -17 529 -45 z "},"ޡ":{"ha":782,"x_min":-64,"x_max":762,"o":"m 300 272 q 208 155 208 192 q 225 134 208 145 q 297 98 241 123 q 395 41 365 69 q 425 -24 425 13 q 283 -163 425 -90 q 32 -236 141 -236 q -39 -219 -14 -236 q -64 -172 -64 -202 q 31 -107 -64 -114 q 181 -76 107 -102 q 254 -33 254 -51 q 243 -18 254 -24 q 197 3 232 -12 q 84 65 111 38 q 57 139 57 93 q 247 395 57 229 q 589 561 436 561 q 714 509 665 561 q 762 380 762 458 q 694 208 762 277 q 505 138 627 138 q 396 174 452 138 q 300 272 340 211 m 387 347 q 449 282 410 308 q 519 256 487 256 q 601 286 572 256 q 631 368 631 316 q 614 423 631 402 q 570 444 597 444 q 387 347 492 444 m 424 746 m 604 -319 m 424 949 m 504 1038 m 509 689 q 531 740 509 715 q 581 764 554 764 q 629 746 611 764 q 647 697 647 728 q 625 647 647 669 q 576 625 604 625 q 527 643 545 625 q 509 689 509 661 z "},"ޢ":{"ha":766,"x_min":-20,"x_max":730,"o":"m 589 428 q 300 104 452 221 q 46 -12 149 -12 q -2 2 16 -12 q -20 41 -20 16 q 56 121 -20 95 q 268 239 165 159 q 444 429 370 319 q 529 529 494 502 q 597 557 563 557 q 690 493 649 557 q 730 350 730 429 q 707 159 730 243 q 660 46 683 75 q 597 17 637 17 q 539 77 539 17 q 572 182 539 113 q 608 339 608 259 q 589 428 608 395 m 653 -85 m 650 -239 m 417 746 m 289 -77 q 312 -26 289 -50 q 361 -1 334 -1 q 409 -20 391 -1 q 427 -68 427 -38 q 406 -118 427 -96 q 357 -140 384 -140 q 307 -123 326 -140 q 289 -77 289 -105 z "},"ޣ":{"ha":766,"x_min":-20,"x_max":730,"o":"m 589 428 q 300 104 452 221 q 46 -12 149 -12 q -2 2 16 -12 q -20 41 -20 16 q 56 121 -20 95 q 268 239 165 159 q 444 429 370 319 q 529 529 494 502 q 597 557 563 557 q 690 493 649 557 q 730 350 730 429 q 707 159 730 243 q 660 46 683 75 q 597 17 637 17 q 539 77 539 17 q 572 182 539 113 q 608 339 608 259 q 589 428 608 395 m 653 -85 m 650 -239 m 417 746 m 239 496 q 261 547 239 522 q 311 571 284 571 q 359 553 341 571 q 377 504 377 534 q 355 454 377 476 q 307 432 334 432 q 257 450 275 432 q 239 496 239 467 z "},"ޤ":{"ha":794,"x_min":-53,"x_max":778,"o":"m 207 0 q 404 33 323 0 q 485 117 485 66 q 453 154 485 136 q 347 200 421 172 q 243 319 243 239 q 299 405 243 366 q 494 502 355 445 q 710 558 633 558 q 760 542 741 558 q 778 501 778 526 q 701 432 778 439 q 494 382 608 425 q 380 317 380 340 q 388 305 380 310 q 443 283 395 300 q 583 207 551 243 q 615 134 615 170 q 484 -51 615 24 q 164 -125 353 -125 q 9 -96 72 -125 q -53 -26 -53 -68 q -37 16 -53 -2 q 4 33 -22 33 q 55 23 19 33 q 207 0 134 0 m 427 746 m 618 -236 m 443 949 m 330 677 q 353 728 330 704 q 402 753 376 753 q 451 734 433 753 q 469 686 469 716 q 447 636 469 658 q 398 614 425 614 q 349 631 367 614 q 330 677 330 649 m 552 677 q 575 728 552 704 q 625 753 598 753 q 673 734 655 753 q 691 686 691 716 q 669 636 691 658 q 621 614 648 614 q 571 631 589 614 q 552 677 552 649 z "},"ޥ":{"ha":612,"x_min":-83,"x_max":586,"o":"m 361 192 q 321 187 342 187 q 184 229 237 187 q 132 340 132 271 q 209 494 132 429 q 386 559 285 559 q 532 512 478 559 q 586 382 586 465 q 513 188 586 294 q 269 -22 439 81 q -12 -125 98 -125 q -64 -109 -45 -125 q -83 -65 -83 -92 q 7 7 -83 -9 q 361 192 197 39 m 457 386 q 380 450 457 450 q 297 418 332 450 q 261 354 261 386 q 342 294 261 294 q 422 326 387 294 q 457 386 457 357 m 313 746 m 581 -149 m 309 949 m 313 689 q 335 740 313 715 q 385 764 358 764 q 433 746 415 764 q 451 697 451 728 q 429 647 451 669 q 380 625 408 625 q 331 643 349 625 q 313 689 313 661 z "},"ޱ":{"ha":612,"x_min":7,"x_max":586,"o":"m 335 189 q 321 187 330 187 q 184 229 237 187 q 132 340 132 271 q 209 494 132 429 q 386 559 285 559 q 532 512 478 559 q 586 382 586 465 q 519 195 586 275 q 314 40 453 114 q 175 -46 216 -12 q 134 -117 134 -79 q 282 -200 134 -200 q 355 -191 317 -200 q 443 -148 393 -181 q 497 -123 479 -123 q 534 -139 520 -123 q 547 -179 547 -155 q 468 -271 547 -229 q 281 -313 389 -313 q 80 -259 154 -313 q 7 -117 7 -205 q 57 5 7 -43 q 241 129 107 54 q 335 189 315 171 m 457 386 q 380 450 457 450 q 297 418 332 450 q 261 354 261 386 q 342 294 261 294 q 422 326 387 294 q 457 386 457 357 m 330 746 m 581 -411 z "},"◌":{"ha":833,"x_min":81,"x_max":750,"o":"m 416 697 q 402 704 408 697 q 396 718 396 710 q 402 733 396 726 q 416 739 408 739 q 431 733 425 739 q 437 718 437 726 q 431 704 437 710 q 416 697 425 697 m 292 669 q 277 676 283 669 q 271 690 271 682 q 277 705 271 699 q 292 711 283 711 q 306 705 300 711 q 313 690 313 699 q 306 676 313 682 q 292 669 300 669 m 546 667 q 531 673 538 667 q 525 688 525 680 q 531 702 525 696 q 546 708 538 708 q 561 702 554 708 q 567 688 567 696 q 561 673 567 679 q 546 667 554 667 m 196 602 q 181 608 188 602 q 175 623 175 614 q 181 637 175 631 q 196 643 187 643 q 210 637 204 643 q 216 623 216 631 q 210 608 216 614 q 196 602 204 602 m 652 590 q 637 596 643 590 q 631 611 631 603 q 637 626 631 619 q 652 632 643 632 q 666 626 660 632 q 672 611 672 619 q 666 596 672 603 q 652 590 660 590 m 127 503 q 113 509 119 503 q 107 524 107 515 q 113 538 107 532 q 127 545 119 545 q 142 538 136 545 q 149 524 149 532 q 142 509 149 515 q 127 503 136 503 m 713 489 q 698 495 704 489 q 692 510 692 501 q 698 524 692 518 q 713 530 704 530 q 727 524 721 530 q 733 510 733 518 q 727 495 733 501 q 713 489 721 489 m 729 382 q 714 388 721 382 q 708 403 708 395 q 714 417 708 411 q 729 424 721 424 q 744 417 737 424 q 750 403 750 411 q 744 388 750 395 q 729 382 737 382 m 102 382 q 87 388 93 382 q 81 403 81 395 q 87 417 81 411 q 102 424 93 424 q 116 417 110 424 q 122 403 122 411 q 116 388 122 395 q 102 382 110 382 m 705 260 q 691 266 697 260 q 685 281 685 272 q 691 295 685 289 q 705 301 697 301 q 720 295 714 301 q 726 281 726 289 q 720 266 726 272 q 705 260 714 260 m 134 249 q 119 255 125 249 q 113 269 113 261 q 119 284 113 278 q 134 290 125 290 q 148 284 142 290 q 154 269 154 278 q 148 255 154 261 q 134 249 142 249 m 639 161 q 624 168 631 161 q 618 182 618 174 q 624 197 618 191 q 639 203 631 203 q 653 197 647 203 q 660 182 660 191 q 653 168 660 174 q 639 161 647 161 m 207 149 q 192 155 199 149 q 186 170 186 161 q 192 184 186 178 q 207 191 199 191 q 221 184 215 191 q 228 170 228 178 q 221 155 228 161 q 207 149 215 149 m 542 93 q 527 99 534 93 q 521 114 521 106 q 527 129 521 122 q 542 135 533 135 q 556 129 550 135 q 562 114 562 122 q 556 99 562 106 q 542 93 550 93 m 306 87 q 291 94 297 87 q 285 109 285 100 q 291 123 285 117 q 306 129 297 129 q 320 123 314 129 q 326 109 326 117 q 320 94 326 100 q 306 87 314 87 m 416 68 q 402 74 408 68 q 396 89 396 81 q 402 103 396 97 q 416 110 408 110 q 431 103 425 110 q 437 89 437 97 q 431 74 437 81 q 416 68 425 68 m 406 888 m 627 -56 z "},"ﷲ":{"ha":1137,"x_min":7,"x_max":1117,"o":"m 566 993 q 591 974 591 993 q 587 814 591 845 q 558 783 582 783 q 532 812 532 783 l 538 956 q 566 993 538 993 m 1072 864 q 1117 812 1117 864 q 1100 407 1117 586 q 1062 201 1082 229 q 1015 174 1042 174 q 981 187 995 174 q 968 218 968 200 q 979 278 968 238 q 1015 778 1015 408 q 1030 840 1015 815 q 1072 864 1045 864 m 547 574 q 478 526 528 526 q 431 552 451 526 q 411 612 411 578 q 421 667 411 644 q 439 701 431 691 q 463 711 448 711 q 478 694 478 711 q 467 664 478 684 q 457 619 457 646 q 488 589 457 589 q 514 598 504 589 q 525 625 525 608 q 526 657 525 642 q 532 684 527 673 q 547 694 536 694 q 570 679 570 694 q 608 597 570 597 q 640 637 640 597 q 633 685 640 656 q 628 710 628 703 q 646 730 628 730 q 661 721 656 730 q 671 682 665 711 q 676 635 676 653 q 604 534 676 534 q 547 574 564 534 m 264 113 q 159 27 220 60 q 50 -5 97 -5 q 19 8 31 -5 q 7 41 7 22 q 18 79 7 62 q 47 100 29 95 q 252 323 227 155 q 267 354 254 342 q 298 367 281 367 q 349 326 349 367 q 411 191 349 191 q 474 246 450 191 q 498 368 498 302 q 547 440 498 440 q 585 430 575 440 q 598 385 594 419 q 627 246 608 278 q 675 214 646 214 q 737 247 716 214 q 767 386 758 279 q 775 599 775 492 q 822 653 775 653 q 856 641 839 653 q 872 611 872 629 q 862 350 872 490 q 795 127 852 210 q 660 45 739 45 q 575 77 612 45 q 524 161 537 109 q 382 21 474 21 q 264 113 292 21 z "},"ަ":{"ha":0,"x_min":17,"x_max":390,"o":"m 17 704 q 28 736 17 724 q 69 761 39 747 q 292 937 161 801 q 350 966 321 966 q 390 924 390 966 q 265 771 390 885 q 72 657 140 657 q 32 670 47 657 q 17 704 17 683 m 133 657 z "},"ާ":{"ha":0,"x_min":17,"x_max":585,"o":"m 17 762 q 28 794 17 783 q 69 819 39 806 q 267 965 163 861 q 322 993 294 993 q 363 950 363 993 q 249 814 363 912 q 72 715 134 715 q 32 728 47 715 q 17 762 17 741 m 239 704 q 250 736 239 725 q 292 761 262 748 q 489 907 385 803 q 545 935 517 935 q 585 892 585 935 q 471 755 585 854 q 294 657 357 657 q 254 670 269 657 q 239 704 239 683 m 302 657 z "},"ި":{"ha":0,"x_min":17,"x_max":557,"o":"m 17 -269 q 69 -208 17 -227 q 301 -94 178 -170 q 361 -75 334 -75 q 391 -87 378 -75 q 403 -114 403 -99 q 266 -233 403 -154 q 69 -313 129 -313 q 32 -300 46 -313 q 17 -269 17 -288 m 557 -47 z "},"ީ":{"ha":0,"x_min":9,"x_max":694,"o":"m 9 -270 q 62 -209 9 -228 q 294 -95 170 -170 q 354 -75 326 -75 q 384 -87 371 -75 q 396 -115 396 -99 q 258 -234 396 -155 q 62 -313 121 -313 q 24 -301 39 -313 q 9 -270 9 -288 m 309 -307 q 361 -246 309 -265 q 593 -132 469 -208 q 653 -113 625 -113 q 682 -125 670 -113 q 694 -152 694 -137 q 557 -271 694 -192 q 361 -351 420 -351 q 323 -338 338 -351 q 309 -307 309 -326 m 652 -85 z "},"ު":{"ha":0,"x_min":17,"x_max":340,"o":"m 237 852 q 94 897 194 887 q 41 943 41 903 q 57 979 41 964 q 97 993 72 993 q 250 959 160 993 q 340 867 340 924 q 232 735 340 812 q 72 657 123 657 q 17 701 17 657 q 29 737 17 725 q 69 758 41 749 q 237 852 195 804 m 93 657 z "},"ޫ":{"ha":0,"x_min":17,"x_max":673,"o":"m 237 852 q 94 897 194 887 q 41 943 41 903 q 57 979 41 964 q 97 993 72 993 q 250 959 160 993 q 340 867 340 924 q 232 735 340 812 q 72 657 123 657 q 17 701 17 657 q 29 737 17 725 q 69 758 41 749 q 237 852 195 804 m 571 852 q 428 897 527 887 q 375 943 375 903 q 390 979 375 965 q 431 993 406 993 q 583 959 493 993 q 673 867 673 924 q 565 735 673 812 q 406 657 456 657 q 350 701 350 657 q 362 737 350 725 q 403 758 375 749 q 571 852 528 804 m 411 657 z "},"ެ":{"ha":0,"x_min":16,"x_max":339,"o":"m 118 798 q 261 753 161 763 q 314 707 314 747 q 299 671 314 685 q 258 657 283 657 q 105 691 195 657 q 16 783 16 726 q 124 916 16 838 q 283 993 233 993 q 339 949 339 993 q 327 913 339 925 q 286 892 314 901 q 118 798 160 846 m 190 657 z "},"ޭ":{"ha":0,"x_min":16,"x_max":672,"o":"m 452 798 q 595 753 495 763 q 647 707 647 747 q 632 671 647 686 q 591 657 617 657 q 439 691 529 657 q 349 783 349 726 q 457 916 349 838 q 616 993 566 993 q 672 949 672 993 q 661 915 672 928 q 619 892 650 903 q 452 798 494 846 m 118 798 q 261 753 161 763 q 314 707 314 747 q 299 671 314 685 q 258 657 283 657 q 105 691 195 657 q 16 783 16 726 q 124 916 16 838 q 283 993 233 993 q 339 949 339 993 q 327 913 339 925 q 286 892 314 901 q 118 798 160 846 m 384 657 z "},"ޮ":{"ha":0,"x_min":17,"x_max":616,"o":"m 293 785 q 182 702 255 747 q 72 657 110 657 q 17 701 17 657 q 29 737 17 725 q 69 758 41 749 q 237 852 195 804 q 94 897 194 887 q 41 943 41 903 q 57 979 41 964 q 97 993 72 993 q 250 959 160 993 q 340 867 340 924 l 340 865 q 453 950 383 907 q 561 993 524 993 q 616 949 616 993 q 606 915 616 928 q 564 892 595 903 q 396 798 438 846 q 539 753 439 763 q 591 707 591 747 q 576 671 591 685 q 536 657 561 657 q 383 691 473 657 q 293 783 293 726 l 293 785 m 342 657 z "},"ޯ":{"ha":0,"x_min":25,"x_max":659,"o":"m 509 1120 q 274 1015 421 1120 q 127 843 127 911 q 161 791 127 810 q 243 764 195 771 q 296 707 296 756 q 280 671 296 685 q 240 657 265 657 q 96 712 167 657 q 25 847 25 768 q 118 1004 25 914 q 327 1154 210 1093 q 515 1215 444 1215 q 619 1181 580 1215 q 659 1082 659 1146 q 643 997 659 1048 q 582 893 627 947 q 494 840 536 840 q 461 854 476 840 q 446 889 446 869 q 453 925 446 909 q 486 962 460 941 q 555 1075 555 1023 q 509 1120 555 1120 m 369 657 z "},"ް":{"ha":0,"x_min":25,"x_max":406,"o":"m 406 872 q 340 730 406 803 q 186 657 274 657 q 71 698 116 657 q 25 803 25 739 q 107 929 25 866 q 281 993 189 993 q 372 961 338 993 q 406 872 406 930 m 189 751 q 263 797 223 751 q 302 869 302 842 q 273 901 302 901 q 178 864 229 901 q 127 799 127 826 q 145 766 127 780 q 189 751 162 751 m 272 657 z "},"?":{"ha":755,"x_min":213,"x_max":890,"o":"m 421 292 q 396 304 407 292 q 378 334 385 316 q 367 373 371 351 q 363 412 363 394 q 373 461 363 443 q 410 496 382 480 q 431 508 416 499 q 466 530 446 517 q 509 556 486 542 q 554 584 532 570 q 593 609 575 597 q 621 626 611 620 q 664 657 639 638 q 712 698 689 675 q 750 745 734 720 q 766 796 766 770 q 762 821 766 809 q 750 842 758 833 q 734 858 743 852 q 716 863 725 863 q 622 853 669 863 q 527 826 574 844 q 434 784 479 808 q 345 732 388 760 l 345 732 q 333 723 341 729 q 315 712 325 718 q 294 702 304 707 q 275 698 283 698 q 257 701 268 698 q 237 710 247 704 q 220 726 227 716 q 213 748 213 735 q 224 775 213 761 q 253 804 235 789 q 292 833 271 819 q 335 859 314 847 q 375 880 357 871 q 405 894 394 889 q 557 944 483 924 q 707 964 631 964 q 772 949 739 964 q 831 908 804 934 q 874 850 857 883 q 890 781 890 817 q 877 723 890 751 q 841 669 863 695 q 791 618 819 642 q 734 571 764 593 q 677 531 705 549 q 628 497 650 512 q 583 468 607 483 q 539 440 559 454 q 503 415 518 427 q 483 392 487 402 q 478 367 479 378 q 477 347 477 356 q 476 328 476 338 q 472 311 477 319 q 456 297 468 302 q 421 292 445 292 m 478 91 q 468 47 478 68 q 442 10 458 26 q 405 -15 426 -5 q 360 -24 383 -24 q 327 -18 342 -24 q 300 0 311 -12 q 282 27 288 12 q 275 60 275 43 q 286 105 275 83 q 313 142 296 126 q 352 169 330 159 q 396 178 374 178 q 429 172 414 178 q 455 153 444 165 q 472 125 466 142 q 478 91 478 109 z "},"@":{"ha":1233,"x_min":180,"x_max":1343,"o":"m 200 400 q 258 572 222 489 q 341 727 293 654 q 450 859 389 800 q 585 961 511 918 q 745 1027 659 1004 q 930 1050 831 1050 q 1030 1043 980 1050 q 1127 1020 1081 1036 q 1212 982 1173 1005 q 1281 928 1252 959 q 1327 858 1310 897 q 1343 771 1343 819 q 1335 701 1343 736 q 1289 584 1318 635 q 1219 489 1259 533 q 1129 405 1179 445 q 1025 322 1080 365 q 992 299 1010 311 q 956 278 974 288 q 919 263 937 269 q 884 258 901 258 q 847 263 862 258 q 822 277 833 268 q 804 300 812 287 q 787 329 796 313 l 786 329 q 738 307 761 318 q 693 286 715 296 q 647 271 670 277 q 598 264 624 264 q 539 275 565 264 q 494 305 513 286 q 466 349 476 323 q 456 405 456 375 q 475 487 456 445 q 524 571 494 530 q 591 653 554 613 q 663 727 627 692 q 704 763 677 742 q 761 804 730 785 q 824 838 791 824 q 885 852 857 852 q 906 847 897 852 q 921 835 914 842 q 933 818 928 827 q 942 800 938 809 q 957 776 949 787 q 972 755 965 766 q 985 734 980 745 q 990 709 990 723 q 981 665 990 687 q 959 619 971 644 q 944 591 950 604 q 934 565 939 579 q 924 533 929 551 q 911 485 919 514 q 906 460 909 473 q 900 433 903 446 q 897 408 898 420 q 895 389 895 397 l 895 385 q 941 400 914 387 q 998 436 968 414 q 1059 483 1028 457 q 1115 533 1089 508 q 1149 567 1130 545 q 1185 612 1168 588 q 1217 661 1203 637 q 1237 705 1232 686 q 1241 724 1240 714 q 1242 744 1242 734 q 1226 807 1242 779 q 1186 857 1211 835 q 1127 895 1160 879 q 1059 922 1095 911 q 989 938 1024 932 q 926 943 955 943 q 755 922 832 943 q 615 865 678 902 q 504 775 553 827 q 416 659 454 723 q 350 522 378 595 q 302 370 322 449 q 290 304 294 336 q 286 243 286 273 q 301 139 286 186 q 349 58 317 92 q 429 5 380 24 q 545 -14 478 -14 q 667 2 606 -14 q 788 44 728 17 q 903 110 847 72 q 1010 193 960 148 q 1022 209 1018 198 q 1031 230 1026 220 q 1044 249 1036 241 q 1065 257 1051 257 q 1086 252 1077 257 q 1102 239 1095 248 q 1112 221 1108 231 q 1115 199 1115 210 q 1109 169 1115 187 q 1095 136 1103 151 q 979 37 1046 83 q 835 -46 911 -10 q 682 -102 760 -81 q 535 -123 604 -123 q 379 -95 446 -123 q 269 -17 313 -66 q 202 99 224 32 q 180 243 180 165 q 200 400 180 318 m 611 376 q 665 385 636 376 q 720 406 694 393 q 765 434 746 418 q 787 464 783 450 l 793 488 q 806 532 799 509 q 821 577 814 555 q 830 606 825 590 q 841 639 836 623 q 849 670 846 655 q 853 697 853 686 q 850 707 853 703 q 840 711 847 711 q 800 695 826 711 q 742 655 773 680 q 678 598 711 630 q 618 533 645 566 q 574 468 591 500 q 557 410 557 435 q 561 394 557 401 q 573 384 566 388 q 590 378 581 380 q 611 376 600 376 z "},"A":{"ha":960,"x_min":120,"x_max":975,"o":"m 741 -7 q 716 -2 727 -7 q 698 12 705 3 q 687 33 691 21 q 684 56 684 44 q 689 84 684 66 q 703 124 694 102 q 722 171 711 146 q 741 218 732 195 q 758 259 751 240 q 767 289 764 278 q 774 318 770 301 q 783 355 778 335 q 793 397 788 375 q 804 441 798 419 q 780 438 794 439 q 751 435 766 436 q 707 429 728 433 q 662 419 685 425 q 615 409 640 414 q 563 397 591 403 q 481 377 522 388 q 397 366 441 366 q 372 373 383 366 q 346 384 360 380 q 320 337 332 362 q 298 287 308 313 q 279 235 288 260 q 265 187 271 210 q 259 156 262 175 q 255 116 257 136 q 251 78 253 96 q 247 49 249 60 q 239 29 245 39 q 224 11 233 19 q 204 -2 215 3 q 182 -7 193 -7 q 152 4 163 -7 q 133 32 140 15 q 123 68 125 48 q 120 104 120 87 q 130 190 120 145 q 158 280 140 234 q 198 372 175 326 q 249 465 222 418 q 304 560 271 506 q 379 672 338 614 q 468 784 420 729 q 567 882 515 839 q 673 951 618 925 q 781 978 727 978 q 874 958 837 978 q 935 903 912 937 q 966 822 957 868 q 975 724 975 776 q 969 631 975 679 q 955 536 964 583 q 937 448 947 490 q 919 370 927 405 l 895 278 q 890 262 894 274 q 881 232 886 250 q 868 195 875 215 q 853 156 861 175 q 840 120 846 136 q 829 94 833 104 l 829 94 q 819 58 825 77 q 804 25 814 40 q 780 2 795 11 q 741 -7 765 -7 m 776 842 q 715 829 745 842 q 656 796 685 817 q 599 749 627 776 q 547 693 572 722 q 500 636 522 665 q 461 583 479 607 q 454 572 458 578 q 445 558 450 566 q 437 542 441 550 q 430 526 433 533 l 500 526 q 587 532 538 526 q 683 545 635 537 q 771 560 731 552 q 831 572 811 568 q 837 595 834 581 q 841 629 839 610 q 844 668 843 647 q 845 710 845 688 q 844 750 845 728 q 836 793 842 773 q 815 828 829 814 q 776 842 801 842 z "},"B":{"ha":840,"x_min":126,"x_max":973,"o":"m 838 304 q 809 203 838 255 q 717 107 780 152 q 669 78 697 94 q 608 45 641 62 q 539 14 575 29 q 466 -13 503 -1 q 393 -32 429 -24 q 327 -39 358 -39 q 300 -36 311 -39 q 279 -28 289 -34 q 261 -11 270 -22 q 242 16 252 0 q 208 -2 226 4 q 172 -7 190 -7 l 153 -7 q 142 -4 147 -7 q 134 5 138 0 q 128 17 130 11 q 126 30 126 24 q 136 96 126 64 q 159 159 146 127 q 197 280 178 216 q 235 407 217 343 q 270 533 254 471 q 301 650 287 595 l 320 729 q 319 741 320 731 q 318 761 319 750 q 316 782 317 772 l 315 791 l 319 802 l 318 802 q 328 829 321 814 q 342 859 334 845 q 362 881 351 872 q 385 890 372 890 q 414 889 396 890 q 446 887 432 887 q 459 888 453 887 q 476 891 466 888 q 502 899 486 894 q 543 913 517 904 q 614 936 582 926 q 675 950 646 945 q 731 959 704 956 q 787 962 758 962 q 856 955 823 962 q 916 933 890 948 q 958 893 942 918 q 973 833 973 868 q 941 724 973 772 q 851 635 909 676 q 711 558 793 593 q 529 488 629 522 q 667 459 609 475 q 763 420 725 442 q 819 369 801 397 q 838 304 838 340 m 607 366 q 582 371 600 368 q 540 378 564 374 q 488 387 516 382 q 435 396 460 391 q 390 404 410 400 q 359 411 369 408 q 314 251 334 328 q 275 98 295 175 l 320 93 q 348 91 336 92 q 361 90 359 90 q 421 100 389 92 q 489 120 454 108 q 559 148 524 132 q 630 182 595 163 q 657 201 643 190 q 683 227 671 213 q 702 256 694 241 q 709 288 709 272 q 681 335 709 315 q 607 366 652 355 m 393 524 q 473 552 431 536 q 559 589 515 569 q 649 630 604 608 q 741 675 695 652 l 740 675 q 772 696 756 684 q 801 723 788 709 q 821 754 813 738 q 829 785 829 770 q 824 806 829 795 q 809 824 819 816 q 782 837 799 832 q 741 842 766 842 q 665 833 707 842 q 582 812 622 825 q 511 783 542 799 q 469 753 479 768 q 464 739 467 750 q 455 713 460 727 q 445 686 450 699 q 435 667 440 673 q 430 647 434 661 q 420 614 426 633 q 407 572 414 595 q 393 524 400 549 z "},"C":{"ha":827,"x_min":160,"x_max":879,"o":"m 160 289 q 170 378 160 328 q 203 475 179 428 q 275 601 235 540 q 357 712 315 661 q 441 803 399 764 q 522 865 484 843 l 521 865 q 571 896 545 880 q 625 926 597 912 q 682 948 653 939 q 738 957 710 957 q 792 945 766 957 q 837 914 818 934 q 868 867 857 894 q 879 811 879 841 q 877 778 879 790 q 869 760 874 766 q 856 753 864 754 q 838 751 848 751 q 815 758 823 751 q 801 773 806 764 q 793 794 796 783 q 787 814 791 805 q 778 830 783 823 q 762 836 772 836 q 703 824 734 836 q 638 791 671 812 q 573 745 606 771 q 510 692 540 719 q 455 638 480 665 q 411 591 429 612 q 361 520 384 556 q 323 448 339 485 q 298 372 307 411 q 289 291 289 333 q 298 234 289 258 q 318 192 307 210 q 350 164 331 172 q 395 156 369 156 q 502 167 453 156 q 595 196 551 178 q 683 239 640 214 q 771 293 726 264 l 789 293 q 807 288 798 293 q 823 276 816 283 q 834 259 830 269 q 839 239 839 250 q 821 195 839 217 q 776 153 804 173 q 714 115 749 133 q 646 84 680 98 q 583 61 612 71 q 536 48 554 52 q 508 42 522 45 q 475 36 494 39 q 429 31 456 33 q 363 29 403 29 q 318 37 338 29 q 282 55 298 45 q 255 77 266 66 q 237 97 243 89 q 178 189 197 144 q 160 289 160 235 z "},"D":{"ha":965,"x_min":67,"x_max":1021,"o":"m 100 102 q 164 130 132 124 q 232 139 196 136 l 401 825 q 386 826 399 825 q 358 828 374 826 q 328 833 343 829 q 306 845 313 838 q 297 858 302 850 q 288 874 292 865 q 279 893 283 884 q 276 912 276 903 q 289 938 276 928 q 322 955 302 949 q 363 964 341 962 q 404 967 386 967 q 563 962 490 967 q 699 940 635 957 q 818 892 762 923 q 925 808 874 861 q 961 764 944 789 q 992 711 979 740 q 1013 649 1005 682 q 1021 580 1021 616 q 1019 538 1021 560 q 1014 501 1017 517 q 959 362 994 422 q 876 254 923 301 q 772 172 829 207 q 656 112 716 138 q 533 67 595 86 q 412 33 471 48 l 412 33 q 355 19 386 25 q 294 9 325 13 q 232 2 262 5 q 174 0 201 0 q 123 4 144 0 q 91 14 103 7 q 73 28 78 20 q 67 46 67 37 q 75 74 67 60 q 100 102 83 89 m 399 296 q 382 225 391 262 q 365 153 373 189 l 380 157 q 421 167 395 160 q 479 184 446 174 q 549 208 513 194 q 627 242 586 222 q 708 288 668 262 q 785 343 748 313 q 849 407 821 373 q 893 479 877 441 q 910 557 910 517 q 894 636 910 599 q 850 704 878 673 q 786 761 823 736 q 711 803 750 785 q 631 830 671 821 q 555 839 591 839 q 468 572 504 707 q 399 296 432 436 z "},"E":{"ha":837,"x_min":145,"x_max":1034,"o":"m 145 50 q 152 100 145 74 q 206 281 175 193 q 262 457 237 370 q 303 605 287 545 q 333 708 320 665 q 357 782 346 751 q 380 844 368 813 q 398 882 389 862 q 420 918 408 901 q 444 945 431 935 q 470 956 456 956 q 512 946 498 956 q 530 930 527 937 l 536 902 q 563 906 547 903 q 596 912 579 909 q 627 919 612 916 q 648 925 641 922 q 731 946 693 937 q 803 961 769 955 q 869 969 838 966 q 932 972 900 972 q 983 968 963 972 q 1014 959 1002 965 q 1030 946 1025 954 q 1034 929 1034 938 q 1030 912 1034 921 q 1015 895 1025 903 q 989 880 1005 886 q 948 872 972 874 q 920 867 942 871 q 872 859 898 863 q 823 850 846 854 q 791 844 800 846 l 792 844 q 773 839 788 844 q 736 829 758 835 q 689 816 714 823 q 638 801 663 808 q 593 788 614 794 q 559 777 572 781 q 494 734 517 761 q 457 674 471 707 q 449 653 454 668 q 437 620 444 639 q 423 581 431 602 q 409 541 416 559 q 397 506 402 522 q 390 483 392 490 q 387 471 388 476 q 387 463 387 465 q 389 458 387 458 q 431 468 399 458 q 506 490 463 477 q 598 519 549 504 q 693 549 648 535 q 773 571 738 562 q 824 581 808 581 q 856 573 848 581 q 864 555 864 565 q 847 513 864 531 q 804 481 829 494 q 773 469 795 477 q 726 453 751 461 q 677 437 701 445 q 644 427 654 430 q 536 384 578 401 q 469 357 494 368 q 429 341 443 347 q 403 332 415 336 q 377 325 391 328 q 338 315 363 321 q 323 272 332 301 q 308 213 315 243 q 295 155 300 182 q 290 119 290 129 q 294 101 290 106 q 302 93 297 95 q 311 91 307 91 q 319 91 316 91 q 397 100 351 91 q 488 125 443 110 q 562 158 530 140 q 622 191 594 176 q 677 217 650 206 q 736 228 704 227 q 752 227 743 228 q 769 221 761 225 q 782 212 777 218 q 786 196 787 205 q 766 157 783 176 q 724 121 749 138 q 666 87 698 103 q 601 56 634 71 q 536 30 568 41 q 479 9 504 18 q 357 -23 416 -13 q 252 -33 298 -33 q 173 -14 200 -33 q 145 50 145 5 z "},"F":{"ha":767,"x_min":163,"x_max":989,"o":"m 465 732 q 451 704 459 724 q 433 658 442 684 q 415 603 424 632 q 398 548 406 574 q 385 504 390 523 q 378 478 379 484 q 373 456 376 471 q 366 430 369 441 q 516 473 442 456 q 665 490 591 490 q 696 489 677 490 q 733 484 715 488 q 765 470 751 479 q 778 443 778 460 q 777 434 778 442 q 773 416 777 427 q 763 396 770 406 q 743 381 755 386 q 729 382 736 382 q 714 382 722 382 q 617 373 666 382 q 520 350 569 365 q 422 316 471 336 q 324 273 373 296 l 256 -23 q 244 -44 254 -35 q 225 -53 235 -53 l 209 -53 q 173 -32 183 -53 q 163 22 163 -11 q 168 83 163 50 q 179 147 173 116 q 190 204 185 178 q 195 243 195 230 q 178 268 186 255 q 170 300 170 281 q 186 347 170 330 q 227 382 201 365 q 233 389 230 384 q 238 401 236 395 q 242 415 241 408 q 245 427 244 422 l 273 527 q 302 630 290 586 q 326 710 315 675 q 346 773 337 745 q 364 828 355 802 q 373 853 367 837 q 389 885 380 869 q 410 912 398 901 q 435 924 421 924 q 476 919 465 924 q 491 905 488 913 l 497 890 q 528 896 508 892 q 569 904 548 899 q 609 913 591 909 q 635 920 627 918 q 719 941 681 932 q 791 956 757 950 q 856 964 825 962 q 919 967 887 967 q 947 966 934 967 q 969 961 960 964 q 983 950 978 957 q 989 931 989 943 q 986 916 989 925 q 977 898 983 907 q 961 880 971 888 q 935 868 950 872 q 918 864 930 867 q 889 859 905 862 q 856 853 873 857 q 821 848 838 850 q 763 834 795 842 q 696 819 731 827 q 626 800 661 810 q 559 779 591 789 q 504 756 528 768 q 465 732 479 745 z "},"G":{"ha":946,"x_min":163,"x_max":1008,"o":"m 889 481 q 860 472 881 479 q 812 456 839 465 q 756 436 786 447 q 701 417 727 426 q 654 401 674 408 q 628 392 635 394 q 616 388 623 391 q 601 381 608 385 q 586 375 593 378 q 574 372 578 372 q 549 377 560 372 q 530 393 538 383 q 517 415 522 402 q 513 441 513 428 q 529 486 513 469 q 566 510 545 502 q 610 522 587 519 q 648 526 633 524 q 656 528 650 526 q 670 533 663 530 q 685 538 677 536 q 697 540 692 540 q 735 556 709 545 q 791 578 761 567 q 852 598 822 589 q 904 606 882 606 q 947 598 928 606 q 980 577 966 591 q 1001 544 994 563 q 1008 503 1008 526 q 1006 484 1008 494 q 1002 460 1005 474 q 940 318 981 384 q 842 200 898 253 q 718 106 785 146 q 578 39 650 65 l 578 39 q 550 30 567 35 q 516 20 534 24 q 480 13 498 16 q 450 10 463 10 q 406 12 424 10 q 375 16 387 14 q 354 22 362 18 q 338 28 345 25 q 268 71 300 46 q 212 128 235 96 q 176 200 189 161 q 163 287 163 240 q 180 392 163 337 q 224 502 196 446 q 291 612 253 557 q 374 716 330 666 q 468 808 419 766 q 564 884 516 851 q 627 924 593 903 q 696 960 661 944 q 767 987 731 977 q 838 998 804 998 q 893 989 866 998 q 942 967 920 981 q 977 931 964 952 q 991 884 991 910 q 987 859 991 873 q 982 840 986 854 q 972 819 978 827 l 973 821 q 964 810 970 812 q 951 809 958 809 q 916 819 930 809 q 890 841 902 829 q 866 863 878 853 q 838 873 854 873 l 819 873 q 707 830 766 862 q 588 754 647 799 q 474 653 528 709 q 378 538 420 597 q 312 417 337 478 q 288 299 288 355 q 309 220 288 253 q 370 155 330 187 l 369 155 q 415 132 390 142 q 463 123 439 123 q 516 132 488 123 q 574 156 545 142 q 630 187 603 170 q 680 218 658 204 q 802 330 752 265 q 883 463 851 394 q 886 470 884 467 q 888 476 887 473 q 889 481 888 479 z "},"H":{"ha":1012,"x_min":113,"x_max":1125,"o":"m 113 20 q 115 40 113 28 q 121 66 117 53 q 128 92 124 79 q 134 111 132 104 l 408 1013 q 416 1021 412 1017 q 425 1026 419 1024 q 439 1029 431 1029 l 450 1029 q 475 1024 465 1029 q 492 1010 486 1019 q 500 990 498 1002 q 503 966 503 979 q 501 944 503 956 q 497 921 499 932 q 493 900 495 909 q 489 885 490 890 l 348 404 l 412 410 q 632 459 520 433 q 852 508 745 484 q 874 533 865 514 q 893 583 884 552 q 913 654 902 613 q 939 745 924 695 l 954 792 q 969 862 962 826 q 987 926 977 897 q 1013 974 997 956 q 1053 993 1028 993 q 1106 971 1087 993 q 1125 916 1125 949 q 1109 845 1125 895 q 1069 724 1093 795 q 1050 670 1061 698 q 1032 617 1040 642 q 1018 570 1023 591 q 1013 536 1013 549 q 1016 512 1013 524 q 1019 486 1019 500 q 1003 435 1019 456 q 958 394 987 415 q 955 377 957 389 q 949 353 952 366 l 940 319 q 924 244 930 281 q 912 170 918 207 q 902 97 907 134 q 887 24 896 60 q 875 0 884 11 q 856 -18 867 -10 q 832 -29 844 -25 q 809 -33 820 -33 q 783 -26 793 -33 q 767 -8 772 -18 q 759 13 761 2 q 757 31 757 24 q 759 58 757 39 q 766 102 762 77 q 775 156 770 127 q 786 215 781 185 q 816 366 799 284 l 811 366 q 773 362 793 366 q 724 352 753 359 q 686 341 711 348 q 628 326 661 334 q 558 307 595 317 q 483 286 520 296 l 299 236 q 275 179 286 210 q 254 116 264 148 q 237 54 245 85 q 222 -3 229 24 q 214 -20 220 -11 q 199 -36 208 -28 q 181 -48 191 -43 q 164 -53 172 -53 q 139 -46 149 -53 q 123 -30 130 -40 q 115 -6 117 -19 q 113 20 113 7 z "},"I":{"ha":406,"x_min":149,"x_max":518,"o":"m 233 389 q 247 448 239 416 q 266 515 256 480 q 286 585 275 549 q 306 652 296 620 q 323 713 315 685 q 338 761 332 741 q 362 849 351 805 q 385 943 374 894 q 421 980 398 969 q 471 991 444 991 q 506 960 493 980 q 518 915 518 940 q 512 874 518 897 q 498 826 507 852 q 478 771 489 800 q 457 711 467 742 q 419 600 438 656 q 382 483 400 545 q 372 450 377 467 q 360 415 366 434 q 348 373 355 396 q 334 319 341 349 q 320 247 326 283 q 309 174 314 210 q 296 100 303 137 q 280 24 290 62 q 268 0 277 11 q 249 -18 260 -10 q 226 -29 238 -25 q 203 -33 214 -33 q 182 -32 192 -33 q 167 -24 172 -30 q 154 -4 159 -15 q 149 19 149 7 q 150 25 149 22 q 151 32 150 28 l 233 389 z "},"J":{"ha":946,"x_min":86,"x_max":1178,"o":"m 197 308 q 214 299 208 308 q 224 279 220 291 q 228 252 227 267 q 229 226 229 238 l 229 200 q 266 152 243 178 q 316 103 288 125 q 378 65 345 80 q 450 50 412 50 q 526 68 490 50 q 592 119 562 87 q 648 191 623 151 q 695 276 674 232 q 731 363 715 319 q 759 443 747 406 q 777 506 770 479 q 787 543 784 533 q 817 681 804 615 q 829 810 829 747 q 820 828 829 826 l 652 781 q 629 777 637 777 q 586 793 603 777 q 568 840 568 809 q 574 889 568 870 q 592 917 580 907 q 625 929 605 926 q 675 932 646 932 l 684 932 q 726 942 701 936 q 783 956 751 948 q 849 973 814 964 q 920 991 884 982 q 992 1009 956 1000 q 1059 1025 1027 1018 q 1072 1029 1061 1026 q 1098 1035 1084 1031 q 1125 1040 1112 1038 q 1142 1043 1138 1043 q 1157 1038 1150 1043 q 1168 1026 1164 1034 q 1175 1010 1173 1019 q 1178 993 1178 1001 q 1162 958 1178 972 q 1123 931 1147 943 q 1071 912 1099 920 q 1019 896 1043 903 q 977 881 994 888 q 958 865 960 874 q 951 799 954 836 q 943 729 947 762 q 938 690 942 721 q 925 614 933 659 q 906 516 918 569 q 881 411 895 463 q 840 291 865 355 q 780 167 814 227 q 701 54 745 106 q 605 -33 656 1 q 576 -47 593 -40 q 541 -60 560 -55 q 500 -69 522 -66 q 458 -73 479 -73 q 381 -63 422 -73 q 299 -36 340 -54 q 219 6 258 -18 q 151 61 181 31 q 104 126 121 92 q 86 199 86 161 q 92 249 86 228 q 111 283 98 270 q 145 302 123 296 q 197 308 166 308 z "},"K":{"ha":956,"x_min":170,"x_max":983,"o":"m 418 937 q 447 933 436 937 q 465 921 458 929 q 473 900 471 913 q 475 869 475 887 q 474 840 475 854 q 471 812 473 826 q 465 782 469 798 q 458 748 462 766 q 427 640 445 694 q 391 529 409 586 l 366 446 q 439 475 405 456 q 506 517 473 493 q 570 572 538 542 q 633 635 601 602 q 734 744 684 688 q 831 858 785 800 q 847 885 839 867 q 866 920 855 903 q 892 951 878 938 q 928 964 907 964 q 952 955 942 964 q 970 933 963 946 q 980 904 977 920 q 983 874 983 888 q 981 854 983 863 q 900 745 943 798 q 809 644 857 692 q 712 548 762 595 q 612 457 663 502 q 740 395 682 433 q 842 303 798 357 q 917 178 886 250 q 962 18 947 107 q 950 -6 958 5 q 932 -25 943 -17 q 909 -39 922 -34 q 882 -45 897 -45 q 845 -35 858 -45 q 824 -10 831 -25 q 814 23 817 5 q 808 58 811 41 l 806 75 q 778 160 798 120 q 731 231 758 199 q 673 284 705 262 q 611 317 642 306 l 591 325 q 564 335 579 330 q 533 345 549 340 q 502 353 517 350 q 475 356 487 356 q 449 348 469 356 q 406 331 429 340 q 360 313 382 321 q 327 301 338 304 l 310 232 q 299 173 302 201 q 295 120 296 145 q 293 75 294 99 q 286 29 292 50 q 266 -6 280 8 q 222 -20 251 -20 q 194 -10 205 -20 q 178 15 184 0 q 172 48 173 31 q 170 79 170 65 q 173 119 170 97 q 179 164 175 141 q 187 210 182 187 q 197 252 192 233 l 355 888 q 418 937 367 937 z "},"L":{"ha":837,"x_min":163,"x_max":887,"o":"m 220 350 q 279 530 251 444 q 328 689 307 616 q 362 819 349 762 q 376 908 374 875 q 405 959 384 940 q 452 978 425 978 q 480 970 469 978 q 499 951 492 963 q 509 923 506 939 q 513 892 513 908 q 511 871 513 881 q 508 853 510 862 q 471 724 492 791 q 426 590 449 658 q 381 453 404 522 q 341 319 359 385 l 329 273 q 313 205 319 237 q 306 154 306 174 q 310 137 306 143 q 326 130 314 130 q 391 139 353 130 q 468 162 428 149 q 548 191 508 175 q 621 221 587 207 q 651 234 638 229 q 682 247 663 239 q 732 268 701 255 q 818 304 763 281 q 834 310 827 307 q 848 312 842 312 q 866 308 859 312 q 879 297 874 304 q 885 281 883 290 q 887 264 887 273 q 885 238 887 249 q 880 219 882 227 q 859 196 871 206 q 831 177 846 185 q 804 164 817 170 q 781 156 790 159 q 752 145 770 152 q 713 130 734 138 q 670 114 692 122 q 628 98 648 105 q 593 84 608 90 q 572 77 578 79 q 507 52 543 66 q 436 26 471 39 q 369 6 401 14 q 317 -3 338 -3 q 276 1 291 -3 q 250 13 262 5 q 227 30 239 20 q 195 52 215 40 q 170 82 178 63 q 163 123 163 101 q 164 148 163 134 q 169 178 166 162 q 175 208 172 193 q 182 235 178 223 l 220 350 z "},"M":{"ha":1286,"x_min":97,"x_max":1343,"o":"m 100 60 q 136 174 113 111 q 190 306 159 237 q 256 445 220 374 q 331 582 292 515 q 411 708 370 649 q 492 814 452 768 q 521 846 504 827 q 560 886 538 865 q 605 926 581 906 q 652 962 628 946 q 698 988 675 978 q 739 998 720 998 q 786 989 765 998 q 823 964 808 980 q 847 925 838 947 q 855 875 855 902 q 853 852 855 863 q 849 828 852 840 l 774 450 q 802 492 784 465 q 844 552 821 519 q 892 620 867 585 q 941 689 917 656 q 985 750 965 722 q 1019 794 1006 777 l 1031 810 q 1061 846 1043 825 q 1100 890 1078 867 q 1145 936 1121 913 q 1193 976 1168 958 q 1241 1005 1217 994 q 1286 1016 1265 1016 q 1314 1008 1303 1016 q 1331 988 1324 1001 q 1341 959 1338 976 q 1343 924 1343 942 q 1339 866 1343 895 q 1328 813 1334 837 q 1319 759 1324 794 q 1305 678 1313 724 q 1289 579 1297 632 q 1271 471 1280 526 q 1252 362 1261 416 q 1235 262 1243 309 q 1221 179 1227 216 q 1211 122 1215 142 q 1204 96 1208 113 q 1191 64 1200 80 q 1169 37 1183 49 q 1135 26 1155 26 q 1114 33 1124 26 q 1096 51 1104 40 q 1084 74 1088 62 q 1079 97 1080 87 l 1220 767 q 1223 784 1222 777 q 1225 798 1225 791 q 1223 812 1225 806 q 1220 823 1221 818 q 1216 834 1218 829 q 1151 775 1185 811 q 1080 696 1116 740 q 1009 603 1044 652 q 941 505 973 554 q 887 423 916 466 q 829 337 859 380 q 773 251 800 294 q 723 169 745 208 q 701 120 712 150 q 675 62 689 90 q 645 13 661 33 q 609 -7 629 -7 q 583 -3 593 -7 q 566 10 572 2 q 557 28 560 18 q 555 51 555 39 q 558 82 555 66 q 564 112 561 98 q 594 231 578 172 q 626 351 610 290 q 661 479 643 413 q 696 620 678 545 q 707 667 701 641 q 719 720 713 693 q 728 772 724 747 q 731 817 731 797 q 728 845 731 834 q 718 855 726 855 q 665 837 693 855 q 609 787 637 818 q 553 718 581 757 q 500 636 525 678 q 453 554 475 595 q 416 481 431 513 q 406 462 412 474 q 389 429 399 450 q 363 374 378 408 q 327 290 348 341 q 279 169 307 239 q 218 3 252 98 q 197 -23 212 -13 q 165 -33 182 -33 q 114 -14 130 -33 q 97 33 97 5 q 100 60 97 45 z "},"N":{"ha":1097,"x_min":123,"x_max":1205,"o":"m 355 821 q 366 858 359 838 q 382 895 372 878 q 408 923 392 911 q 450 934 425 934 q 492 921 473 934 q 526 894 511 907 q 559 847 543 882 q 593 760 576 812 q 630 644 610 709 q 674 507 650 578 q 728 362 699 436 q 796 217 758 288 q 810 192 802 206 q 827 164 819 177 q 843 142 836 151 q 853 134 850 134 q 858 144 855 134 q 864 168 861 154 q 871 197 867 182 q 878 222 875 212 q 906 293 891 253 q 940 391 922 334 q 981 527 959 448 q 1031 713 1004 606 q 1045 773 1038 740 q 1060 842 1053 807 q 1073 910 1067 877 q 1080 968 1078 943 q 1081 982 1080 972 q 1083 1005 1082 992 q 1088 1032 1085 1018 q 1095 1057 1090 1046 q 1106 1076 1099 1069 q 1122 1084 1113 1084 q 1146 1081 1132 1084 q 1171 1073 1160 1078 q 1195 1030 1184 1055 q 1205 964 1205 1006 q 1200 900 1205 937 q 1186 821 1194 863 q 1167 734 1177 779 q 1145 648 1156 689 q 1125 573 1135 607 q 1108 516 1115 538 q 1083 435 1096 477 q 1054 348 1069 393 q 1019 251 1038 302 q 977 141 1000 199 q 954 88 967 115 q 924 40 941 62 q 885 6 907 19 q 838 -7 864 -7 q 805 -3 822 -7 q 777 15 789 1 q 678 161 722 79 q 601 332 635 243 q 540 512 566 421 q 492 687 513 604 l 488 703 q 483 722 485 712 q 478 740 480 732 q 472 753 475 748 q 465 758 469 758 q 455 743 461 758 q 443 710 449 728 q 432 673 437 691 q 425 651 427 656 q 411 601 420 633 q 390 526 401 568 q 364 439 378 485 q 337 350 350 393 q 313 270 324 307 q 294 211 301 233 q 279 165 288 193 q 261 110 270 138 q 245 58 252 81 q 235 28 237 35 q 211 -11 227 2 q 179 -24 195 -24 q 159 -17 169 -24 q 141 0 149 -10 q 128 22 133 10 q 123 43 123 34 q 126 61 123 49 q 137 101 130 73 l 155 171 l 355 821 m 578 993 z "},"O":{"ha":989,"x_min":142,"x_max":1046,"o":"m 155 345 q 191 449 168 396 q 245 556 214 503 q 314 662 276 610 q 396 762 353 713 q 485 853 439 810 q 576 932 530 897 q 616 952 598 947 q 655 957 635 957 q 694 950 677 957 q 728 927 711 944 q 739 916 733 921 q 751 911 745 911 q 754 915 752 911 q 759 922 756 918 q 764 930 761 926 q 772 937 768 935 q 800 944 784 942 q 832 945 816 945 q 891 934 863 945 q 941 903 920 923 q 1020 787 993 854 q 1046 643 1046 720 q 1026 494 1046 574 q 976 357 1008 423 q 898 232 943 290 q 799 125 854 174 q 683 43 745 77 q 554 -11 621 8 q 418 -31 487 -31 q 302 -11 353 -31 q 215 45 251 9 q 161 130 180 81 q 142 240 142 180 q 145 292 142 266 q 155 345 149 318 m 270 300 q 262 239 262 266 q 276 172 262 201 q 313 124 289 143 q 371 95 337 104 q 444 85 404 85 q 541 100 492 85 q 637 143 590 115 q 727 212 684 172 q 807 302 770 252 q 873 413 844 353 q 920 540 902 473 q 929 591 926 564 q 932 642 932 617 q 924 717 932 681 q 895 781 915 753 q 841 825 874 808 q 760 842 808 842 q 749 836 753 842 q 741 821 745 830 q 733 806 738 814 q 722 791 729 798 q 704 781 715 785 q 678 777 694 777 q 658 782 667 777 q 640 795 649 787 q 633 802 636 800 q 627 804 631 804 q 611 799 621 804 q 591 786 602 793 q 571 770 581 779 q 555 756 561 762 q 464 653 509 709 q 379 537 418 597 q 312 417 340 477 q 270 300 283 356 m 764 993 z "},"P":{"ha":913,"x_min":132,"x_max":1053,"o":"m 133 32 q 141 55 136 44 q 152 79 146 66 q 165 112 158 93 q 178 158 172 130 l 205 267 q 224 347 214 306 q 248 439 235 388 q 274 526 259 481 q 306 619 290 571 q 340 718 323 667 q 370 823 357 769 q 371 829 371 825 q 368 836 371 834 q 359 837 364 837 q 331 842 342 837 q 313 855 319 847 q 304 874 307 863 q 301 896 301 884 q 308 944 301 926 q 327 971 315 962 q 351 986 338 981 q 377 993 364 990 q 399 999 389 996 q 412 1010 408 1002 q 425 1040 419 1024 q 439 1069 431 1056 q 461 1092 448 1083 q 495 1101 474 1101 q 522 1093 510 1101 q 542 1072 533 1084 q 556 1046 550 1060 q 567 1021 562 1032 q 688 1013 637 1019 q 765 1002 739 1006 q 867 973 816 992 q 959 924 918 954 q 1026 853 1000 894 q 1053 759 1053 812 q 1046 703 1053 732 l 1042 679 q 1019 626 1036 650 q 980 582 1002 602 q 848 489 920 526 q 698 425 776 451 q 538 382 620 399 q 378 349 457 364 l 359 346 q 340 334 343 344 q 319 252 327 288 q 304 185 311 217 q 291 120 298 153 q 274 49 284 88 q 262 18 271 36 q 241 -15 253 1 q 213 -42 229 -31 q 179 -53 197 -53 q 158 -46 167 -53 q 143 -29 149 -39 q 135 -6 138 -18 q 132 17 132 6 q 132 25 132 21 q 133 32 132 28 m 402 533 q 398 521 401 528 q 394 506 396 514 q 391 492 392 498 q 389 483 389 486 q 390 477 389 479 q 395 475 391 475 q 408 476 397 475 q 434 481 418 478 q 467 487 449 484 q 500 494 484 490 q 595 518 545 503 q 695 551 645 532 q 790 590 745 569 q 871 635 836 611 q 930 685 908 660 q 953 739 953 710 q 948 769 953 755 q 939 793 944 782 q 888 845 918 826 q 821 873 857 864 q 746 886 785 883 q 669 888 707 888 q 638 887 659 888 q 594 884 617 886 q 552 879 572 882 q 526 871 533 876 q 520 865 523 869 q 517 857 518 860 q 502 819 511 843 q 481 765 492 795 q 459 702 471 735 q 436 637 447 669 q 416 578 425 606 q 402 533 407 551 z "},"Q":{"ha":967,"x_min":170,"x_max":1057,"o":"m 798 -97 q 805 -110 803 -102 q 808 -125 808 -117 q 797 -155 808 -142 q 770 -178 785 -169 q 739 -192 755 -187 q 712 -197 722 -197 q 691 -191 701 -197 q 673 -178 681 -186 q 659 -163 665 -171 q 650 -153 652 -156 q 617 -103 632 -128 q 591 -50 603 -77 q 567 9 578 -22 q 545 74 556 39 q 522 71 535 73 q 494 69 508 70 q 466 67 479 68 q 443 66 452 66 q 314 90 369 66 q 221 169 260 114 q 183 249 196 204 q 170 349 170 294 q 184 454 170 399 q 225 562 199 508 q 288 669 252 616 q 367 768 324 721 q 456 855 409 815 q 552 924 503 895 q 649 969 601 953 q 742 985 697 985 q 771 981 760 985 q 796 971 783 977 l 819 962 q 853 955 838 958 q 884 946 869 951 q 915 933 899 941 q 947 915 930 926 q 997 866 976 897 q 1030 797 1017 835 q 1050 716 1044 759 q 1057 634 1057 674 q 1027 483 1057 555 q 946 344 997 410 q 829 222 896 279 q 688 120 762 165 q 678 114 681 117 q 675 106 675 111 q 695 43 684 71 q 720 -7 706 16 q 753 -51 734 -30 q 798 -97 772 -73 m 290 409 q 283 372 286 390 q 280 336 280 353 q 289 279 280 306 q 316 233 298 252 q 361 202 334 213 q 428 191 389 191 q 455 191 443 191 q 477 193 467 192 q 497 196 487 194 q 517 200 507 198 q 512 230 515 212 q 506 265 509 247 q 502 298 503 283 q 500 321 500 313 q 501 341 500 330 q 509 363 503 353 q 528 381 515 374 q 564 389 541 389 q 603 373 590 389 q 623 333 616 357 q 634 282 630 309 q 646 231 638 254 q 737 293 692 258 q 821 373 782 329 q 891 471 861 417 q 939 590 922 525 q 946 624 943 607 q 948 658 948 641 q 939 727 948 692 q 909 790 929 762 q 858 836 889 818 q 783 853 826 853 q 724 849 752 853 q 667 834 696 844 q 608 807 639 824 q 542 766 577 791 q 458 695 498 736 q 386 607 418 654 q 328 509 353 560 q 290 409 303 458 z "},"R":{"ha":968,"x_min":157,"x_max":1000,"o":"m 161 85 q 241 392 200 241 q 321 699 283 544 q 331 738 326 720 q 340 774 336 756 q 346 811 344 793 q 349 850 349 830 q 347 879 349 866 q 345 908 345 892 q 349 941 345 924 q 377 1003 359 983 q 434 1023 396 1023 q 464 1020 450 1023 q 493 1013 479 1017 q 525 1005 509 1008 q 559 1002 542 1002 q 585 1003 572 1002 q 615 1006 598 1004 q 654 1008 631 1007 q 711 1010 677 1010 q 756 1008 730 1010 q 810 1002 782 1007 q 866 988 838 998 q 919 964 895 979 q 963 925 944 948 q 991 871 982 903 q 998 842 996 855 q 1000 817 1000 829 q 979 736 1000 776 q 915 651 955 690 q 821 576 874 611 q 772 546 800 562 q 717 517 744 531 q 669 492 690 503 q 640 474 648 480 q 687 450 663 463 q 735 420 711 437 q 786 377 760 402 q 839 316 811 352 q 896 230 866 279 q 957 113 925 180 q 965 79 965 97 q 959 50 965 64 q 944 24 954 36 q 920 6 934 13 q 891 -1 907 -1 q 852 16 867 -1 q 822 62 836 34 q 792 127 808 91 q 755 199 777 163 q 701 274 730 239 q 638 335 671 309 q 570 376 605 361 q 499 391 534 391 l 489 391 q 451 388 468 391 q 419 381 435 384 q 389 406 398 389 q 379 444 379 422 l 379 453 l 325 239 q 317 212 322 229 q 307 173 313 194 q 294 129 300 152 q 282 85 288 106 q 272 49 276 65 q 265 24 267 33 q 241 -2 256 7 q 210 -12 227 -12 q 168 6 180 -12 q 157 47 157 24 q 158 67 157 57 q 161 85 159 77 m 494 850 q 483 811 490 837 q 465 753 475 785 q 445 683 456 720 q 423 608 434 646 q 402 535 412 570 q 384 472 392 500 q 425 504 397 490 q 486 530 452 517 q 551 556 512 539 q 632 596 589 574 q 716 645 674 618 q 792 698 759 671 q 847 753 826 726 q 868 806 868 781 q 850 846 868 831 q 806 868 833 861 q 748 878 780 876 q 690 880 717 880 q 592 874 641 880 q 494 850 543 868 z "},"S":{"ha":850,"x_min":117,"x_max":960,"o":"m 139 157 q 186 138 162 149 q 236 117 210 127 q 290 100 262 107 q 350 94 318 94 q 425 102 387 94 q 499 129 463 111 q 569 171 536 146 q 630 228 602 195 q 681 291 661 262 q 714 341 701 319 q 732 379 726 363 q 737 406 737 395 q 726 436 737 423 q 695 456 714 448 q 651 468 675 465 q 600 472 627 472 q 564 471 585 472 q 521 469 543 470 q 479 467 499 468 q 444 467 458 467 q 397 472 421 467 q 350 488 373 477 q 307 519 327 500 q 275 568 288 539 q 267 591 271 578 q 264 618 264 604 q 266 649 264 635 q 272 677 269 664 q 303 746 281 711 q 356 814 326 781 q 424 879 387 848 q 498 938 460 910 q 573 987 536 965 q 642 1025 610 1009 q 733 1056 687 1046 q 825 1066 780 1066 q 877 1059 852 1066 q 920 1038 901 1052 q 949 1005 939 1025 q 960 959 960 985 q 957 934 960 944 q 948 917 954 924 q 936 908 943 911 q 923 905 930 905 q 889 909 905 905 q 860 919 874 913 q 831 928 846 924 q 800 932 817 932 q 698 912 750 932 q 597 862 646 892 q 504 793 548 831 q 426 719 460 755 q 399 681 408 700 q 391 645 391 662 q 412 606 391 620 q 465 591 434 591 q 507 592 484 591 q 554 594 530 593 q 601 596 578 595 q 641 597 623 597 q 722 585 683 597 q 790 550 760 573 q 838 493 820 527 q 856 414 856 458 q 848 359 856 387 q 825 303 840 332 q 793 248 811 275 q 754 194 774 220 q 672 104 718 146 q 576 31 627 62 q 469 -18 526 0 q 353 -37 412 -37 q 300 -32 327 -37 q 246 -18 273 -27 q 196 5 220 -9 q 155 37 173 19 q 127 76 138 54 q 117 122 117 97 q 120 145 117 134 q 139 157 124 157 m 484 993 z "},"T":{"ha":890,"x_min":234,"x_max":1178,"o":"m 437 109 q 495 336 463 222 q 557 564 527 451 q 580 649 570 610 q 597 718 590 687 q 607 775 604 749 q 610 822 610 800 q 610 831 610 826 q 610 844 610 836 q 579 836 603 844 q 525 817 556 829 q 458 789 493 804 q 393 758 423 774 q 354 738 370 746 q 326 725 338 730 q 305 719 315 721 q 286 718 296 718 q 249 734 264 718 q 234 776 234 750 q 237 802 234 791 q 247 822 240 813 q 264 839 253 831 q 290 854 275 846 q 637 986 462 944 q 990 1027 813 1027 q 1024 1027 1004 1027 q 1064 1024 1044 1026 q 1105 1020 1085 1023 q 1139 1013 1124 1017 q 1166 993 1155 1008 q 1178 961 1178 978 q 1176 935 1178 947 q 1167 912 1173 922 q 1151 897 1161 903 q 1127 891 1141 891 q 1071 898 1103 894 q 1008 902 1040 902 q 881 899 944 902 q 751 881 817 896 q 746 874 747 880 q 745 859 745 868 q 739 795 743 823 q 727 739 734 767 q 710 679 720 711 q 686 602 700 647 q 655 494 673 557 q 615 342 637 431 l 583 211 q 565 129 571 165 q 553 58 558 93 q 533 36 551 46 q 490 26 515 26 q 465 34 476 26 q 446 54 453 41 q 435 80 438 66 q 437 109 433 95 z "},"U":{"ha":979,"x_min":203,"x_max":1107,"o":"m 217 326 q 249 449 232 395 q 283 549 267 503 q 316 638 300 595 q 342 726 331 680 l 351 758 q 355 789 353 770 q 360 827 357 807 q 366 867 362 847 q 378 902 370 886 q 398 927 386 918 q 429 937 410 937 q 465 930 450 937 q 488 910 479 922 q 501 882 497 898 q 505 849 505 866 q 504 821 505 835 q 498 794 502 806 q 474 723 491 764 q 437 633 457 682 q 395 527 416 584 q 358 406 374 469 q 341 327 349 370 q 334 250 334 284 q 339 197 334 222 q 356 154 344 172 q 389 124 368 135 q 441 113 410 113 q 492 117 466 113 q 554 137 518 121 q 654 198 607 161 q 742 284 701 236 q 816 388 782 332 q 878 503 850 444 q 927 624 906 563 q 964 744 949 685 q 973 791 970 769 q 978 836 977 813 q 981 886 980 859 q 985 946 982 912 q 1000 993 987 973 q 1040 1013 1013 1013 q 1070 1000 1057 1013 q 1090 966 1082 986 q 1103 924 1099 946 q 1107 884 1107 901 q 1100 810 1107 850 q 1084 735 1093 771 q 1037 578 1064 657 q 971 425 1009 500 q 883 278 933 349 q 766 146 832 208 q 696 86 734 115 q 616 33 658 56 q 532 -6 575 9 q 446 -20 488 -20 q 338 -3 384 -20 q 263 45 293 14 q 218 120 233 77 q 203 214 203 163 q 207 268 203 239 q 217 326 211 298 z "},"V":{"ha":904,"x_min":258,"x_max":1070,"o":"m 269 768 q 268 797 269 784 q 264 820 266 809 q 260 842 262 831 q 258 866 258 853 q 261 899 258 883 q 272 927 264 915 q 291 948 279 940 q 322 956 303 956 q 366 944 349 956 q 391 915 382 932 q 402 874 399 897 q 406 829 406 851 q 402 768 406 809 q 394 665 398 726 q 386 522 390 603 q 382 342 382 440 q 385 272 382 311 q 396 199 388 234 q 419 139 404 165 q 459 105 434 113 q 573 231 522 163 q 667 368 625 299 q 743 504 709 437 q 804 625 777 570 q 851 723 830 679 q 888 804 871 766 q 917 873 905 841 q 940 935 930 905 q 949 955 943 942 q 968 977 955 968 q 1025 990 986 990 q 1059 980 1048 990 q 1070 950 1070 969 q 1070 934 1070 943 q 1066 918 1069 925 q 1025 823 1050 876 q 971 710 999 770 q 916 595 945 654 q 858 480 888 536 q 798 371 828 423 q 739 276 768 319 q 668 177 713 237 q 549 31 623 116 q 526 6 538 18 q 502 -15 515 -5 q 474 -30 489 -24 q 441 -36 459 -36 q 394 -24 414 -36 q 358 4 374 -13 q 330 43 342 22 q 309 83 319 64 q 289 137 297 108 q 275 198 280 166 q 267 262 269 229 q 264 327 264 295 q 264 351 264 331 q 265 402 264 371 q 267 474 266 434 q 268 558 267 514 q 269 647 269 602 q 269 735 269 693 l 269 768 z "},"W":{"ha":1284,"x_min":158,"x_max":1383,"o":"m 184 304 q 223 433 199 366 q 274 570 248 500 q 326 712 300 640 q 370 856 352 784 q 378 888 375 873 q 385 920 382 903 q 407 947 393 938 q 437 957 421 957 q 466 952 452 957 q 489 937 479 947 q 504 910 498 926 q 510 871 510 894 q 503 816 510 847 q 449 683 476 748 q 396 555 422 618 q 349 432 371 493 q 312 311 328 371 q 307 291 311 307 q 298 252 302 275 q 290 204 294 230 q 287 155 287 179 q 289 124 287 139 q 296 99 291 110 q 309 82 300 88 q 329 76 317 76 q 392 103 355 76 q 473 176 429 130 q 562 283 516 222 q 651 416 608 345 q 732 561 694 486 q 795 708 769 635 q 810 725 801 721 q 833 728 819 728 q 877 712 859 728 q 895 671 895 696 q 894 660 895 665 q 890 647 892 654 l 880 619 q 860 561 869 587 q 844 510 850 534 q 829 448 835 476 q 821 395 824 420 q 817 347 818 370 q 816 298 816 323 q 818 271 816 289 q 823 230 819 252 q 832 185 826 208 q 845 144 838 163 q 864 113 853 125 q 888 101 874 101 q 932 118 909 101 q 979 166 956 136 q 1027 237 1003 196 q 1074 324 1051 277 q 1117 421 1097 371 q 1155 520 1138 471 q 1186 615 1173 570 q 1207 699 1199 661 q 1220 769 1215 735 q 1231 837 1225 803 q 1243 905 1236 871 q 1259 975 1249 939 q 1269 1002 1262 988 q 1285 1026 1276 1015 q 1307 1045 1295 1038 q 1331 1052 1318 1052 q 1372 1035 1361 1052 q 1383 980 1383 1019 q 1378 913 1383 951 q 1365 834 1373 876 q 1348 749 1357 792 q 1329 669 1338 707 q 1278 508 1310 591 q 1209 346 1247 425 q 1127 197 1171 267 q 1041 77 1084 127 q 1006 41 1026 60 q 962 8 985 23 q 915 -17 939 -7 q 868 -26 890 -26 q 790 1 821 -26 q 738 74 758 28 q 708 179 718 120 q 692 300 697 237 q 623 199 654 243 q 559 118 591 155 q 504 58 534 90 q 439 -2 473 26 q 369 -47 405 -29 q 298 -65 333 -65 q 232 -51 258 -65 q 189 -13 205 -37 q 165 45 172 12 q 158 117 158 78 q 165 209 158 161 q 184 304 173 256 z "},"X":{"ha":989,"x_min":13,"x_max":1071,"o":"m 745 33 q 730 80 740 54 q 708 137 721 107 q 681 197 696 166 q 652 256 667 228 q 622 309 637 285 q 595 349 608 333 q 551 314 576 334 q 500 273 527 294 q 447 230 474 252 q 393 191 419 209 q 343 157 372 176 q 284 117 315 138 q 220 78 253 97 q 158 43 188 58 q 103 18 128 28 q 61 9 77 9 q 24 25 35 9 q 13 62 13 42 q 17 94 13 81 q 39 115 22 107 q 307 271 180 184 q 538 464 434 358 q 525 503 533 479 q 506 554 516 526 q 486 611 496 581 q 465 668 475 640 q 446 718 454 695 q 431 755 437 741 q 401 811 418 789 q 371 852 385 833 q 347 888 357 870 q 338 930 338 905 q 342 952 338 941 q 356 975 347 964 q 377 991 365 985 q 404 998 389 998 q 435 991 420 998 q 461 976 450 985 q 483 954 473 966 q 499 930 492 942 q 543 834 522 888 q 581 728 564 781 q 614 631 599 675 q 640 564 629 587 q 728 660 687 614 q 805 749 769 705 q 870 836 840 793 q 923 922 900 878 q 942 966 935 944 q 962 1006 949 988 q 985 1022 971 1016 q 1019 1029 1000 1029 q 1043 1023 1034 1029 q 1059 1008 1053 1017 q 1068 986 1065 998 q 1071 961 1071 974 q 1070 942 1071 951 q 1067 926 1069 933 q 1039 859 1057 890 q 998 795 1021 827 q 948 733 975 764 q 892 668 921 702 q 815 581 850 619 q 754 514 780 542 q 713 469 729 486 q 692 443 697 451 q 696 428 692 436 q 705 413 701 420 q 795 264 760 328 q 852 156 831 201 q 882 85 873 112 q 890 46 890 58 q 887 23 890 35 q 877 -1 884 10 q 859 -19 870 -12 q 832 -26 848 -26 q 745 33 767 -26 z "},"Y":{"ha":946,"x_min":197,"x_max":1134,"o":"m 197 -104 q 205 -71 197 -87 q 228 -36 214 -54 q 262 1 243 -18 q 302 43 281 21 q 387 127 342 83 q 471 218 431 172 q 498 252 488 239 q 513 273 508 264 q 520 288 518 281 q 522 300 522 294 q 472 379 494 336 q 432 468 450 422 q 401 562 415 515 q 375 655 387 610 q 353 739 363 696 q 326 811 342 781 q 303 859 313 834 q 294 913 294 884 q 297 944 294 926 q 308 976 300 961 q 329 1001 316 991 q 359 1012 341 1012 q 396 998 379 1012 q 427 964 413 985 q 450 919 440 943 q 465 875 459 895 q 481 802 471 846 q 501 713 491 759 q 520 627 511 668 q 537 562 530 587 q 556 505 546 532 q 576 459 566 478 q 596 428 587 439 q 615 417 606 417 q 636 435 622 417 q 752 594 692 509 q 869 761 812 678 q 906 817 890 791 q 936 866 922 843 q 960 912 949 890 q 980 956 970 934 l 998 1027 q 1007 1049 1000 1038 q 1022 1070 1013 1061 q 1041 1085 1030 1079 q 1066 1090 1053 1090 q 1097 1083 1084 1090 q 1118 1065 1109 1076 q 1130 1038 1126 1053 q 1134 1006 1134 1023 q 1127 964 1134 988 q 1108 916 1120 941 q 1082 866 1097 890 q 1055 822 1068 842 q 858 542 958 684 q 654 269 758 399 q 475 54 563 153 q 315 -119 387 -45 q 279 -148 299 -134 q 238 -161 260 -161 q 219 -156 227 -161 q 206 -143 211 -151 q 199 -124 201 -135 q 197 -104 197 -114 z "},"Z":{"ha":1146,"x_min":113,"x_max":1191,"o":"m 117 73 q 144 129 124 104 q 186 170 164 154 q 208 187 193 174 q 241 216 222 199 q 282 252 260 233 q 326 291 304 271 q 367 328 347 311 q 403 359 387 346 q 598 531 511 454 q 753 666 686 607 q 870 769 821 726 q 952 840 919 812 q 1003 884 985 869 q 1025 903 1021 899 q 993 906 1010 905 q 961 907 976 907 q 902 904 930 907 q 850 898 875 902 q 801 888 825 893 q 753 876 777 882 q 687 859 719 867 q 629 842 656 850 q 581 826 602 833 q 545 814 559 819 q 510 803 530 809 q 463 798 490 798 q 433 805 446 798 q 412 824 420 812 q 400 849 404 836 q 397 874 397 862 q 400 899 397 886 q 411 922 404 911 q 429 940 418 933 q 452 947 439 947 q 485 948 463 947 q 531 954 507 950 q 555 959 537 955 q 597 969 573 964 q 649 981 622 975 q 701 994 676 987 q 764 1008 734 1002 q 828 1017 793 1014 q 908 1022 863 1021 q 1018 1024 953 1024 q 1082 1022 1055 1024 q 1128 1013 1109 1019 q 1161 994 1147 1006 q 1184 962 1174 981 q 1190 947 1188 954 q 1191 935 1191 941 q 1184 900 1191 916 q 1166 871 1177 884 q 1143 848 1156 859 q 1119 827 1131 837 q 721 479 918 652 q 326 134 524 307 q 428 144 371 138 q 547 156 485 149 q 673 172 609 163 q 797 193 737 180 q 845 208 823 199 q 886 224 868 216 q 915 238 903 232 q 931 248 927 245 q 954 264 939 251 q 989 291 970 277 q 1029 316 1008 305 q 1069 328 1050 328 q 1100 317 1086 328 q 1114 287 1114 306 q 1103 257 1114 273 q 1073 221 1092 240 q 1028 182 1054 202 q 972 143 1002 162 q 959 135 968 140 q 940 124 951 130 q 919 113 930 119 q 897 104 907 108 q 766 61 825 75 q 654 42 707 48 q 552 33 602 36 q 452 20 503 29 q 381 8 420 15 q 307 -5 342 1 q 242 -16 271 -12 q 202 -20 213 -20 q 135 -3 156 -20 q 113 45 113 14 q 114 59 113 52 q 117 73 115 66 z "},"^":{"ha":672,"x_min":169,"x_max":827,"o":"m 557 1036 q 591 1030 574 1036 q 616 1017 608 1024 q 638 975 629 997 q 661 926 647 952 q 705 850 681 886 q 751 776 728 814 q 781 732 765 754 q 821 692 797 710 q 827 671 827 682 q 821 644 827 657 q 805 622 815 631 q 782 606 795 612 q 751 600 768 600 q 719 609 729 600 q 699 636 709 618 q 684 665 691 651 q 668 696 677 678 q 644 739 658 714 q 606 801 629 764 q 583 841 593 822 q 564 871 572 860 q 554 884 559 879 q 542 889 549 889 q 508 876 524 889 q 469 837 492 863 q 427 785 448 814 q 385 723 406 755 q 341 659 363 690 q 297 603 319 627 q 254 563 275 578 q 211 547 232 547 q 181 557 193 547 q 169 585 169 568 q 175 608 169 596 q 197 641 182 620 q 226 682 210 659 q 260 729 243 705 q 295 778 278 753 q 328 823 313 802 q 359 865 341 842 q 396 911 376 888 q 438 958 416 935 q 480 998 459 981 q 522 1026 502 1015 q 557 1036 541 1036 z "},"_":{"ha":663,"x_min":-33,"x_max":635,"o":"m 0 -222 q -25 -210 -16 -222 q -33 -181 -33 -198 q -29 -159 -33 -170 q -17 -138 -25 -147 q 5 -122 -8 -128 q 35 -117 18 -117 q 133 -120 82 -117 q 243 -124 184 -124 l 347 -124 q 396 -123 369 -124 q 449 -120 422 -121 q 499 -118 475 -119 q 536 -117 522 -117 l 604 -117 q 627 -127 619 -117 q 635 -152 635 -137 q 631 -176 635 -163 q 620 -199 627 -189 q 602 -216 612 -209 q 581 -222 592 -222 l 553 -222 q 413 -226 484 -222 q 271 -230 343 -230 q 137 -226 203 -230 q 0 -222 70 -222 z "},"`":{"ha":734,"x_min":433,"x_max":705,"o":"m 437 916 q 458 949 443 936 q 490 962 473 962 q 513 958 507 962 q 526 949 520 955 q 579 905 546 932 q 651 845 612 877 l 678 823 q 696 802 688 815 q 705 772 705 789 q 703 754 705 763 q 694 738 700 745 q 680 726 688 730 q 659 721 671 721 q 636 724 646 721 q 617 734 627 728 l 468 833 q 443 858 452 845 q 433 889 433 870 q 437 916 433 901 z "},"a":{"ha":673,"x_min":117,"x_max":703,"o":"m 463 29 q 467 76 463 49 q 472 144 472 104 q 422 106 450 128 q 366 63 395 83 q 308 29 337 43 q 254 15 279 15 q 216 21 234 15 q 184 37 197 27 q 133 94 149 66 q 117 161 117 123 q 120 196 117 178 q 129 238 123 214 q 217 436 155 345 q 373 592 280 528 q 445 624 409 617 q 516 631 481 631 q 551 629 532 631 q 586 625 570 627 q 611 630 602 629 q 632 631 621 631 q 666 626 652 631 q 688 611 680 621 q 700 590 696 602 q 703 566 703 578 q 698 532 703 548 q 687 500 692 516 l 597 142 q 593 89 595 113 q 585 43 591 64 q 579 28 583 37 q 570 11 576 19 q 553 -4 563 2 q 526 -10 543 -10 q 493 -7 505 -10 q 473 0 480 -5 q 465 13 467 5 q 463 29 463 20 m 237 234 q 232 207 235 224 q 229 172 229 189 q 234 139 229 153 q 258 124 239 124 q 311 137 286 124 q 357 167 336 149 q 417 220 387 191 q 474 282 447 250 q 521 349 500 315 q 551 417 542 383 q 561 463 557 437 q 564 509 564 488 q 560 526 564 517 q 545 534 556 534 q 478 522 511 534 q 413 487 444 509 q 354 436 382 465 q 302 373 326 406 q 263 303 279 339 q 237 234 246 268 z "},"b":{"ha":742,"x_min":135,"x_max":769,"o":"m 171 222 q 202 342 184 277 q 239 474 220 407 q 276 608 258 542 q 311 734 295 675 q 337 840 326 793 q 353 917 349 888 l 360 972 q 365 985 362 978 q 372 999 367 993 q 384 1010 376 1006 q 404 1015 392 1015 q 439 1008 425 1015 q 461 988 453 1000 q 473 959 470 975 q 477 925 477 943 q 474 889 477 907 q 468 857 471 871 q 417 670 446 764 q 365 479 388 575 q 422 527 391 505 q 486 567 452 550 q 555 595 519 585 q 625 605 590 605 q 690 594 663 605 q 734 565 717 583 q 761 520 752 546 q 769 465 769 494 q 767 435 769 450 q 762 406 766 420 q 712 279 745 335 q 639 180 680 224 q 550 103 598 136 q 454 43 503 69 q 392 17 422 26 q 334 7 363 7 q 292 13 307 7 q 266 31 277 19 q 257 16 262 24 q 245 2 252 9 q 228 -8 238 -4 q 206 -12 218 -12 q 151 7 168 -12 q 135 59 135 26 q 137 82 135 71 q 142 106 138 94 l 171 222 m 602 498 q 533 482 570 498 q 457 442 495 466 q 384 390 419 418 q 321 341 349 363 q 305 288 313 313 q 289 235 297 262 q 275 181 281 209 q 264 122 269 153 l 260 96 l 264 83 q 290 96 278 92 q 313 103 302 100 q 336 109 324 106 q 363 119 349 113 q 542 233 470 161 q 641 410 614 305 q 646 437 644 425 q 648 458 648 448 q 637 488 648 478 q 602 498 627 498 m 562 633 z "},"c":{"ha":590,"x_min":120,"x_max":603,"o":"m 135 265 q 173 374 148 317 q 235 485 199 431 q 316 583 271 538 q 416 656 362 628 q 455 671 434 666 q 498 675 476 675 q 539 671 520 675 q 573 658 559 667 q 595 633 587 648 q 603 597 603 618 q 598 564 603 581 q 584 534 593 547 q 560 513 574 521 q 527 505 546 505 q 499 510 512 505 q 475 522 487 515 q 464 529 469 526 q 451 535 458 532 q 400 503 424 523 q 355 458 376 483 q 317 406 334 434 q 286 351 300 378 q 262 296 272 323 q 246 247 252 269 q 238 210 241 231 q 234 170 234 189 q 236 144 234 156 q 245 122 239 132 q 261 107 251 113 q 286 102 271 102 q 333 108 310 102 q 379 123 357 114 q 423 145 401 133 q 465 171 444 158 q 490 188 477 179 q 515 203 503 197 q 536 215 526 210 q 553 219 546 219 q 572 214 564 219 q 581 197 581 209 q 577 177 581 188 q 551 130 568 151 q 515 92 535 109 q 472 62 495 75 q 427 39 450 50 q 342 5 385 16 q 270 -6 299 -6 q 248 -4 260 -6 q 225 2 235 -2 q 145 66 170 26 q 120 161 120 106 q 124 211 120 184 q 135 265 127 237 z "},"d":{"ha":758,"x_min":117,"x_max":857,"o":"m 125 233 q 149 306 134 269 q 185 378 163 342 q 237 449 207 414 q 307 514 267 483 q 364 555 334 536 q 425 589 394 574 q 488 611 456 603 q 550 620 519 620 q 590 616 572 620 q 623 606 607 612 q 659 733 629 629 q 731 1022 688 837 q 752 1053 739 1040 q 785 1065 766 1065 q 811 1062 798 1065 q 834 1053 824 1060 q 850 1034 844 1046 q 857 1002 857 1021 l 720 457 q 709 395 714 434 q 699 313 703 356 q 691 227 694 269 q 688 154 688 184 q 680 79 688 116 q 671 51 675 62 q 659 33 667 40 q 641 23 652 26 q 612 20 629 20 q 582 24 593 20 q 566 35 571 28 q 559 51 560 42 q 558 71 558 60 q 556 93 557 81 q 551 114 555 104 q 528 100 543 109 q 499 82 514 91 q 472 65 485 73 q 453 54 459 57 q 418 35 437 45 q 375 17 398 25 q 328 3 353 8 q 278 -3 303 -3 q 219 7 248 -3 q 167 39 190 18 q 131 92 144 60 q 117 168 117 124 q 119 198 117 183 q 125 233 121 214 m 243 238 q 237 199 237 218 q 241 162 237 179 q 253 132 244 144 q 278 111 262 119 q 317 103 293 103 q 347 108 331 103 q 377 120 362 113 q 406 135 393 127 q 429 149 419 142 q 476 182 454 165 q 516 217 498 198 q 547 259 534 236 q 568 313 560 283 q 580 363 575 340 q 589 407 585 385 q 597 450 593 428 q 604 500 600 473 q 594 508 600 504 q 577 511 589 511 q 517 502 550 511 q 451 476 485 493 q 384 435 416 459 q 322 380 351 410 q 273 314 294 350 q 243 238 252 278 z "},"e":{"ha":686,"x_min":123,"x_max":695,"o":"m 123 262 q 139 311 123 291 q 180 338 155 332 q 203 379 188 353 q 242 434 219 404 q 295 494 265 464 q 360 549 324 524 q 436 589 395 574 q 524 605 477 605 q 592 595 563 605 q 640 569 621 586 q 669 529 659 552 q 678 478 678 505 q 672 434 678 455 q 637 368 663 396 q 576 318 611 339 q 500 282 541 296 q 418 258 459 268 q 339 244 377 249 q 273 236 301 239 q 263 205 267 224 q 258 169 258 186 q 290 108 258 130 q 376 86 321 86 q 437 93 408 86 q 492 112 466 100 q 541 136 518 123 q 583 162 564 149 q 630 190 608 178 q 669 201 652 201 q 690 192 686 201 q 695 174 695 184 q 695 164 695 169 q 694 155 694 159 q 680 120 690 138 q 654 90 670 102 q 510 10 584 34 q 351 -14 435 -14 q 313 -12 335 -14 q 267 -3 291 -9 q 220 14 243 3 q 179 45 197 26 q 150 92 161 64 q 139 159 139 119 q 148 230 139 191 q 131 239 139 231 q 123 262 123 247 m 548 450 q 549 456 549 453 q 549 462 549 458 q 536 489 549 480 q 503 498 522 498 q 445 483 473 498 q 390 444 416 467 q 345 394 365 420 q 315 345 326 367 q 404 358 363 349 q 475 381 445 368 q 524 413 505 395 q 548 450 543 430 m 469 633 z "},"f":{"ha":550,"x_min":154,"x_max":870,"o":"m 260 -62 q 230 -56 243 -62 q 208 -38 217 -50 q 194 -13 199 -27 q 189 18 189 1 q 191 43 189 29 q 199 77 194 57 q 205 103 201 85 q 214 143 210 121 q 222 191 218 165 q 230 239 227 216 q 236 283 234 263 q 238 317 238 304 q 237 329 238 326 q 223 343 236 339 q 194 351 210 347 q 166 365 179 355 q 154 397 154 375 q 162 432 154 416 q 184 455 171 448 q 219 463 200 463 q 258 467 239 464 q 273 480 269 469 q 280 503 277 492 q 298 570 288 534 q 320 644 307 606 q 348 718 332 682 q 382 784 363 753 q 447 861 412 825 q 522 924 482 897 q 606 966 562 951 q 701 981 650 981 q 799 961 761 981 q 861 900 837 941 q 868 881 866 890 q 870 861 870 871 q 865 826 870 842 q 851 799 860 810 q 830 780 842 787 q 806 773 819 773 q 777 781 787 773 q 761 799 767 788 q 750 823 754 810 q 742 847 747 836 q 730 865 738 858 q 709 873 723 873 q 679 869 696 873 q 646 858 661 866 q 569 809 604 836 q 504 741 534 783 q 448 640 473 700 q 401 493 422 581 q 399 490 400 492 q 399 487 399 488 q 404 486 399 486 q 443 488 425 486 q 480 493 462 490 q 517 499 498 496 q 557 501 536 501 q 586 500 572 501 q 609 494 600 498 q 625 481 619 490 q 631 460 631 473 q 628 440 631 452 q 621 417 626 428 q 608 397 616 406 q 589 386 600 388 q 547 379 568 382 q 499 374 525 377 q 442 365 473 371 q 372 349 411 359 q 354 257 360 302 q 342 168 347 212 q 332 78 338 123 q 315 -13 326 33 q 308 -31 313 -22 q 296 -46 303 -39 q 280 -58 289 -54 q 260 -62 271 -62 z "},"g":{"ha":657,"x_min":119,"x_max":669,"o":"m 171 -313 q 159 -311 165 -313 q 146 -303 152 -309 q 136 -291 140 -298 q 132 -272 132 -283 q 134 -256 132 -264 q 146 -220 140 -234 q 163 -197 152 -206 q 195 -181 175 -187 q 246 -168 214 -174 q 284 -158 267 -163 q 314 -146 302 -153 q 373 -83 349 -115 q 413 -15 397 -50 q 441 56 430 20 q 463 131 452 93 q 470 158 467 144 q 477 189 473 172 q 424 144 452 167 q 367 104 396 122 q 308 76 338 87 q 248 64 277 64 q 208 75 230 64 q 166 104 186 86 q 133 145 146 121 q 119 194 119 168 q 123 229 119 210 q 131 263 127 248 q 163 350 142 308 q 212 430 184 392 q 273 502 239 468 q 342 566 306 536 q 431 618 387 602 q 526 635 476 635 q 567 633 547 635 q 603 624 586 631 q 635 605 621 618 q 663 572 650 593 q 667 561 665 568 q 669 550 669 555 q 666 523 669 545 q 657 470 663 502 q 645 400 652 439 q 631 321 638 361 q 616 243 623 281 q 602 174 608 205 q 573 64 590 121 q 531 -47 555 7 q 473 -150 506 -102 q 395 -234 439 -198 q 296 -292 351 -271 q 171 -313 240 -313 m 238 248 q 234 232 236 240 q 233 215 233 223 q 238 189 233 200 q 258 178 243 178 q 310 194 280 178 q 371 235 340 210 q 428 288 401 259 q 470 342 454 316 q 488 372 477 353 q 510 413 499 391 q 530 457 522 435 q 541 496 539 479 q 536 517 541 507 q 528 545 532 527 l 522 545 q 485 534 506 545 q 440 507 464 524 q 393 468 417 490 q 349 425 370 447 q 310 382 328 403 q 283 346 293 361 q 257 301 269 323 q 238 248 245 278 z "},"h":{"ha":764,"x_min":134,"x_max":781,"o":"m 601 -39 q 543 -20 559 -39 q 528 30 528 -2 q 531 66 528 47 q 540 107 534 86 q 561 179 549 143 q 585 251 573 214 q 608 323 597 287 q 628 396 619 359 q 629 405 629 399 q 624 420 629 414 q 610 425 619 425 q 577 419 595 425 q 549 406 560 413 q 469 345 503 375 q 406 283 435 315 q 352 213 378 250 q 299 132 327 176 q 264 57 275 88 q 242 7 252 26 q 220 -20 233 -12 q 184 -28 208 -28 q 145 -13 157 -28 q 134 28 134 3 q 140 72 134 47 l 364 968 q 371 986 366 977 q 384 1004 376 996 q 403 1017 392 1012 q 429 1023 414 1023 q 452 1022 439 1023 q 474 1018 464 1021 q 490 1008 484 1015 q 496 990 496 1001 q 495 979 496 987 q 491 960 494 970 q 413 653 454 812 q 328 331 371 494 q 414 424 370 382 q 506 497 459 467 q 604 545 553 528 q 709 562 654 562 q 762 540 743 562 q 781 484 781 518 q 777 454 781 469 q 759 392 769 422 q 738 332 749 362 q 716 270 727 301 q 697 205 705 238 q 682 124 686 162 q 677 62 678 85 q 671 24 675 43 q 657 -8 666 6 q 634 -30 648 -22 q 601 -39 620 -39 m 632 633 z "},"i":{"ha":351,"x_min":111,"x_max":467,"o":"m 132 124 q 156 216 142 163 q 186 326 170 268 q 218 446 202 385 q 249 564 235 507 q 254 573 250 567 q 265 586 258 580 q 284 597 273 593 q 311 602 296 602 q 334 600 323 602 q 353 593 345 597 q 367 580 361 588 q 372 562 372 572 q 372 558 372 560 q 371 553 372 555 l 352 481 q 287 239 320 361 q 223 -4 254 118 q 219 -14 222 -8 q 212 -26 216 -20 q 200 -37 207 -33 q 184 -41 193 -41 q 153 -34 166 -41 q 130 -16 139 -26 q 115 8 120 -5 q 111 33 111 21 q 111 39 111 36 q 112 45 111 41 l 132 124 m 309 826 q 321 861 312 840 q 352 897 330 881 q 378 908 363 903 q 401 913 394 913 q 415 909 408 913 q 427 899 422 904 q 440 884 434 892 q 462 871 457 882 q 467 846 467 861 q 465 826 467 835 q 462 812 463 817 q 446 786 458 798 q 420 765 435 774 q 389 752 405 757 q 360 747 372 747 q 336 753 345 747 q 315 776 328 758 q 306 792 307 786 q 305 802 305 798 q 306 815 305 809 q 309 826 307 821 z "},"j":{"ha":354,"x_min":-138,"x_max":431,"o":"m -83 -313 q -124 -298 -111 -313 q -138 -265 -138 -283 q -122 -216 -138 -237 q -82 -179 -105 -195 q -35 -151 -59 -163 q 3 -126 -11 -138 q 58 -67 34 -100 q 95 -5 81 -34 q 136 94 117 39 q 172 206 155 148 q 201 323 188 264 q 224 439 214 383 q 228 470 228 455 q 229 498 229 484 q 236 555 231 534 q 251 588 241 576 q 275 603 261 600 q 307 607 289 607 q 360 588 345 607 q 375 534 375 570 q 369 475 375 514 q 352 383 363 435 q 325 270 341 331 q 288 146 309 209 q 241 22 267 83 q 186 -92 216 -39 q 171 -116 180 -103 q 151 -141 161 -128 q 131 -165 141 -153 q 113 -186 121 -176 q 62 -241 86 -218 q 15 -281 39 -265 q -32 -305 -8 -297 q -83 -313 -56 -313 m 270 797 q 283 840 270 822 q 315 871 296 859 q 341 886 330 880 q 367 892 353 892 q 398 886 385 892 q 418 870 410 880 q 428 849 425 861 q 431 825 431 837 q 422 779 431 800 q 388 736 414 757 q 369 725 378 729 q 349 720 359 720 q 292 741 315 720 q 270 797 270 761 z "},"k":{"ha":669,"x_min":127,"x_max":746,"o":"m 418 328 q 387 322 404 328 q 353 307 370 315 q 321 288 336 298 q 294 273 305 279 l 232 29 q 215 7 229 15 q 190 0 201 0 q 140 15 153 0 q 127 53 127 29 q 129 74 127 63 q 133 96 130 84 l 136 107 q 147 153 140 125 q 162 212 154 181 q 179 274 170 243 q 195 332 187 306 q 217 409 202 358 q 249 523 231 460 q 287 655 267 586 q 323 786 306 724 q 354 897 340 848 q 373 968 368 945 q 392 984 379 978 q 422 990 405 990 q 448 987 435 990 q 471 978 460 984 q 488 961 481 971 q 495 939 495 951 q 491 918 495 930 q 410 673 450 800 q 338 417 370 547 q 370 439 347 422 q 423 479 394 456 q 481 526 452 501 q 530 570 510 550 q 557 598 543 583 q 584 626 571 612 q 606 649 596 639 q 621 666 615 660 q 649 691 633 681 q 680 701 664 701 q 707 696 694 701 q 728 684 719 691 q 741 668 736 677 q 746 650 746 659 q 741 629 746 640 q 730 606 736 617 q 716 586 724 595 q 703 572 709 577 q 662 537 685 556 q 614 497 639 517 q 563 457 589 477 q 512 419 536 437 q 582 356 555 395 q 626 268 610 316 q 648 165 642 219 q 654 61 654 112 q 654 48 654 57 q 651 33 653 40 q 643 10 648 20 q 630 -7 638 0 q 611 -18 623 -14 q 584 -22 600 -22 q 557 -17 568 -22 q 539 -3 547 -12 q 529 17 532 6 q 526 39 526 28 q 524 109 526 73 q 515 179 522 145 q 499 243 509 213 q 471 295 488 273 q 449 319 459 311 q 423 328 438 328 l 418 328 m 547 633 z "},"l":{"ha":350,"x_min":139,"x_max":480,"o":"m 334 880 q 340 930 336 903 q 351 980 343 957 q 371 1018 358 1003 q 403 1034 383 1034 q 427 1029 414 1034 q 452 1018 440 1025 q 472 1001 464 1011 q 480 979 480 991 q 478 966 480 973 q 475 952 476 959 l 305 273 q 288 195 295 232 q 278 134 281 158 l 278 118 q 275 74 278 98 q 265 29 273 50 q 244 -6 258 8 q 210 -20 231 -20 q 178 -12 192 -20 q 156 8 165 -4 q 143 34 147 20 q 139 60 139 48 q 141 87 139 71 q 146 120 143 103 q 153 155 149 138 q 159 185 156 172 l 334 880 z "},"m":{"ha":1193,"x_min":131,"x_max":1188,"o":"m 134 45 q 173 193 154 124 q 210 324 192 261 q 245 446 228 387 q 277 566 262 505 q 284 611 283 589 q 291 657 286 633 q 301 672 294 665 q 317 683 308 678 q 335 690 326 688 q 354 693 345 693 q 386 689 373 693 q 406 677 398 684 q 417 659 414 669 q 420 635 420 648 q 412 589 420 612 q 394 538 405 566 q 459 585 426 563 q 529 625 493 608 q 602 652 564 642 q 679 662 639 662 q 715 656 697 662 q 748 638 734 650 q 773 606 763 626 q 784 558 783 587 q 844 598 813 578 q 908 634 876 618 q 972 660 940 650 q 1035 669 1004 669 q 1110 657 1080 669 q 1157 626 1139 646 q 1181 579 1174 606 q 1188 523 1188 553 q 1182 456 1188 490 q 1168 390 1176 421 q 1124 241 1149 311 q 1072 99 1100 171 q 1057 63 1065 82 q 1040 28 1050 44 q 1017 2 1030 12 q 986 -9 1004 -9 q 931 5 946 -9 q 916 43 916 18 q 917 59 916 50 q 920 76 918 68 q 932 105 923 86 q 953 147 942 125 q 975 192 964 170 q 991 232 986 215 q 1012 299 1000 261 q 1035 377 1024 338 q 1053 451 1046 416 q 1060 507 1060 486 q 1058 528 1060 517 q 1051 545 1056 538 q 1037 557 1046 553 q 1013 562 1027 562 q 965 551 993 562 q 906 520 937 539 q 848 478 876 502 q 799 432 819 455 q 772 406 785 416 q 746 390 759 395 q 739 372 745 387 q 726 335 734 357 q 711 289 719 314 q 695 243 703 264 q 684 207 688 222 q 679 191 679 193 q 671 152 674 172 q 665 114 667 132 q 660 75 662 96 q 650 36 657 54 q 628 7 643 18 q 587 -5 614 -5 q 563 2 574 -5 q 543 19 551 9 q 530 43 535 30 q 525 70 526 56 q 555 180 541 131 q 585 273 570 229 q 614 363 600 318 q 642 463 628 408 q 647 488 645 475 q 649 510 649 500 q 642 537 649 526 q 618 547 635 547 q 563 536 591 547 q 504 501 536 525 q 433 441 472 477 q 343 353 394 404 q 329 315 338 343 q 311 256 320 288 q 294 198 302 225 q 285 163 287 172 q 275 115 277 134 q 270 80 272 96 q 266 53 269 72 q 256 16 263 35 q 236 -18 249 -3 q 202 -33 223 -33 q 151 -16 171 -33 q 131 27 131 1 q 132 36 131 32 q 134 45 132 40 z "},"n":{"ha":767,"x_min":120,"x_max":781,"o":"m 614 557 q 564 546 591 557 q 507 515 536 534 q 448 472 478 496 q 389 422 418 448 q 360 399 374 410 q 333 383 347 389 q 313 342 323 368 q 292 287 302 317 q 273 225 282 256 q 258 166 264 193 q 252 138 254 152 q 248 110 250 125 q 241 77 245 94 q 232 37 237 59 q 221 17 229 24 q 205 5 214 9 q 190 0 197 1 q 178 -1 182 -1 q 136 11 153 -1 q 120 58 120 23 q 121 78 120 68 q 125 102 121 89 q 154 218 140 166 q 182 313 168 269 q 211 396 196 357 q 240 475 225 435 q 272 557 256 515 q 308 651 289 600 q 329 670 312 663 q 366 678 347 678 q 409 667 392 678 q 425 633 425 655 q 424 626 425 631 q 420 614 422 621 l 390 544 q 449 589 418 566 q 513 629 480 611 q 578 658 545 647 q 643 669 611 669 q 745 634 708 669 q 781 526 781 600 q 767 431 781 484 q 730 316 752 377 q 683 187 708 254 q 635 50 657 119 q 623 18 629 31 q 608 -3 616 5 q 587 -14 599 -11 q 558 -18 575 -18 q 522 -8 532 -18 q 511 24 511 2 q 517 70 511 43 q 533 131 523 98 q 558 201 544 163 q 588 277 572 238 q 613 339 601 308 q 636 399 626 370 q 652 455 646 429 q 658 504 658 481 q 649 541 658 525 q 614 557 640 557 z "},"o":{"ha":734,"x_min":127,"x_max":752,"o":"m 140 260 q 171 348 150 301 q 227 441 193 394 q 310 534 262 489 q 422 619 359 580 q 454 632 433 625 q 497 641 475 640 q 568 669 524 669 q 657 643 621 669 q 718 570 694 616 q 731 541 725 555 q 742 510 738 526 q 749 476 747 494 q 752 435 752 458 q 735 326 752 381 q 687 217 718 270 q 611 116 656 164 q 513 28 567 67 q 432 -13 476 2 q 332 -27 387 -27 q 242 -13 280 -27 q 178 26 203 1 q 140 88 153 52 q 127 168 127 124 q 140 260 127 211 m 252 251 q 247 221 248 235 q 245 195 245 208 q 251 153 245 172 q 269 120 256 134 q 301 98 282 106 q 349 90 321 90 q 445 116 400 90 q 524 182 489 142 q 582 266 558 221 q 614 349 605 311 q 625 394 621 373 q 629 433 629 415 q 623 466 629 450 q 606 500 616 481 q 594 524 600 511 q 583 549 588 536 q 572 532 578 539 q 553 519 566 525 q 520 509 541 513 q 465 500 499 504 q 420 477 443 493 q 375 441 397 462 q 333 395 353 420 q 297 346 313 371 q 269 296 281 320 q 252 251 257 271 z "},"p":{"ha":784,"x_min":71,"x_max":819,"o":"m 74 -251 q 98 -150 87 -196 q 117 -64 109 -104 q 134 14 126 -24 q 150 90 142 52 q 166 170 157 128 q 184 260 174 211 l 217 417 q 228 486 225 457 q 231 539 231 515 q 233 585 231 565 q 240 619 234 605 q 258 640 246 633 q 291 647 270 647 q 338 638 321 647 q 363 616 355 630 q 373 585 372 603 q 375 549 375 568 q 429 578 398 565 q 493 599 460 591 q 560 612 526 608 q 624 617 594 617 q 709 600 673 617 q 770 554 746 583 q 807 487 795 525 q 819 410 819 450 q 804 321 819 363 q 764 244 789 280 q 704 177 738 208 q 630 121 669 146 q 548 74 590 95 q 464 35 505 52 q 411 18 436 24 q 367 12 387 12 q 313 18 339 12 q 262 39 287 24 q 240 -50 249 -7 q 225 -124 231 -92 q 217 -167 222 -144 q 208 -211 212 -189 q 198 -251 203 -232 q 191 -283 194 -270 q 181 -297 189 -292 q 163 -306 174 -302 q 141 -312 152 -310 q 121 -313 130 -313 q 71 -274 71 -313 q 74 -251 71 -263 m 284 142 q 306 139 294 141 q 328 135 317 137 q 347 131 339 133 q 357 130 355 130 q 386 133 370 130 q 418 142 402 136 q 449 154 434 147 q 475 166 464 160 q 546 207 509 183 q 616 262 584 231 q 669 332 648 294 q 690 418 690 371 q 686 453 690 437 q 671 481 681 469 q 647 501 662 494 q 610 508 631 508 q 567 505 587 508 q 527 495 547 502 q 488 478 507 488 q 447 452 468 467 q 404 425 428 437 q 353 410 380 413 l 284 142 z "},"q":{"ha":733,"x_min":107,"x_max":759,"o":"m 527 115 q 461 78 498 98 q 385 40 424 58 q 309 12 346 23 q 245 0 273 0 q 141 33 176 0 q 107 124 107 66 q 109 152 107 138 q 114 180 111 167 q 158 296 129 236 q 225 408 186 355 q 309 503 263 461 q 404 563 355 544 q 485 582 432 574 q 627 594 538 589 q 637 623 633 609 q 649 647 642 636 q 668 666 656 658 q 699 678 680 673 q 745 662 731 677 q 759 608 759 647 q 759 597 759 604 q 757 585 758 590 q 746 541 753 571 q 729 472 739 511 q 708 390 719 433 q 688 308 698 347 q 671 238 678 269 q 661 192 663 207 q 641 96 654 159 q 612 -56 628 34 q 597 -146 604 -106 q 587 -203 590 -186 q 595 -227 592 -213 q 600 -252 599 -241 l 599 -260 q 590 -279 597 -270 q 572 -297 583 -289 q 550 -309 562 -304 q 525 -313 537 -313 q 495 -307 507 -313 q 475 -291 483 -301 q 464 -267 467 -281 q 460 -239 460 -254 q 461 -221 460 -229 q 465 -204 463 -212 q 496 -36 480 -115 q 528 111 513 43 l 527 115 m 228 178 q 225 157 225 167 q 236 126 225 138 q 267 114 247 114 q 340 130 298 114 q 433 170 383 145 q 482 196 459 182 q 521 220 505 210 q 547 239 538 231 l 557 245 l 602 447 q 602 454 602 449 q 594 468 602 463 q 576 473 587 473 q 471 464 508 473 q 415 440 434 454 q 350 386 379 413 q 298 328 321 359 q 257 260 275 296 q 228 178 240 223 z "},"r":{"ha":591,"x_min":143,"x_max":696,"o":"m 146 70 q 167 174 155 117 q 191 290 178 231 q 214 404 203 348 q 234 507 226 460 q 233 519 233 514 q 233 530 233 524 q 236 572 233 551 q 243 611 239 593 q 260 646 251 637 q 290 655 269 655 q 321 647 309 655 q 340 627 333 640 q 349 597 347 614 q 351 563 351 581 q 350 542 351 553 q 349 524 349 530 q 390 564 368 543 q 435 601 411 585 q 486 629 459 618 q 542 640 513 640 q 565 637 553 640 q 587 632 576 635 q 615 623 601 629 q 644 607 630 617 q 681 565 666 590 q 696 513 696 539 q 692 491 696 503 q 681 469 688 479 q 665 453 674 459 q 644 446 655 446 q 615 452 632 446 q 588 467 599 458 q 578 479 583 471 q 569 494 573 486 q 561 508 564 501 q 555 516 557 514 q 547 517 551 517 q 540 517 543 517 q 474 500 505 517 q 416 457 443 482 q 366 402 389 431 q 326 351 343 374 q 296 234 313 296 q 263 104 279 172 l 263 87 q 262 45 263 66 q 254 8 260 24 q 232 -9 246 -2 q 200 -16 218 -16 q 157 2 172 -16 q 143 46 143 21 q 146 70 143 58 z "},"s":{"ha":574,"x_min":109,"x_max":618,"o":"m 149 120 q 159 119 155 120 q 169 116 163 117 q 181 113 174 114 q 199 111 188 111 q 270 118 231 111 q 343 136 309 125 q 402 160 378 146 q 431 189 427 174 q 433 203 433 197 q 421 225 433 215 q 393 245 410 236 q 357 263 376 255 q 320 278 337 271 l 297 288 q 262 304 279 294 q 231 327 245 314 q 205 357 216 340 q 189 397 194 374 q 184 416 186 406 q 182 436 182 425 q 194 476 182 454 q 226 522 206 499 q 272 564 246 544 q 325 598 297 585 q 364 624 345 612 q 402 644 383 635 q 442 656 422 652 q 484 661 462 661 q 528 659 505 661 q 572 650 552 657 q 605 628 591 642 q 618 589 618 613 q 616 569 618 581 q 609 545 614 557 q 597 524 604 532 q 581 515 591 515 q 555 521 566 515 q 537 534 545 527 q 520 547 529 541 q 498 553 511 553 q 462 548 483 553 q 420 532 441 542 q 377 509 398 522 q 340 483 357 496 q 313 456 323 469 q 303 432 303 443 q 311 413 303 420 q 330 400 318 406 q 364 384 345 392 q 403 368 383 376 q 441 351 422 359 q 473 336 460 343 q 506 318 492 327 q 531 298 521 309 q 547 273 541 287 q 552 241 552 260 q 551 224 552 233 q 547 203 549 215 q 539 180 545 193 q 529 153 534 166 q 517 129 523 140 q 507 115 511 119 q 444 70 480 91 q 369 32 408 48 q 291 7 330 16 q 220 -3 252 -3 q 184 4 203 -3 q 148 21 164 10 q 120 45 131 31 q 109 72 109 58 q 113 87 109 79 q 123 103 117 96 q 136 115 129 110 q 149 120 143 120 z "},"t":{"ha":733,"x_min":167,"x_max":757,"o":"m 230 211 q 243 329 230 268 q 270 447 256 391 q 234 452 252 448 q 201 465 216 457 q 176 485 186 473 q 167 513 167 497 q 170 528 167 519 q 177 547 172 538 q 191 563 182 556 q 209 569 199 569 l 300 569 q 317 580 313 569 q 325 602 322 591 q 341 670 334 642 q 355 719 349 699 q 363 752 360 739 q 366 772 366 764 q 366 789 366 781 q 365 811 365 797 l 365 818 q 366 832 365 823 q 372 857 367 841 q 387 882 376 870 q 419 893 398 893 q 450 886 437 893 q 471 866 463 878 q 484 838 479 854 q 488 807 488 823 q 484 777 488 790 l 435 587 q 500 598 471 593 q 557 609 528 604 q 611 621 588 615 q 650 630 633 626 q 677 636 666 633 q 696 638 688 638 q 718 636 707 638 q 738 631 729 635 q 751 619 746 627 q 757 600 757 612 q 750 571 757 583 q 734 549 744 558 q 711 534 724 540 q 685 526 698 528 q 657 519 674 524 q 619 511 640 515 q 576 500 598 506 q 532 490 553 495 q 479 476 501 481 q 441 468 457 471 q 416 464 426 465 q 400 463 406 463 q 378 387 387 424 q 362 317 368 349 q 352 259 355 285 q 349 220 349 234 q 353 185 349 201 q 364 156 356 168 q 386 137 372 144 q 421 130 400 130 q 492 149 457 130 q 558 199 526 169 q 617 265 589 229 q 669 334 646 301 q 690 346 677 346 q 700 345 694 346 q 711 340 706 343 q 721 331 717 336 q 724 318 724 326 q 724 310 724 313 q 690 225 713 268 q 644 140 667 183 q 622 111 635 125 q 593 84 609 97 q 561 59 578 71 q 529 37 544 47 q 473 15 503 21 q 414 9 442 9 q 335 25 370 9 q 278 68 301 41 q 242 132 254 96 q 230 211 230 169 z "},"u":{"ha":770,"x_min":151,"x_max":777,"o":"m 251 604 q 259 622 254 614 q 270 635 264 630 q 280 642 275 640 q 288 644 285 644 q 305 642 295 644 q 325 639 315 640 q 346 635 336 637 q 371 621 363 634 q 379 588 379 607 q 375 560 379 573 q 333 413 352 475 q 301 306 314 350 q 280 234 288 262 q 273 192 273 206 q 277 160 273 178 q 288 127 281 142 q 307 102 296 112 q 335 92 319 92 q 393 109 363 92 q 448 152 422 127 q 496 207 475 178 q 531 258 517 235 l 549 288 q 579 354 565 317 q 603 428 593 391 q 621 498 614 465 q 633 551 629 531 l 650 641 q 667 676 656 667 q 705 686 678 686 q 735 683 722 686 q 758 669 749 679 q 772 644 768 660 q 777 603 777 628 q 768 531 777 574 q 748 446 759 489 q 735 393 742 421 q 724 337 729 365 q 716 283 719 309 q 713 237 713 258 q 715 168 713 203 q 718 95 718 134 q 716 64 718 77 q 713 43 715 50 q 694 4 706 17 q 654 -9 682 -9 q 623 -4 634 -9 q 605 7 611 0 q 596 24 598 15 q 593 43 594 33 l 586 171 l 580 169 q 531 105 557 140 q 473 39 505 70 q 403 -12 441 9 q 321 -33 366 -33 q 299 -28 313 -33 q 270 -17 285 -24 q 241 -2 255 -10 q 220 14 228 7 q 167 92 182 49 q 151 180 151 136 q 155 231 151 205 q 165 279 159 256 q 177 323 170 302 q 187 360 183 344 q 210 450 200 411 q 228 517 220 488 q 241 567 236 547 q 251 604 247 588 z "},"v":{"ha":680,"x_min":174,"x_max":789,"o":"m 351 -27 q 345 -28 347 -28 q 340 -28 342 -28 q 315 -22 326 -28 q 296 -7 304 -16 q 284 13 288 2 q 280 33 280 23 q 271 73 277 47 q 257 133 264 100 q 240 204 249 166 q 224 281 232 243 q 209 357 216 320 q 197 424 202 393 q 190 465 194 446 q 182 501 186 484 q 177 535 179 518 q 174 568 174 551 q 178 605 174 587 q 190 635 182 622 q 209 656 198 648 q 234 665 220 665 q 277 651 261 665 q 302 616 293 638 q 314 565 311 594 q 320 505 318 536 q 329 419 323 465 q 342 328 335 374 q 358 240 350 282 q 372 165 366 197 q 443 258 392 186 q 489 323 468 294 q 530 381 511 353 q 566 435 549 408 q 598 492 583 463 q 630 554 614 521 q 661 627 645 587 q 672 644 665 635 q 688 660 679 653 q 709 672 697 667 q 736 677 721 677 q 778 661 767 677 q 789 622 789 646 q 778 560 789 590 q 743 495 767 530 l 425 46 q 405 12 415 26 q 385 -9 395 -1 q 366 -22 375 -18 q 351 -27 357 -26 z "},"w":{"ha":1019,"x_min":182,"x_max":1114,"o":"m 220 606 q 248 642 232 633 q 283 651 263 651 q 317 645 303 651 q 338 629 330 639 q 350 605 347 618 q 353 576 353 591 q 353 567 353 571 q 353 557 353 562 q 349 535 352 551 q 343 498 347 519 q 335 452 339 476 q 327 406 330 428 q 320 368 323 385 q 315 346 317 352 q 312 326 314 339 q 308 297 310 313 q 304 261 306 280 q 303 223 303 242 q 304 188 303 205 q 310 159 306 172 q 319 139 313 146 q 334 132 325 132 q 352 141 340 132 q 377 165 363 151 q 403 194 390 178 q 424 219 416 209 q 505 329 468 273 q 574 442 542 385 q 592 488 586 465 q 608 529 599 511 q 632 560 616 548 q 680 572 648 572 q 715 560 697 572 q 739 527 732 549 q 733 475 737 502 q 726 421 729 449 q 720 367 722 394 q 717 314 717 340 q 725 240 717 274 q 755 182 733 205 q 807 257 781 215 q 859 345 833 299 q 906 436 884 390 q 949 525 929 483 q 950 531 950 528 q 951 538 951 534 l 951 544 q 963 587 951 565 q 991 628 975 610 q 1024 658 1007 646 q 1053 669 1042 669 q 1098 654 1082 669 q 1114 612 1114 638 q 1111 592 1114 604 q 1101 568 1108 580 l 873 165 l 856 132 q 834 91 845 111 q 811 56 824 71 q 784 33 799 41 q 749 24 768 24 q 702 39 722 24 q 666 75 681 54 q 641 122 651 97 q 627 168 631 148 l 602 277 q 587 262 600 277 q 557 226 575 248 q 517 177 538 203 q 474 125 495 150 q 436 80 454 100 q 410 52 419 60 q 390 36 400 44 q 369 22 379 28 q 350 12 359 16 q 334 7 340 7 q 260 28 290 7 q 213 83 231 50 q 189 159 196 117 q 182 243 182 201 q 186 318 182 280 q 195 393 190 356 q 206 465 200 430 q 216 529 212 499 q 217 542 216 534 q 217 556 217 549 l 217 574 q 217 594 217 585 q 220 606 218 603 z "},"x":{"ha":675,"x_min":22,"x_max":744,"o":"m 113 27 q 72 15 98 15 q 51 20 60 15 q 36 32 42 24 q 26 50 29 40 q 22 70 22 60 q 28 94 22 84 q 42 111 34 104 q 61 123 51 118 q 79 131 71 127 q 140 174 106 149 q 210 230 174 200 q 281 290 245 259 q 349 348 317 320 l 379 375 q 359 434 369 410 q 338 479 349 459 q 318 516 328 498 q 295 553 307 533 q 278 580 284 570 q 273 599 273 589 q 276 615 273 606 q 287 634 279 625 q 305 650 294 644 q 331 656 316 656 q 369 647 353 656 q 399 624 386 638 q 421 593 412 610 q 438 562 431 576 q 447 540 442 553 q 456 511 452 526 q 465 481 460 496 q 471 456 469 467 q 529 515 501 484 q 592 588 557 547 q 615 616 603 601 q 640 643 627 631 q 666 664 652 656 q 695 672 680 672 q 733 659 722 672 q 744 623 744 645 q 735 581 744 600 q 713 551 727 562 q 670 513 694 535 q 623 467 647 491 q 575 418 599 442 q 532 376 551 395 q 518 361 524 368 q 512 342 512 353 q 516 325 512 335 q 525 303 519 315 q 537 280 531 292 q 547 258 543 268 q 569 215 555 240 q 598 162 584 190 q 624 106 613 135 q 635 52 635 78 q 630 22 635 36 q 618 -2 625 8 q 601 -19 610 -13 q 584 -25 592 -25 q 556 -21 566 -25 q 538 -9 545 -17 q 525 11 530 -1 q 514 39 520 23 q 491 96 505 64 q 461 161 477 129 q 433 220 446 193 q 412 262 419 248 q 373 231 393 247 q 321 190 353 215 q 240 126 289 165 q 113 27 191 87 z "},"y":{"ha":733,"x_min":84,"x_max":768,"o":"m 129 -313 q 111 -308 119 -313 q 97 -294 102 -302 q 87 -274 91 -285 q 84 -254 84 -264 q 87 -231 84 -241 q 96 -215 91 -222 q 107 -203 101 -208 q 117 -197 113 -199 q 155 -189 134 -193 q 202 -175 177 -184 q 257 -151 228 -165 q 316 -113 286 -136 q 380 -57 347 -89 q 445 17 414 -26 q 503 114 476 59 q 548 239 530 168 q 518 207 535 224 q 483 170 502 189 q 444 134 464 151 q 403 103 423 117 q 363 81 382 89 q 327 73 344 73 q 250 93 281 73 q 191 161 218 114 q 179 197 183 175 q 175 241 175 218 q 178 312 175 277 q 189 384 182 347 q 204 462 195 421 q 225 553 214 503 q 227 577 226 566 q 229 595 229 587 q 230 606 229 604 q 238 628 231 618 q 253 646 244 638 q 273 657 262 653 q 294 661 283 661 q 322 659 308 661 q 345 648 336 656 q 362 616 356 636 q 368 581 368 597 q 362 557 368 575 q 345 519 356 538 q 319 415 329 458 q 303 345 309 373 q 295 300 297 317 q 292 275 292 283 q 304 216 292 238 q 334 195 317 195 q 358 199 345 195 q 386 212 371 203 q 484 289 443 248 q 554 381 525 331 q 605 492 584 432 q 644 625 627 553 q 651 635 646 630 q 663 643 656 640 q 678 649 670 646 q 694 651 686 651 q 749 632 730 651 q 768 580 768 612 q 762 541 768 568 q 748 483 756 513 q 731 426 740 453 q 718 385 723 398 l 686 291 q 645 174 663 227 q 607 74 627 120 q 561 -14 587 27 q 500 -95 536 -56 q 414 -174 464 -134 q 296 -256 365 -214 q 214 -297 254 -281 q 129 -313 174 -313 z "},"z":{"ha":704,"x_min":75,"x_max":746,"o":"m 77 70 q 93 100 81 85 q 118 130 104 115 q 146 155 132 144 q 170 174 160 167 q 245 246 202 205 q 334 331 289 287 q 419 418 378 375 q 489 497 460 462 q 440 496 469 496 q 384 494 412 495 q 332 493 356 494 q 295 492 307 492 q 268 496 281 492 q 246 507 256 499 q 231 527 237 515 q 225 555 225 538 q 235 587 225 572 q 261 604 245 601 q 284 602 273 602 q 310 601 296 601 q 395 606 350 601 q 486 617 441 611 q 574 628 531 623 q 651 633 616 633 q 674 631 665 633 q 690 624 683 629 q 703 610 697 618 q 717 590 709 602 q 721 581 720 585 q 722 574 722 577 q 715 545 722 558 q 695 518 708 532 q 673 507 688 517 q 641 483 659 497 q 603 450 623 468 q 564 415 583 432 q 529 382 545 397 q 504 359 513 368 l 497 353 q 466 323 487 343 q 420 277 446 303 q 366 223 394 252 q 312 167 338 194 q 264 118 286 140 q 231 83 243 96 q 241 82 235 82 q 252 81 247 81 q 300 86 273 81 q 353 94 327 91 l 537 120 q 565 131 547 125 q 601 140 584 136 l 621 145 q 646 152 636 149 q 663 159 656 156 q 677 164 671 162 q 692 165 684 165 q 716 160 707 165 q 730 146 725 155 q 739 126 736 138 q 746 100 743 114 q 738 78 743 89 q 724 58 732 66 q 706 44 715 50 q 686 39 696 39 q 672 42 680 39 q 638 36 661 40 q 577 24 615 31 q 483 7 538 17 q 349 -16 427 -3 q 321 -19 341 -17 q 279 -24 301 -22 q 236 -28 256 -26 q 209 -30 216 -30 q 164 -25 188 -30 q 121 -10 141 -20 q 88 16 101 0 q 75 54 75 32 q 77 70 75 60 z "},"~":{"ha":837,"x_min":172,"x_max":918,"o":"m 174 353 q 200 406 180 379 q 248 457 220 433 q 309 503 275 482 q 375 540 342 524 q 439 564 408 555 q 495 573 471 573 q 570 558 542 573 q 613 513 598 543 q 623 494 618 504 q 634 476 629 484 q 646 463 640 468 q 655 458 651 458 q 692 471 671 458 q 735 503 713 484 q 781 545 758 522 q 822 586 803 567 q 855 618 841 606 q 874 631 869 631 q 905 618 892 631 q 918 585 918 604 q 902 545 918 570 q 860 493 886 521 q 802 437 834 466 q 736 386 769 409 q 674 349 704 363 q 625 335 645 335 q 590 345 604 335 q 568 370 577 355 q 551 401 558 385 q 534 433 543 418 q 512 458 525 448 q 480 468 500 468 q 456 464 471 468 q 420 449 441 460 q 374 420 399 439 q 322 373 349 402 q 297 343 309 359 q 272 315 286 328 q 243 294 259 302 q 208 286 228 286 q 191 290 198 286 q 180 302 184 295 q 174 319 176 310 q 172 337 172 328 q 174 353 172 345 z "},"¡":{"ha":351,"x_min":19,"x_max":442,"o":"m 161 -227 q 146 -252 157 -238 q 120 -278 136 -266 q 86 -298 105 -290 q 48 -306 68 -306 q 29 -298 39 -306 q 19 -275 19 -290 q 19 -270 19 -272 q 20 -264 20 -267 q 41 -190 28 -234 q 70 -91 54 -145 q 105 23 86 -37 q 144 148 124 84 q 185 274 165 211 q 225 397 206 338 q 249 437 233 420 q 291 453 266 453 q 315 446 306 453 q 331 429 325 439 q 339 409 336 419 q 341 393 341 399 q 318 316 330 355 q 295 235 307 277 q 270 146 283 193 q 240 43 256 99 q 205 -80 224 -14 q 161 -227 185 -146 m 338 576 q 315 579 328 576 q 290 591 302 583 q 269 610 277 599 q 260 637 260 621 q 260 643 260 640 q 261 650 260 646 q 280 693 267 673 q 309 726 292 712 q 345 747 326 740 q 384 755 364 755 q 411 748 400 755 q 429 732 422 742 q 439 709 436 722 q 442 686 442 697 q 433 646 442 665 q 409 610 424 626 q 375 585 394 595 q 338 576 357 576 z "},"¢":{"ha":585,"x_min":121,"x_max":661,"o":"m 456 872 q 467 935 460 903 q 481 994 474 968 q 486 1004 482 998 q 494 1014 489 1009 q 505 1023 498 1019 q 517 1026 511 1026 q 534 1023 524 1026 q 552 1013 544 1019 q 567 997 561 1006 q 572 977 572 988 q 571 966 572 972 l 551 886 q 595 880 575 884 q 630 866 616 875 q 653 842 645 857 q 661 808 661 828 q 639 745 661 764 q 580 726 617 726 q 543 735 557 726 q 517 749 529 743 l 416 345 q 463 366 435 352 q 520 394 491 380 q 573 419 549 408 q 607 429 597 429 q 627 427 621 429 q 632 416 632 424 q 631 407 632 412 q 628 395 629 402 q 604 342 621 364 q 563 304 587 321 q 511 273 539 287 q 452 247 482 260 q 419 234 436 239 q 389 223 403 228 q 382 188 385 203 q 377 165 378 172 q 371 113 375 140 q 360 62 368 85 q 342 24 353 39 q 314 9 331 9 q 293 16 302 9 q 278 33 283 22 q 269 56 272 43 q 267 80 267 68 q 269 106 267 91 q 274 139 271 121 q 282 174 278 156 q 290 210 286 193 q 227 221 258 210 q 173 254 196 233 q 135 306 149 275 q 121 374 121 336 q 142 502 121 433 q 205 638 163 570 q 310 767 248 705 q 456 872 373 828 m 300 313 q 308 313 304 313 q 316 314 312 313 l 416 711 q 332 629 366 673 q 276 543 297 585 q 244 460 254 500 q 235 392 235 421 q 238 362 235 376 q 248 337 241 349 q 268 320 256 326 q 300 313 281 313 z "},"£":{"ha":837,"x_min":85,"x_max":878,"o":"m 86 -17 q 95 10 90 -3 q 108 34 100 22 q 129 56 116 45 q 161 79 142 67 q 181 129 171 102 q 201 185 191 157 q 219 241 210 214 q 233 290 227 268 q 201 294 217 293 q 173 297 185 294 q 153 305 160 299 q 145 323 145 311 q 167 374 145 353 q 228 407 189 395 q 255 417 242 411 q 272 430 269 422 q 279 450 274 435 q 289 481 283 465 q 298 513 294 498 q 304 533 303 528 q 399 750 348 665 q 509 886 450 836 q 635 957 568 937 q 779 977 702 977 q 808 974 791 977 q 841 965 825 972 q 867 944 857 958 q 878 907 878 930 q 876 886 878 897 q 866 866 873 876 q 847 850 859 857 q 817 844 836 844 q 783 850 800 844 q 745 863 766 855 l 736 867 q 641 849 684 867 q 558 791 597 832 q 483 682 519 749 q 410 513 447 614 q 397 475 402 494 q 388 444 391 455 q 501 451 450 448 q 607 453 553 453 q 630 452 616 453 q 657 448 644 452 q 680 435 670 444 q 689 410 689 426 q 686 392 689 401 q 679 374 683 382 q 669 361 674 366 q 659 356 663 356 q 600 353 636 356 q 521 345 563 351 q 435 332 479 340 q 356 315 391 324 q 341 262 350 292 q 322 205 332 233 q 300 142 311 174 q 352 156 328 151 q 398 161 377 161 q 460 148 435 161 q 504 121 486 136 q 537 94 522 106 q 571 81 553 81 q 604 92 585 81 q 642 117 623 102 q 682 150 662 132 q 718 182 701 168 q 748 208 735 197 q 767 218 761 218 q 786 214 777 218 q 802 202 795 210 q 812 186 808 195 q 817 166 817 177 q 816 160 817 163 q 815 154 816 157 q 798 122 812 141 q 761 84 783 104 q 711 43 739 64 q 654 7 684 23 q 593 -19 624 -9 q 534 -28 562 -28 q 484 -16 504 -28 q 446 11 464 -4 q 409 37 428 25 q 361 50 389 50 q 340 48 351 50 q 315 41 330 47 q 283 24 301 36 q 240 -8 264 12 q 216 -31 227 -19 q 193 -53 205 -43 q 166 -69 181 -62 q 129 -75 151 -75 q 110 -71 118 -75 q 96 -59 102 -66 q 87 -44 90 -52 q 85 -27 85 -35 q 86 -17 85 -24 z "},"¤":{"ha":843,"x_min":125,"x_max":950,"o":"m 250 406 q 272 474 258 439 q 309 547 287 510 q 360 620 330 583 q 430 691 391 656 l 401 741 q 386 761 392 751 q 380 784 380 770 q 383 799 380 789 q 393 818 386 808 q 412 836 400 828 q 439 843 423 843 q 466 837 453 843 q 492 819 479 830 q 515 795 504 808 q 536 768 526 782 q 570 781 549 774 q 608 789 591 787 q 641 810 623 802 q 680 818 658 818 q 732 809 705 818 q 779 783 760 800 q 806 813 790 796 q 839 845 822 830 q 872 871 856 861 q 903 881 889 881 q 939 868 928 881 q 950 834 950 855 q 942 793 950 810 q 920 763 935 777 q 886 732 906 748 q 841 692 865 716 q 857 644 852 671 q 861 590 861 618 q 853 513 861 552 q 830 435 845 473 q 792 359 814 396 q 742 289 770 322 q 760 243 753 265 q 767 201 767 221 q 763 178 767 191 q 753 153 759 165 q 739 133 747 141 q 725 124 732 124 l 710 124 q 684 129 694 124 q 667 142 674 134 q 655 161 660 150 q 646 186 650 172 l 644 195 q 594 161 618 174 q 545 139 570 147 q 494 126 520 130 q 441 123 469 123 q 335 142 378 123 q 269 199 292 162 l 213 155 q 196 146 208 149 q 172 144 184 144 q 137 160 150 144 q 125 196 125 176 q 130 217 125 208 q 143 234 135 226 q 161 248 151 241 q 181 258 171 254 q 206 273 191 263 q 237 296 221 283 q 237 303 237 299 q 237 311 237 307 q 240 356 237 332 q 250 406 243 380 m 361 401 q 354 345 354 370 q 360 302 354 321 q 379 268 366 282 q 413 246 393 254 q 461 238 433 238 q 556 264 512 238 q 634 329 600 290 q 692 413 669 368 q 725 496 715 458 q 735 544 731 519 q 739 591 739 568 q 734 631 739 612 q 720 664 730 650 q 693 686 709 678 q 651 694 676 694 q 587 681 619 694 q 526 646 555 668 q 470 594 496 624 q 422 532 444 565 q 385 466 400 499 q 361 401 369 432 z "},"¥":{"ha":927,"x_min":244,"x_max":1036,"o":"m 273 390 q 289 415 276 401 q 319 435 302 429 l 441 443 q 413 519 425 484 q 389 588 400 554 q 365 659 377 623 q 340 741 353 696 q 324 782 333 763 q 306 820 315 801 q 292 858 298 838 q 286 901 286 877 q 290 932 286 915 q 300 965 293 950 q 321 991 308 981 q 353 1001 334 1001 q 403 978 384 1001 q 437 913 422 956 q 466 808 452 870 q 502 667 480 746 l 518 608 q 545 518 532 557 q 568 455 558 479 l 732 694 q 768 748 747 715 q 811 818 789 781 q 851 889 832 854 q 883 950 871 924 l 901 1021 q 925 1066 907 1046 q 969 1085 943 1085 q 999 1078 987 1085 q 1020 1059 1012 1071 q 1032 1033 1028 1048 q 1036 1002 1036 1018 q 1028 959 1036 984 q 1009 908 1021 935 q 982 857 997 882 q 954 813 968 832 l 686 452 l 795 452 q 839 439 822 452 q 856 408 856 426 q 849 385 856 393 q 832 371 843 376 q 809 363 822 366 q 783 359 795 361 q 749 355 768 357 q 707 351 730 353 q 660 347 684 349 q 610 342 635 345 q 600 300 605 321 q 589 254 595 279 q 628 259 608 256 q 669 264 649 262 q 708 268 690 267 q 741 269 727 269 q 802 263 783 269 q 820 238 820 257 q 813 213 820 224 q 794 195 806 202 q 768 183 783 187 q 738 176 753 178 q 705 170 724 174 q 662 163 685 167 q 614 156 639 159 q 567 149 590 152 q 552 84 559 115 q 538 26 545 53 q 526 2 534 13 q 506 -17 517 -9 q 482 -29 494 -24 q 459 -33 469 -33 q 434 -28 444 -33 q 418 -17 424 -24 q 409 -1 412 -9 q 406 16 406 8 q 408 32 406 24 l 431 136 q 400 132 418 134 q 365 129 383 130 q 330 126 347 127 q 300 125 313 125 q 258 149 271 135 q 244 184 244 163 q 259 223 244 207 q 303 239 275 239 q 339 237 321 239 q 374 233 357 235 l 456 240 q 466 287 462 269 q 472 314 470 304 q 476 331 475 326 q 451 329 462 330 q 429 329 440 329 q 406 328 418 328 q 374 328 393 328 q 363 329 372 328 q 345 329 355 329 q 325 329 334 329 q 311 330 316 330 q 294 334 302 330 q 282 345 287 338 q 274 361 277 352 q 271 378 271 370 q 272 384 271 381 q 273 390 272 387 z "},"¦":{"ha":745,"x_min":256,"x_max":698,"o":"m 669 954 q 649 872 661 916 q 624 780 637 828 q 597 680 610 732 q 574 574 585 628 q 550 542 567 557 q 503 528 533 528 q 487 531 496 528 q 470 540 478 534 q 456 554 462 546 q 450 574 450 563 q 456 589 450 581 q 463 597 463 596 q 477 657 469 621 q 496 738 486 693 q 518 832 507 782 q 543 933 530 882 q 568 1033 555 984 q 591 1124 580 1082 q 604 1133 592 1129 q 626 1136 616 1136 q 656 1132 643 1136 q 679 1121 670 1128 q 693 1107 688 1115 q 698 1094 698 1100 l 698 1091 l 669 954 m 461 86 q 454 63 459 81 q 443 26 449 46 q 432 -14 437 5 q 424 -42 427 -33 q 418 -62 422 -48 q 410 -96 415 -77 q 401 -135 406 -115 q 392 -175 396 -156 q 384 -209 387 -194 q 380 -229 381 -223 q 373 -241 377 -235 q 363 -252 370 -248 q 347 -260 357 -257 q 322 -262 337 -262 q 273 -252 291 -262 q 256 -228 256 -241 q 258 -216 256 -225 q 265 -195 261 -207 q 273 -172 269 -184 q 280 -151 277 -160 q 282 -144 281 -148 q 292 -105 286 -133 q 306 -44 298 -77 q 320 20 313 -12 q 332 70 327 52 q 339 99 334 79 q 351 144 345 119 q 365 198 357 170 q 378 251 372 226 q 389 295 385 275 q 396 322 394 314 q 400 330 397 325 q 409 339 404 334 q 419 347 414 344 q 430 351 425 351 q 489 335 472 351 q 507 301 507 320 q 505 290 507 297 l 461 86 z "},"§":{"ha":574,"x_min":94,"x_max":706,"o":"m 132 134 q 145 133 140 134 q 156 130 151 132 q 168 127 161 128 q 185 125 174 125 q 256 132 217 125 q 329 149 294 138 q 387 174 363 160 q 415 202 412 188 q 417 215 417 209 q 407 236 417 226 q 381 257 397 247 q 345 276 366 267 q 303 294 324 286 l 281 302 q 244 319 262 309 q 212 343 226 329 q 187 376 197 357 q 171 422 176 395 q 169 433 170 426 q 168 445 168 441 q 182 495 168 470 q 220 544 196 520 q 276 590 244 568 q 342 631 307 612 q 302 672 318 648 q 275 732 286 695 q 273 743 274 736 q 272 754 272 750 q 286 804 272 779 q 321 851 300 829 q 368 891 342 873 q 416 922 393 909 l 415 922 q 493 967 456 950 q 575 984 530 984 q 618 982 595 984 q 661 973 642 980 q 693 952 680 966 q 706 915 706 938 q 704 892 706 905 q 696 867 701 879 q 685 848 692 856 q 669 840 678 840 q 643 846 653 840 q 625 859 633 852 q 608 873 616 867 q 586 879 599 879 q 552 873 572 879 q 510 859 532 868 q 467 838 488 850 q 429 812 446 826 q 402 784 412 798 q 391 755 391 769 q 401 736 391 744 q 422 722 410 729 q 446 711 435 715 q 475 699 457 707 q 539 672 509 684 q 592 645 569 659 q 628 613 614 631 q 641 568 641 595 q 636 538 641 557 q 625 499 632 519 q 610 464 618 480 q 595 440 602 447 q 528 393 567 415 q 450 354 489 370 l 458 350 q 515 313 494 334 q 536 258 536 292 q 532 227 536 245 q 521 189 528 208 q 507 153 515 170 q 492 131 498 137 q 429 85 465 107 q 353 47 393 64 q 274 22 314 31 q 202 12 235 12 q 165 19 184 12 q 131 35 146 25 q 105 59 115 45 q 94 85 94 72 q 99 102 94 94 q 110 118 104 111 q 122 130 116 125 q 132 134 129 134 m 519 525 q 513 544 519 536 q 497 559 507 553 q 475 572 488 566 q 451 585 463 578 q 404 570 429 581 q 355 545 378 559 q 315 514 332 531 q 294 478 298 496 q 292 465 293 471 q 291 454 291 460 q 301 425 291 435 q 328 407 311 414 q 390 421 358 412 q 449 443 422 431 q 493 468 475 454 q 515 494 511 481 q 519 525 519 513 z "},"¨":{"ha":734,"x_min":372,"x_max":812,"o":"m 376 824 q 388 859 380 839 q 416 893 397 878 q 447 906 430 901 q 469 912 463 912 q 490 903 480 912 q 508 882 500 893 q 527 869 522 880 q 532 845 532 859 q 530 827 532 836 q 528 812 529 818 q 512 786 524 798 q 486 765 500 774 q 456 752 471 757 q 431 747 441 747 l 414 747 q 396 757 406 747 q 381 775 387 766 q 374 790 375 784 q 372 800 372 795 q 374 812 372 806 q 376 824 375 819 m 656 824 q 668 859 660 839 q 696 893 677 878 q 727 906 710 901 q 749 912 743 912 q 770 903 760 912 q 788 882 781 893 q 807 869 802 880 q 812 845 812 859 q 810 827 812 836 q 808 812 809 818 q 792 786 804 798 q 766 765 781 774 q 736 752 751 757 q 711 747 721 747 l 694 747 q 676 757 686 747 q 661 775 667 766 q 654 790 655 784 q 652 800 652 795 q 654 812 652 806 q 656 824 655 819 z "},"©":{"ha":1235,"x_min":138,"x_max":1293,"o":"m 478 228 q 456 266 464 249 q 443 295 448 282 q 437 320 439 309 q 436 342 436 331 q 438 370 436 356 q 444 400 439 384 q 454 434 448 416 q 469 475 460 452 q 491 522 476 496 q 525 575 506 547 q 566 630 544 602 q 610 683 587 658 q 653 727 632 707 q 693 758 675 746 q 728 780 709 768 q 768 801 747 791 q 809 817 788 810 q 850 823 829 823 q 891 814 872 823 q 926 791 911 806 q 949 756 941 777 q 958 714 958 736 q 954 685 958 696 q 945 667 951 673 q 930 659 939 661 q 913 656 922 656 q 886 666 895 656 q 874 685 878 675 q 868 705 871 696 q 860 714 866 714 q 801 697 834 714 q 736 655 768 680 q 676 603 705 631 q 631 555 648 576 q 572 458 593 507 q 551 357 551 410 q 568 294 551 317 q 611 270 584 270 q 679 278 646 270 q 743 299 711 286 q 807 329 775 312 q 869 366 838 347 l 884 366 q 901 362 893 366 q 916 351 909 357 q 925 336 922 345 q 928 319 928 328 q 916 285 928 302 q 883 252 903 268 q 837 221 863 235 q 787 196 812 207 q 740 177 762 184 q 703 167 718 169 q 684 163 693 165 q 665 161 675 162 q 640 160 654 160 q 605 159 626 159 q 571 164 589 159 q 536 177 553 168 q 504 199 519 186 q 478 228 489 212 m 155 363 q 216 516 174 437 q 315 671 258 595 q 442 814 372 747 q 587 933 511 882 q 741 1015 663 985 q 895 1044 820 1044 q 932 1041 916 1044 q 963 1035 948 1038 q 1009 1026 989 1029 q 1047 1021 1029 1023 q 1083 1015 1065 1019 q 1124 1002 1101 1010 q 1163 978 1145 994 q 1197 943 1182 962 q 1224 904 1213 924 q 1243 869 1236 885 q 1280 757 1266 814 q 1293 637 1293 699 q 1277 511 1293 572 q 1234 395 1261 450 q 1212 356 1225 376 q 1185 317 1199 336 q 1155 280 1171 298 q 1126 248 1140 262 q 989 124 1063 181 q 834 25 915 67 q 670 -40 754 -16 q 505 -64 587 -64 q 448 -60 480 -64 q 382 -48 415 -56 q 294 -12 338 -37 q 216 53 250 14 q 160 140 181 91 q 138 248 138 189 q 142 303 138 275 q 155 363 146 332 m 252 349 q 240 293 245 321 q 235 237 235 264 q 238 198 235 216 q 252 163 241 179 q 298 106 273 132 q 357 64 324 81 q 429 39 389 47 q 518 30 469 30 q 669 55 594 30 q 817 126 745 81 q 902 184 858 152 q 988 254 946 216 q 1067 333 1029 291 q 1132 418 1104 374 q 1177 508 1160 463 q 1193 600 1193 554 q 1188 667 1193 631 q 1172 740 1183 703 q 1143 810 1160 776 q 1100 870 1125 844 q 1042 912 1076 896 q 968 928 1009 928 l 965 928 q 928 921 946 921 q 911 927 919 921 q 902 942 904 933 q 809 926 856 941 q 719 888 762 911 q 626 829 674 863 q 531 754 578 795 q 440 665 484 713 q 359 566 396 618 q 294 460 322 515 q 252 349 267 405 z "},"ª":{"ha":539,"x_min":216,"x_max":696,"o":"m 507 549 q 511 581 507 564 q 514 620 514 597 q 514 627 514 623 q 513 635 514 631 q 472 604 494 621 q 429 572 451 587 q 386 547 407 557 q 344 537 364 537 q 286 545 310 537 q 245 567 261 553 q 223 601 230 581 q 216 646 216 621 q 234 739 216 692 q 281 828 252 785 q 350 907 311 870 q 431 972 389 944 q 489 997 459 991 q 547 1002 519 1002 q 575 1001 561 1002 q 602 998 590 999 q 617 1000 605 998 q 639 1002 630 1002 q 666 998 655 1002 q 684 987 677 994 q 694 971 691 981 q 696 953 696 962 q 691 921 696 935 q 683 902 686 907 l 616 637 q 614 609 615 619 q 612 592 613 599 q 610 578 612 585 q 607 562 609 572 q 603 549 606 556 q 595 535 600 541 q 586 524 591 528 q 575 519 581 519 l 554 519 q 530 521 539 519 q 516 527 521 523 q 509 536 511 531 q 507 549 507 542 m 327 705 q 323 685 326 697 q 321 661 321 673 q 326 634 321 646 q 343 623 330 623 q 387 631 368 623 q 422 653 406 640 q 484 705 455 678 q 534 761 513 731 q 569 826 556 791 q 581 903 581 861 q 579 917 581 910 q 570 924 577 924 q 488 902 528 924 q 415 848 448 881 q 359 778 382 816 q 327 705 336 739 z "},"¬":{"ha":845,"x_min":137,"x_max":897,"o":"m 675 250 q 690 304 681 277 q 710 360 700 332 q 730 415 720 387 q 746 472 739 444 l 755 512 l 755 513 q 756 513 755 513 q 756 514 756 513 q 753 521 756 517 q 725 518 741 521 q 691 512 709 515 q 654 504 673 508 q 622 496 636 499 l 195 407 l 184 407 q 148 422 159 407 q 137 460 137 438 q 142 491 137 478 q 156 513 147 505 q 177 527 165 522 q 202 534 189 532 q 477 588 338 560 q 749 642 615 616 q 762 645 753 642 q 783 651 771 648 q 807 657 795 654 q 828 662 819 660 q 838 663 833 663 q 859 658 848 663 q 878 644 869 652 q 892 627 886 636 q 897 610 897 617 l 897 606 q 895 597 896 603 q 892 581 895 591 q 887 557 890 568 q 883 538 885 547 q 877 517 880 528 q 869 492 874 507 q 861 465 867 485 q 846 419 854 446 q 827 363 838 393 q 808 306 817 334 q 791 256 799 279 q 778 223 783 234 q 768 203 774 213 q 754 184 762 193 q 736 171 746 176 q 714 165 726 165 q 677 178 687 165 q 668 208 668 190 q 670 228 668 217 q 675 250 672 239 z "},"­":{"ha":516,"x_min":134,"x_max":544,"o":"m 140 338 q 146 353 141 345 q 157 371 151 362 q 170 386 163 380 q 184 392 177 392 l 281 392 q 326 395 302 392 q 373 401 349 397 q 421 407 397 404 q 470 410 446 410 q 526 404 507 410 q 544 377 544 399 q 531 333 544 351 q 496 304 518 315 q 445 288 475 293 q 382 282 415 282 q 328 272 355 276 q 276 265 301 267 q 230 261 251 262 q 194 260 209 260 q 170 261 181 260 q 151 267 159 262 q 139 279 143 271 q 134 302 134 288 q 140 338 134 315 z "},"®":{"ha":1246,"x_min":143,"x_max":1309,"o":"m 157 372 q 238 552 183 469 q 365 706 292 635 q 521 834 437 777 q 690 937 605 892 q 730 956 709 948 q 775 968 751 963 q 805 994 786 982 q 850 1006 825 1006 q 867 1005 854 1006 q 895 1002 879 1004 q 928 998 911 1000 q 962 991 946 995 q 1105 945 1041 973 q 1214 877 1169 918 q 1284 780 1259 836 q 1309 649 1309 724 q 1277 462 1309 551 q 1190 296 1245 372 q 1061 157 1135 219 q 903 51 987 95 q 728 -17 819 7 q 551 -41 638 -41 q 394 -23 468 -41 q 264 33 319 -5 q 176 128 208 71 q 143 264 143 186 q 146 316 143 290 q 157 372 150 343 m 247 330 q 239 295 243 315 q 235 257 235 275 q 250 191 235 220 q 291 139 265 161 q 350 100 317 116 q 420 73 383 83 q 493 58 456 63 q 562 54 530 54 q 711 75 635 54 q 859 133 787 96 q 830 199 846 168 q 791 258 813 231 q 739 306 768 285 q 672 339 710 326 l 663 339 q 640 336 649 339 q 616 333 631 333 q 607 335 612 333 q 600 340 603 338 l 580 262 q 573 236 578 254 q 562 197 568 218 q 550 156 556 176 q 541 126 545 136 q 517 103 528 111 q 491 96 507 96 q 459 109 468 96 q 450 140 450 122 q 451 154 450 147 q 454 168 452 161 l 549 536 q 556 562 553 550 q 561 587 559 574 q 565 613 564 600 q 568 644 567 627 q 565 654 566 649 q 564 667 564 660 q 566 683 564 675 q 574 710 570 699 q 586 730 578 722 q 605 742 594 738 q 634 746 616 746 q 671 740 652 746 q 709 733 689 733 q 726 734 717 733 q 746 736 735 735 q 771 739 758 738 q 803 740 785 740 q 856 736 827 740 q 910 723 885 732 q 955 696 936 713 q 980 653 975 679 q 984 630 983 639 q 985 616 985 622 l 985 609 q 985 603 985 606 q 983 596 985 600 q 959 544 976 570 q 920 495 941 517 q 877 456 899 473 q 837 431 854 439 q 811 418 821 422 q 795 411 801 413 q 786 407 789 408 q 781 405 783 406 l 779 405 q 829 375 806 392 q 874 334 852 358 q 917 277 897 309 q 960 201 938 244 l 960 199 q 1056 286 1010 237 q 1135 388 1101 334 q 1188 501 1168 442 q 1208 619 1208 559 q 1193 705 1208 667 q 1151 772 1178 743 q 1085 824 1123 802 q 1000 860 1046 846 q 978 819 993 836 q 938 801 962 801 q 930 801 934 801 q 924 802 927 802 q 909 828 916 817 q 892 846 901 839 q 870 857 882 853 q 839 861 857 861 q 766 848 804 861 q 696 818 729 835 q 601 763 649 794 q 508 694 553 732 q 420 614 462 657 q 345 525 379 572 q 285 430 311 479 q 247 330 260 380 m 779 631 q 723 625 750 631 q 676 615 695 620 q 666 581 672 602 q 653 535 660 560 q 638 483 646 510 q 623 431 630 456 q 642 442 631 437 q 662 451 652 448 q 705 468 682 457 q 751 490 728 478 q 793 514 774 502 q 825 536 813 526 q 826 538 826 537 q 828 539 827 538 q 863 569 847 554 q 879 600 879 584 q 871 617 879 610 q 829 628 852 626 q 779 631 806 631 z "},"¯":{"ha":734,"x_min":361,"x_max":794,"o":"m 363 823 q 370 838 365 829 q 381 857 374 848 q 395 871 387 865 q 408 878 402 878 l 541 878 q 585 880 563 878 q 629 886 606 883 q 674 892 651 889 q 721 895 696 895 q 777 889 759 895 q 794 861 794 883 q 782 817 794 833 q 748 793 769 801 q 697 782 726 785 q 635 780 668 780 q 530 763 581 768 q 448 758 479 758 q 419 759 434 758 q 391 766 404 761 q 369 781 378 772 q 361 807 361 791 q 363 823 361 813 z "},"°":{"ha":588,"x_min":241,"x_max":745,"o":"m 250 773 q 275 840 258 804 q 318 910 291 875 q 384 981 345 946 q 475 1044 422 1015 q 528 1065 498 1060 q 587 1071 558 1071 q 638 1065 616 1071 q 677 1046 661 1059 q 708 1014 694 1033 q 732 970 721 995 q 742 940 739 955 q 745 910 745 924 q 731 827 745 870 q 692 743 718 784 q 632 665 667 702 q 553 600 596 629 q 408 558 496 558 q 335 569 366 558 q 282 599 303 580 q 252 646 262 618 q 241 707 241 673 q 243 739 241 723 q 250 773 245 755 m 352 769 q 347 745 348 756 q 345 722 345 733 q 363 669 345 690 q 422 648 380 648 q 497 668 463 648 q 556 716 530 687 q 598 779 582 745 q 623 840 615 812 q 630 874 627 858 q 632 901 632 890 q 610 951 632 936 q 548 966 589 966 q 496 950 525 966 q 439 907 467 934 q 388 844 412 880 q 352 769 364 808 z "},"±":{"ha":821,"x_min":130,"x_max":874,"o":"m 385 241 q 389 251 387 243 q 395 265 391 258 q 401 283 398 273 q 407 306 404 294 q 412 331 410 318 q 418 356 415 344 q 397 354 408 355 q 373 351 386 353 q 343 349 359 350 q 307 348 327 348 q 264 349 286 348 q 225 356 243 350 q 197 374 208 361 q 186 408 186 386 q 192 439 186 427 q 204 460 197 452 q 218 472 211 469 q 227 477 224 475 l 426 485 q 455 491 444 486 q 471 512 467 497 l 536 747 q 550 763 538 755 q 574 770 562 770 q 596 762 585 770 q 616 741 608 753 q 630 712 625 728 q 635 683 635 697 q 633 666 635 674 q 622 626 629 652 q 606 574 614 600 q 587 510 597 543 q 613 515 596 511 q 650 524 630 519 q 693 534 671 528 q 736 544 716 539 q 773 553 757 549 q 798 559 789 557 q 810 562 802 560 q 825 564 817 563 q 839 566 833 566 q 845 567 844 567 q 867 554 859 567 q 874 525 874 541 q 869 497 874 509 q 856 477 864 485 q 836 464 847 469 q 814 455 825 458 l 755 437 q 678 414 713 424 q 615 396 643 404 q 570 382 588 389 q 544 372 551 376 q 538 360 541 368 q 532 343 535 352 q 526 326 529 334 q 522 314 524 318 q 518 301 521 310 q 511 279 515 292 q 503 253 507 267 q 494 223 498 238 q 485 197 490 211 q 472 172 480 184 q 452 153 464 161 q 424 145 441 145 q 389 162 399 145 q 379 201 379 179 q 383 233 379 218 l 385 241 m 134 47 q 155 75 138 64 q 186 86 171 86 q 216 84 203 86 q 246 77 228 82 q 323 86 282 81 q 405 96 363 91 q 486 106 446 101 q 558 115 525 111 q 614 122 591 119 q 648 124 638 124 q 673 122 661 124 q 696 115 686 120 q 712 102 706 111 q 718 81 718 94 q 710 54 718 66 q 691 33 703 42 q 665 19 679 24 q 638 10 650 13 q 609 5 629 8 q 564 -2 589 1 q 509 -10 538 -6 q 452 -18 480 -14 q 380 -28 407 -24 q 335 -35 353 -32 q 304 -39 317 -37 q 276 -42 292 -41 q 236 -46 260 -44 q 173 -52 212 -49 q 140 -25 151 -41 q 130 14 130 -9 q 134 47 130 30 z "},"²":{"ha":678,"x_min":213,"x_max":759,"o":"m 757 507 q 713 458 747 472 q 623 441 680 444 q 542 427 583 436 q 458 407 500 418 q 376 383 416 395 q 302 358 336 370 l 278 350 q 269 348 274 349 q 257 348 264 348 q 239 354 248 348 q 225 369 231 360 q 216 390 220 378 q 213 410 213 401 q 220 431 213 421 q 237 448 227 440 q 260 463 248 456 q 284 475 273 469 q 360 519 325 497 q 426 566 395 542 q 484 618 456 591 q 537 680 511 646 q 596 766 570 722 q 632 850 623 809 q 633 856 633 853 q 633 862 633 859 q 613 898 633 884 q 564 911 593 911 q 514 905 536 911 q 473 892 491 900 q 412 845 441 872 q 366 783 382 819 q 362 755 363 767 q 360 733 361 743 q 359 710 360 722 q 354 682 358 699 q 343 662 351 671 q 325 646 335 652 q 305 635 315 639 q 290 631 296 631 q 267 636 276 631 q 251 649 257 641 q 243 669 245 658 q 241 692 241 680 q 244 724 241 708 q 250 752 247 741 q 263 803 257 777 q 284 854 269 829 q 335 918 303 887 q 404 972 366 949 q 485 1010 442 996 q 570 1025 528 1025 q 635 1015 605 1025 q 688 986 666 1004 q 723 940 711 967 q 736 878 736 913 q 715 787 736 834 q 664 695 694 741 q 597 610 633 650 q 530 538 561 570 l 522 531 q 584 539 551 533 q 646 555 617 545 q 672 563 658 559 q 699 567 686 567 q 744 554 730 567 q 759 521 759 541 q 757 507 759 513 z "},"³":{"ha":644,"x_min":178,"x_max":739,"o":"m 178 378 q 182 395 178 385 q 194 414 186 405 q 212 430 202 424 q 235 437 222 437 q 247 435 239 437 q 259 431 255 433 l 269 425 q 296 409 280 417 q 332 401 313 401 q 364 403 342 401 q 414 413 386 406 q 473 433 442 420 q 532 467 504 446 q 583 518 560 488 q 615 590 605 548 q 616 596 616 593 q 616 602 616 599 q 609 625 616 615 q 591 640 602 634 q 566 649 580 646 q 540 652 553 652 q 511 648 526 652 q 481 640 496 644 q 454 631 467 635 q 429 627 440 627 q 394 639 408 627 q 381 669 381 651 q 391 696 381 686 q 415 715 400 706 l 459 742 q 519 782 488 760 q 574 828 549 804 q 615 876 600 852 q 631 922 631 901 q 623 941 631 932 q 597 949 614 949 q 542 936 575 949 q 474 903 509 924 q 406 857 439 882 q 353 804 374 831 q 344 778 350 794 q 330 747 338 762 q 311 721 321 732 q 290 710 301 710 q 268 716 276 710 q 254 731 259 722 q 247 753 249 741 q 245 778 245 765 q 249 816 245 799 q 257 846 252 833 q 265 865 261 858 q 271 874 269 873 q 341 939 298 907 q 434 998 385 972 q 537 1040 484 1024 q 636 1056 589 1056 q 681 1047 661 1056 q 713 1024 700 1039 q 732 991 726 1010 q 739 952 739 972 q 730 902 739 928 q 704 849 720 876 q 666 798 688 823 q 620 752 644 772 q 661 737 641 747 q 695 713 680 728 q 720 678 711 698 q 729 631 729 658 q 724 591 729 614 q 671 482 709 534 q 578 390 633 430 q 457 325 524 349 q 319 301 390 301 q 267 306 292 301 q 222 319 242 310 q 191 343 203 328 q 178 378 178 357 z "},"´":{"ha":734,"x_min":514,"x_max":860,"o":"m 859 913 q 833 865 851 883 q 789 833 815 846 l 576 727 q 543 720 564 720 q 521 727 528 720 q 514 746 514 734 q 520 772 514 760 q 534 793 526 783 q 553 809 543 802 q 572 822 564 817 l 623 852 q 687 891 656 871 q 745 925 718 910 q 794 950 772 941 q 828 960 816 960 q 851 951 842 960 q 860 926 860 941 q 860 919 860 922 q 859 913 860 916 z "},"¶":{"ha":916,"x_min":73,"x_max":745,"o":"m 401 -147 q 401 -70 401 -118 q 403 36 402 -22 q 405 157 404 94 q 407 278 406 220 q 409 386 408 336 q 410 466 410 435 l 410 544 l 408 546 q 374 519 390 531 q 342 498 359 507 q 305 485 325 490 q 260 480 286 480 q 198 489 223 480 q 153 515 172 498 q 119 557 134 532 q 90 616 104 583 q 75 673 77 644 q 73 732 73 702 q 86 839 73 791 q 120 924 99 887 q 168 987 142 961 q 222 1031 195 1014 q 274 1057 249 1048 q 317 1065 299 1065 q 363 1060 345 1065 q 399 1049 382 1056 q 424 1053 414 1049 q 448 1056 434 1056 q 477 1049 463 1056 q 505 1031 492 1042 q 524 1006 517 1020 q 532 978 532 992 l 532 772 q 531 690 532 734 q 530 594 531 645 q 529 489 530 544 q 528 377 529 434 q 526 199 527 288 q 526 19 526 110 q 528 -212 526 -96 q 509 -231 522 -223 q 488 -238 496 -238 q 422 -215 444 -238 q 401 -147 401 -191 m 616 -130 q 617 -117 616 -127 q 620 -96 618 -107 q 622 -74 621 -84 q 623 -62 623 -64 l 623 435 q 622 558 623 498 q 619 676 621 618 q 615 794 617 735 q 610 916 612 853 l 608 962 q 607 969 608 962 q 604 985 606 977 q 602 1002 603 994 q 601 1013 601 1010 l 601 1031 q 610 1059 601 1051 q 640 1067 619 1067 q 695 1057 675 1067 q 727 1031 716 1048 q 741 992 738 1015 q 745 943 745 970 q 742 937 745 939 l 742 604 q 742 588 742 596 q 745 571 743 579 l 745 -157 q 738 -187 745 -175 q 723 -207 732 -199 q 704 -216 713 -214 q 687 -219 694 -219 q 658 -211 671 -219 q 635 -189 645 -202 q 621 -161 626 -176 q 616 -130 616 -145 z "},"¸":{"ha":486,"x_min":71,"x_max":313,"o":"m 71 -224 q 81 -190 71 -206 q 113 -174 90 -174 q 126 -176 120 -174 q 141 -179 133 -179 q 161 -175 149 -179 q 185 -165 173 -172 q 205 -151 197 -159 q 214 -134 214 -142 q 168 -99 214 -113 q 133 -83 144 -95 q 122 -58 122 -72 q 135 -26 122 -41 q 164 20 151 -3 q 193 67 178 43 q 217 89 202 83 q 242 96 231 96 q 272 83 261 96 q 282 56 282 70 q 278 41 282 47 q 259 11 269 26 q 243 -19 250 -4 q 270 -36 257 -26 q 293 -56 283 -45 q 308 -81 302 -67 q 313 -111 313 -94 q 295 -174 313 -145 q 249 -224 276 -203 q 190 -257 221 -245 q 132 -269 158 -269 q 109 -266 120 -269 q 90 -259 98 -264 q 76 -245 81 -254 q 71 -224 71 -237 z "},"¹":{"ha":487,"x_min":217,"x_max":598,"o":"m 389 369 q 351 383 363 369 q 338 417 338 397 q 339 427 338 422 q 341 437 340 432 l 444 840 q 379 797 410 819 q 317 753 349 774 q 291 740 306 745 q 266 736 277 736 q 229 751 240 736 q 217 785 217 766 q 227 823 217 810 q 243 842 236 836 q 274 856 254 846 q 317 881 294 867 q 366 912 340 895 q 414 947 391 930 q 456 982 437 965 q 484 1012 474 998 q 495 1026 490 1020 q 506 1037 500 1032 q 519 1043 511 1041 q 536 1046 526 1046 q 555 1041 545 1046 q 575 1027 566 1036 q 592 1006 585 1018 q 598 979 598 994 q 597 964 598 971 q 593 947 595 956 q 571 870 584 909 q 546 792 559 831 q 519 714 532 753 q 497 637 507 675 q 485 582 490 609 q 477 528 481 555 q 468 473 473 500 q 457 418 464 446 q 448 402 455 410 q 432 386 441 393 q 411 374 422 378 q 389 369 399 369 z "},"º":{"ha":588,"x_min":229,"x_max":728,"o":"m 237 721 q 262 786 245 751 q 307 857 279 821 q 373 928 335 893 q 462 993 412 963 q 471 998 465 995 q 486 1003 477 1000 q 503 1008 494 1006 q 522 1010 513 1010 q 547 1026 533 1019 q 576 1032 562 1032 q 661 1004 627 1031 q 720 914 695 976 q 726 884 725 901 q 728 850 728 868 q 714 768 728 810 q 677 686 701 726 q 617 611 652 646 q 539 548 583 575 q 395 505 482 505 q 322 516 353 505 q 270 547 290 527 q 239 594 249 566 q 229 654 229 621 q 237 721 229 686 m 338 716 q 332 671 332 692 q 350 617 332 638 q 410 597 368 597 q 474 611 445 597 q 527 648 503 625 q 568 698 550 670 q 597 753 585 726 q 614 805 608 781 q 620 845 620 829 q 617 866 620 854 q 609 889 614 878 q 599 913 604 901 q 589 936 593 925 q 579 923 585 928 q 564 914 574 918 q 537 907 553 910 q 494 901 521 904 q 444 872 469 893 q 396 823 418 850 q 360 768 375 796 q 338 716 345 739 z "},"¼":{"ha":1360,"x_min":182,"x_max":1347,"o":"m 353 369 q 316 383 328 369 q 303 417 303 397 q 304 427 303 422 q 306 437 304 432 l 409 840 q 344 797 375 819 q 282 753 313 774 q 256 740 271 745 q 231 736 241 736 q 193 751 205 736 q 182 785 182 766 q 191 823 182 810 q 208 842 201 836 q 239 856 219 846 q 282 881 258 867 q 331 912 305 895 q 379 947 356 930 q 420 982 402 965 q 449 1012 439 998 q 460 1026 455 1020 q 470 1037 465 1032 q 484 1043 476 1041 q 501 1046 491 1046 q 520 1041 509 1046 q 540 1027 530 1036 q 556 1006 550 1018 q 563 979 563 994 q 562 964 563 971 q 558 947 560 956 q 536 870 549 909 q 510 792 524 831 q 484 714 497 753 q 462 637 471 675 q 450 582 454 609 q 441 528 446 555 q 433 473 437 500 q 422 418 429 446 q 413 402 420 410 q 396 386 406 393 q 375 374 387 378 q 353 369 364 369 m 268 -131 q 236 -122 250 -131 q 222 -94 222 -114 q 223 -84 222 -90 q 231 -67 225 -78 q 246 -42 235 -59 q 273 -2 258 -24 q 308 45 289 20 q 345 95 326 70 q 379 143 363 120 q 408 184 395 166 l 842 815 q 883 883 861 844 q 925 961 905 922 q 938 986 931 973 q 954 1009 945 998 q 976 1027 963 1020 q 1004 1034 988 1034 q 1025 1031 1015 1034 q 1045 1025 1036 1029 q 1059 1011 1053 1020 q 1064 991 1064 1003 q 1047 938 1064 967 q 1010 878 1031 908 l 340 -103 q 324 -119 333 -113 q 306 -127 315 -125 q 286 -131 296 -130 q 268 -131 277 -131 m 990 50 q 1002 94 996 75 q 1012 128 1007 113 q 1021 157 1017 143 q 1029 188 1025 172 q 978 175 1004 179 q 929 171 951 171 q 864 180 890 171 q 822 205 838 189 q 800 241 806 221 q 793 284 793 262 q 795 309 793 296 q 800 332 796 321 q 825 409 811 374 q 853 477 840 444 q 863 499 858 489 q 873 521 868 510 q 882 545 878 532 q 892 573 887 557 q 899 582 894 577 q 911 589 904 586 q 926 595 918 593 q 939 597 933 597 l 950 597 q 986 586 972 597 q 1000 554 1000 574 q 998 532 1000 541 q 981 489 992 512 q 957 440 970 465 q 932 390 944 416 q 913 340 920 365 q 909 309 909 321 q 917 286 909 292 q 937 279 926 279 q 970 282 951 279 q 1009 290 989 285 q 1048 303 1029 295 q 1082 320 1067 311 l 1238 665 q 1248 677 1241 672 q 1262 685 1255 682 q 1278 690 1270 688 q 1291 691 1285 691 q 1315 685 1304 691 q 1332 668 1325 678 q 1343 646 1339 658 q 1347 623 1347 634 q 1343 609 1347 618 q 1332 588 1339 600 q 1318 563 1326 576 q 1303 536 1310 549 l 1299 528 q 1282 496 1293 517 q 1261 452 1272 475 q 1238 405 1249 429 q 1221 366 1227 382 l 1247 370 q 1259 372 1253 372 q 1282 372 1266 372 q 1305 366 1299 372 q 1311 349 1311 360 q 1305 320 1311 332 q 1288 298 1299 307 q 1261 282 1276 289 q 1227 269 1246 275 l 1219 266 q 1176 247 1192 256 q 1159 229 1161 237 q 1140 183 1149 208 q 1122 131 1131 158 q 1107 75 1114 103 q 1100 20 1101 46 l 1098 -18 q 1074 -62 1090 -48 q 1031 -75 1057 -75 q 1005 -71 1015 -75 q 990 -58 996 -66 q 982 -40 984 -50 q 979 -18 979 -29 q 983 15 979 -1 q 989 46 986 31 l 990 50 z "},"½":{"ha":1360,"x_min":182,"x_max":1295,"o":"m 353 369 q 316 383 328 369 q 303 417 303 397 q 304 427 303 422 q 306 437 304 432 l 409 840 q 344 797 375 819 q 282 753 313 774 q 256 740 271 745 q 231 736 241 736 q 193 751 205 736 q 182 785 182 766 q 191 823 182 810 q 208 842 201 836 q 239 856 219 846 q 282 881 258 867 q 331 912 305 895 q 379 947 356 930 q 420 982 402 965 q 449 1012 439 998 q 460 1026 455 1020 q 470 1037 465 1032 q 484 1043 476 1041 q 501 1046 491 1046 q 520 1041 509 1046 q 540 1027 530 1036 q 556 1006 550 1018 q 563 979 563 994 q 562 964 563 971 q 558 947 560 956 q 536 870 549 909 q 510 792 524 831 q 484 714 497 753 q 462 637 471 675 q 450 582 454 609 q 441 528 446 555 q 433 473 437 500 q 422 418 429 446 q 413 402 420 410 q 396 386 406 393 q 375 374 387 378 q 353 369 364 369 m 268 -131 q 236 -122 250 -131 q 222 -94 222 -114 q 223 -84 222 -90 q 231 -67 225 -78 q 246 -42 235 -59 q 273 -2 258 -24 q 308 45 289 20 q 345 95 326 70 q 379 143 363 120 q 408 184 395 166 l 842 815 q 883 883 861 844 q 925 961 905 922 q 938 986 931 973 q 954 1009 945 998 q 976 1027 963 1020 q 1004 1034 988 1034 q 1025 1031 1015 1034 q 1045 1025 1036 1029 q 1059 1011 1053 1020 q 1064 991 1064 1003 q 1047 938 1064 967 q 1010 878 1031 908 l 340 -103 q 324 -119 333 -113 q 306 -127 315 -125 q 286 -131 296 -130 q 268 -131 277 -131 m 1293 86 q 1250 38 1283 52 q 1159 21 1217 24 q 1078 6 1120 16 q 995 -14 1036 -3 q 913 -38 953 -25 q 838 -62 873 -50 l 814 -71 q 806 -72 810 -72 q 793 -73 801 -73 q 776 -66 784 -73 q 762 -51 768 -60 q 753 -31 756 -42 q 749 -10 749 -20 q 756 10 749 1 q 773 28 763 20 q 797 42 784 36 q 821 54 809 49 q 896 99 861 77 q 962 146 931 121 q 1020 198 993 170 q 1074 260 1048 226 q 1133 345 1106 302 q 1168 429 1159 389 q 1170 435 1169 433 q 1170 441 1170 438 q 1149 477 1170 464 q 1100 490 1129 490 q 1050 485 1073 490 q 1010 471 1027 479 q 948 425 977 452 q 903 363 919 398 q 898 335 899 347 q 897 312 897 323 q 896 290 897 302 q 890 261 895 278 q 880 241 888 250 q 861 225 871 232 q 842 214 851 218 q 827 210 832 210 q 803 215 812 210 q 788 229 793 220 q 780 248 782 237 q 778 271 778 259 q 781 304 778 288 q 787 332 783 320 q 800 383 793 357 q 821 433 806 409 q 871 497 840 467 q 941 552 903 528 q 1021 590 979 576 q 1106 604 1064 604 q 1172 594 1141 604 q 1225 565 1202 584 q 1260 519 1247 547 q 1272 458 1272 492 q 1252 367 1272 414 q 1200 275 1231 320 q 1133 190 1169 230 q 1066 118 1097 149 l 1059 111 q 1120 119 1087 113 q 1183 135 1154 125 q 1208 143 1194 139 q 1236 146 1222 146 q 1281 133 1266 146 q 1295 100 1295 120 q 1293 86 1295 93 z "},"¾":{"ha":1482,"x_min":141,"x_max":1470,"o":"m 141 378 q 145 395 141 385 q 157 414 149 405 q 175 430 165 424 q 197 437 185 437 q 210 435 201 437 q 222 431 218 433 l 231 425 q 259 409 243 417 q 294 401 275 401 q 327 403 304 401 q 377 413 349 406 q 436 433 405 420 q 495 467 467 446 q 545 518 523 488 q 578 590 568 548 q 579 596 578 593 q 579 602 579 599 q 572 625 579 615 q 554 640 565 634 q 529 649 543 646 q 503 652 515 652 q 473 648 488 652 q 444 640 458 644 q 416 631 430 635 q 391 627 403 627 q 357 639 370 627 q 344 669 344 651 q 353 696 344 686 q 378 715 363 706 l 422 742 q 481 782 451 760 q 537 828 512 804 q 578 876 562 852 q 594 922 594 901 q 585 941 594 932 q 559 949 576 949 q 505 936 538 949 q 437 903 472 924 q 369 857 401 882 q 315 804 336 831 q 307 778 313 794 q 293 747 301 762 q 274 721 284 732 q 252 710 264 710 q 230 716 239 710 q 217 731 222 722 q 210 753 212 741 q 208 778 208 765 q 211 816 208 799 q 219 846 215 833 q 228 865 224 858 q 233 874 232 873 q 304 939 261 907 q 397 998 347 972 q 499 1040 447 1024 q 599 1056 552 1056 q 643 1047 624 1056 q 675 1024 663 1039 q 695 991 688 1010 q 702 952 702 972 q 692 902 702 928 q 667 849 683 876 q 629 798 650 823 q 583 752 607 772 q 623 737 604 747 q 658 713 643 728 q 683 678 673 698 q 692 631 692 658 q 686 591 692 614 q 634 482 672 534 q 541 390 595 430 q 419 325 486 349 q 281 301 353 301 q 230 306 255 301 q 185 319 205 310 q 153 343 165 328 q 141 378 141 357 m 391 -131 q 359 -122 374 -131 q 345 -94 345 -114 q 347 -84 345 -90 q 354 -67 349 -78 q 370 -42 358 -59 q 397 -2 381 -24 q 431 45 412 20 q 468 95 450 70 q 503 143 486 120 q 531 184 519 166 l 965 815 q 1007 883 985 844 q 1048 961 1029 922 q 1061 986 1055 973 q 1077 1009 1068 998 q 1099 1027 1086 1020 q 1128 1034 1112 1034 q 1149 1031 1138 1034 q 1168 1025 1160 1029 q 1182 1011 1177 1020 q 1187 991 1187 1003 q 1171 938 1187 967 q 1134 878 1154 908 l 464 -103 q 448 -119 456 -113 q 429 -127 439 -125 q 410 -131 419 -130 q 391 -131 400 -131 m 1113 50 q 1124 94 1119 75 q 1135 128 1130 113 q 1143 157 1139 143 q 1152 188 1147 172 q 1100 175 1126 179 q 1052 171 1074 171 q 987 180 1013 171 q 945 205 961 189 q 923 241 929 221 q 916 284 916 262 q 918 309 916 296 q 922 332 919 321 q 948 409 934 374 q 976 477 962 444 q 986 499 981 489 q 996 521 991 510 q 1005 545 1000 532 q 1015 573 1010 557 q 1022 582 1017 577 q 1034 589 1027 586 q 1048 595 1041 593 q 1062 597 1056 597 l 1073 597 q 1109 586 1095 597 q 1123 554 1123 574 q 1120 532 1123 541 q 1104 489 1115 512 q 1080 440 1093 465 q 1055 390 1067 416 q 1036 340 1042 365 q 1031 309 1031 321 q 1040 286 1031 292 q 1059 279 1048 279 q 1093 282 1074 279 q 1132 290 1112 285 q 1171 303 1152 295 q 1204 320 1190 311 l 1360 665 q 1371 677 1364 672 q 1385 685 1377 682 q 1400 690 1393 688 q 1413 691 1408 691 q 1437 685 1427 691 q 1455 668 1448 678 q 1466 646 1462 658 q 1470 623 1470 634 q 1466 609 1470 618 q 1455 588 1461 600 q 1441 563 1449 576 q 1426 536 1433 549 l 1421 528 q 1405 496 1415 517 q 1383 452 1395 475 q 1361 405 1372 429 q 1343 366 1350 382 l 1370 370 q 1382 372 1375 372 q 1404 372 1389 372 q 1428 366 1421 372 q 1434 349 1434 360 q 1428 320 1434 332 q 1410 298 1421 307 q 1384 282 1399 289 q 1350 269 1369 275 l 1342 266 q 1299 247 1314 256 q 1282 229 1284 237 q 1263 183 1272 208 q 1245 131 1253 158 q 1230 75 1236 103 q 1223 20 1224 46 l 1221 -18 q 1196 -62 1213 -48 q 1154 -75 1179 -75 q 1128 -71 1138 -75 q 1113 -58 1118 -66 q 1104 -40 1107 -50 q 1102 -18 1102 -29 q 1105 15 1102 -1 q 1112 46 1109 31 l 1113 50 z "},"¿":{"ha":755,"x_min":18,"x_max":696,"o":"m 488 327 q 513 315 502 327 q 531 286 524 303 q 542 247 538 268 q 545 207 545 225 q 536 158 545 176 q 498 123 526 139 q 478 111 493 120 q 443 90 463 102 q 400 63 423 77 q 355 35 376 49 q 316 11 334 22 q 288 -7 298 -1 q 245 -38 270 -19 q 197 -79 220 -56 q 158 -126 174 -101 q 142 -177 142 -152 q 147 -202 142 -190 q 158 -223 151 -214 q 174 -238 165 -233 q 193 -244 183 -244 q 287 -234 239 -244 q 382 -207 335 -224 q 475 -165 429 -189 q 564 -113 521 -141 l 564 -113 q 575 -104 567 -111 q 594 -93 584 -98 q 615 -83 604 -87 q 633 -79 625 -79 q 651 -82 641 -79 q 672 -91 662 -85 q 689 -106 682 -97 q 696 -129 696 -116 q 685 -156 696 -142 q 656 -185 673 -170 q 616 -213 638 -199 q 573 -239 595 -227 q 533 -260 551 -251 q 503 -273 514 -269 q 352 -325 425 -305 q 201 -345 278 -345 q 137 -330 170 -345 q 78 -289 104 -315 q 35 -231 52 -264 q 18 -161 18 -197 q 42 -84 18 -122 q 102 -12 66 -46 q 179 52 138 22 q 255 104 220 81 q 269 114 262 109 q 281 122 275 118 q 326 151 302 136 q 370 179 349 165 q 406 204 391 192 q 426 227 422 217 q 430 252 429 241 q 432 273 431 263 l 432 283 q 433 299 432 292 q 439 313 434 307 q 456 323 445 319 q 488 327 467 327 m 431 528 q 440 572 431 551 q 467 609 450 593 q 504 634 483 625 q 549 644 526 644 q 582 637 566 644 q 609 619 597 631 q 627 592 621 608 q 633 559 633 576 q 623 514 633 536 q 595 477 612 493 q 557 451 578 460 q 513 441 535 441 q 480 448 495 441 q 454 466 465 454 q 437 494 443 477 q 431 528 431 510 z "},"À":{"ha":960,"x_min":120,"x_max":975,"o":"m 741 -7 q 716 -2 727 -7 q 698 12 705 3 q 687 33 691 21 q 684 56 684 44 q 689 84 684 66 q 703 124 694 102 q 722 171 711 146 q 741 218 732 195 q 758 259 751 240 q 767 289 764 278 q 774 318 770 301 q 783 355 778 335 q 793 397 788 375 q 804 441 798 419 q 780 438 794 439 q 751 435 766 436 q 707 429 728 433 q 662 419 685 425 q 615 409 640 414 q 563 397 591 403 q 481 377 522 388 q 397 366 441 366 q 372 373 383 366 q 346 384 360 380 q 320 337 332 362 q 298 287 308 313 q 279 235 288 260 q 265 187 271 210 q 259 156 262 175 q 255 116 257 136 q 251 78 253 96 q 247 49 249 60 q 239 29 245 39 q 224 11 233 19 q 204 -2 215 3 q 182 -7 193 -7 q 152 4 163 -7 q 133 32 140 15 q 123 68 125 48 q 120 104 120 87 q 130 190 120 145 q 158 280 140 234 q 198 372 175 326 q 249 465 222 418 q 304 560 271 506 q 379 672 338 614 q 468 784 420 729 q 567 882 515 839 q 673 951 618 925 q 781 978 727 978 q 874 958 837 978 q 935 903 912 937 q 966 822 957 868 q 975 724 975 776 q 969 631 975 679 q 955 536 964 583 q 937 448 947 490 q 919 370 927 405 l 895 278 q 890 262 894 274 q 881 232 886 250 q 868 195 875 215 q 853 156 861 175 q 840 120 846 136 q 829 94 833 104 l 829 94 q 819 58 825 77 q 804 25 814 40 q 780 2 795 11 q 741 -7 765 -7 m 776 842 q 715 829 745 842 q 656 796 685 817 q 599 749 627 776 q 547 693 572 722 q 500 636 522 665 q 461 583 479 607 q 454 572 458 578 q 445 558 450 566 q 437 542 441 550 q 430 526 433 533 l 500 526 q 587 532 538 526 q 683 545 635 537 q 771 560 731 552 q 831 572 811 568 q 837 595 834 581 q 841 629 839 610 q 844 668 843 647 q 845 710 845 688 q 844 750 845 728 q 836 793 842 773 q 815 828 829 814 q 776 842 801 842 m 616 1282 q 637 1315 622 1302 q 669 1328 652 1328 q 692 1324 686 1328 q 705 1316 699 1321 q 758 1271 725 1299 q 830 1211 791 1243 l 857 1189 q 876 1168 867 1181 q 884 1138 884 1156 q 882 1120 884 1129 q 873 1104 879 1111 q 859 1092 867 1097 q 838 1087 850 1087 q 815 1090 825 1087 q 796 1100 806 1094 l 647 1200 q 622 1224 631 1211 q 612 1255 612 1236 q 616 1282 612 1267 z "},"Á":{"ha":960,"x_min":120,"x_max":1053,"o":"m 741 -7 q 716 -2 727 -7 q 698 12 705 3 q 687 33 691 21 q 684 56 684 44 q 689 84 684 66 q 703 124 694 102 q 722 171 711 146 q 741 218 732 195 q 758 259 751 240 q 767 289 764 278 q 774 318 770 301 q 783 355 778 335 q 793 397 788 375 q 804 441 798 419 q 780 438 794 439 q 751 435 766 436 q 707 429 728 433 q 662 419 685 425 q 615 409 640 414 q 563 397 591 403 q 481 377 522 388 q 397 366 441 366 q 372 373 383 366 q 346 384 360 380 q 320 337 332 362 q 298 287 308 313 q 279 235 288 260 q 265 187 271 210 q 259 156 262 175 q 255 116 257 136 q 251 78 253 96 q 247 49 249 60 q 239 29 245 39 q 224 11 233 19 q 204 -2 215 3 q 182 -7 193 -7 q 152 4 163 -7 q 133 32 140 15 q 123 68 125 48 q 120 104 120 87 q 130 190 120 145 q 158 280 140 234 q 198 372 175 326 q 249 465 222 418 q 304 560 271 506 q 379 672 338 614 q 468 784 420 729 q 567 882 515 839 q 673 951 618 925 q 781 978 727 978 q 874 958 837 978 q 935 903 912 937 q 966 822 957 868 q 975 724 975 776 q 969 631 975 679 q 955 536 964 583 q 937 448 947 490 q 919 370 927 405 l 895 278 q 890 262 894 274 q 881 232 886 250 q 868 195 875 215 q 853 156 861 175 q 840 120 846 136 q 829 94 833 104 l 829 94 q 819 58 825 77 q 804 25 814 40 q 780 2 795 11 q 741 -7 765 -7 m 776 842 q 715 829 745 842 q 656 796 685 817 q 599 749 627 776 q 547 693 572 722 q 500 636 522 665 q 461 583 479 607 q 454 572 458 578 q 445 558 450 566 q 437 542 441 550 q 430 526 433 533 l 500 526 q 587 532 538 526 q 683 545 635 537 q 771 560 731 552 q 831 572 811 568 q 837 595 834 581 q 841 629 839 610 q 844 668 843 647 q 845 710 845 688 q 844 750 845 728 q 836 793 842 773 q 815 828 829 814 q 776 842 801 842 m 1052 1279 q 1026 1231 1044 1249 q 982 1199 1008 1213 l 769 1093 q 736 1086 757 1086 q 714 1094 721 1086 q 707 1112 707 1101 q 713 1138 707 1126 q 728 1159 719 1149 q 747 1176 736 1168 q 765 1188 757 1183 l 817 1219 q 880 1257 849 1238 q 939 1292 911 1276 q 987 1317 966 1307 q 1021 1326 1009 1326 q 1044 1317 1035 1326 q 1053 1292 1053 1308 q 1053 1285 1053 1289 q 1052 1279 1053 1282 z "},"Â":{"ha":960,"x_min":120,"x_max":1027,"o":"m 741 -7 q 716 -2 727 -7 q 698 12 705 3 q 687 33 691 21 q 684 56 684 44 q 689 84 684 66 q 703 124 694 102 q 722 171 711 146 q 741 218 732 195 q 758 259 751 240 q 767 289 764 278 q 774 318 770 301 q 783 355 778 335 q 793 397 788 375 q 804 441 798 419 q 780 438 794 439 q 751 435 766 436 q 707 429 728 433 q 662 419 685 425 q 615 409 640 414 q 563 397 591 403 q 481 377 522 388 q 397 366 441 366 q 372 373 383 366 q 346 384 360 380 q 320 337 332 362 q 298 287 308 313 q 279 235 288 260 q 265 187 271 210 q 259 156 262 175 q 255 116 257 136 q 251 78 253 96 q 247 49 249 60 q 239 29 245 39 q 224 11 233 19 q 204 -2 215 3 q 182 -7 193 -7 q 152 4 163 -7 q 133 32 140 15 q 123 68 125 48 q 120 104 120 87 q 130 190 120 145 q 158 280 140 234 q 198 372 175 326 q 249 465 222 418 q 304 560 271 506 q 379 672 338 614 q 468 784 420 729 q 567 882 515 839 q 673 951 618 925 q 781 978 727 978 q 874 958 837 978 q 935 903 912 937 q 966 822 957 868 q 975 724 975 776 q 969 631 975 679 q 955 536 964 583 q 937 448 947 490 q 919 370 927 405 l 895 278 q 890 262 894 274 q 881 232 886 250 q 868 195 875 215 q 853 156 861 175 q 840 120 846 136 q 829 94 833 104 l 829 94 q 819 58 825 77 q 804 25 814 40 q 780 2 795 11 q 741 -7 765 -7 m 776 842 q 715 829 745 842 q 656 796 685 817 q 599 749 627 776 q 547 693 572 722 q 500 636 522 665 q 461 583 479 607 q 454 572 458 578 q 445 558 450 566 q 437 542 441 550 q 430 526 433 533 l 500 526 q 587 532 538 526 q 683 545 635 537 q 771 560 731 552 q 831 572 811 568 q 837 595 834 581 q 841 629 839 610 q 844 668 843 647 q 845 710 845 688 q 844 750 845 728 q 836 793 842 773 q 815 828 829 814 q 776 842 801 842 m 591 1124 q 594 1136 593 1132 q 596 1144 595 1141 q 601 1151 598 1147 q 609 1159 604 1154 l 615 1164 q 698 1231 659 1198 q 776 1297 737 1263 q 901 1402 836 1350 q 919 1409 912 1408 q 932 1411 926 1411 l 945 1411 q 982 1402 968 1411 q 1003 1381 996 1394 q 1013 1350 1010 1367 q 1016 1314 1016 1333 q 1016 1295 1016 1305 q 1015 1276 1015 1286 l 1015 1270 q 1014 1257 1014 1263 q 1013 1247 1013 1252 q 1013 1240 1013 1244 q 1014 1234 1013 1237 l 1015 1236 q 1017 1225 1015 1233 q 1020 1208 1018 1217 q 1023 1191 1021 1199 q 1024 1179 1024 1182 q 1024 1173 1024 1177 q 1025 1165 1025 1169 q 1027 1155 1026 1160 q 1018 1137 1025 1145 q 1003 1122 1012 1128 q 985 1113 995 1116 q 964 1109 975 1109 q 948 1112 954 1109 q 935 1121 942 1116 l 932 1122 l 926 1128 q 915 1159 919 1142 q 908 1195 910 1177 q 904 1233 905 1214 q 903 1270 903 1252 l 895 1265 l 881 1257 q 852 1236 871 1250 q 811 1206 833 1221 q 771 1176 790 1190 q 742 1154 751 1162 l 701 1118 q 688 1109 696 1114 q 671 1101 680 1105 q 655 1096 663 1098 q 642 1094 647 1094 q 626 1095 635 1094 q 609 1098 617 1096 q 595 1105 601 1101 q 590 1118 590 1110 q 591 1124 590 1122 z "},"Ã":{"ha":960,"x_min":120,"x_max":1085,"o":"m 741 -7 q 716 -2 727 -7 q 698 12 705 3 q 687 33 691 21 q 684 56 684 44 q 689 84 684 66 q 703 124 694 102 q 722 171 711 146 q 741 218 732 195 q 758 259 751 240 q 767 289 764 278 q 774 318 770 301 q 783 355 778 335 q 793 397 788 375 q 804 441 798 419 q 780 438 794 439 q 751 435 766 436 q 707 429 728 433 q 662 419 685 425 q 615 409 640 414 q 563 397 591 403 q 481 377 522 388 q 397 366 441 366 q 372 373 383 366 q 346 384 360 380 q 320 337 332 362 q 298 287 308 313 q 279 235 288 260 q 265 187 271 210 q 259 156 262 175 q 255 116 257 136 q 251 78 253 96 q 247 49 249 60 q 239 29 245 39 q 224 11 233 19 q 204 -2 215 3 q 182 -7 193 -7 q 152 4 163 -7 q 133 32 140 15 q 123 68 125 48 q 120 104 120 87 q 130 190 120 145 q 158 280 140 234 q 198 372 175 326 q 249 465 222 418 q 304 560 271 506 q 379 672 338 614 q 468 784 420 729 q 567 882 515 839 q 673 951 618 925 q 781 978 727 978 q 874 958 837 978 q 935 903 912 937 q 966 822 957 868 q 975 724 975 776 q 969 631 975 679 q 955 536 964 583 q 937 448 947 490 q 919 370 927 405 l 895 278 q 890 262 894 274 q 881 232 886 250 q 868 195 875 215 q 853 156 861 175 q 840 120 846 136 q 829 94 833 104 l 829 94 q 819 58 825 77 q 804 25 814 40 q 780 2 795 11 q 741 -7 765 -7 m 776 842 q 715 829 745 842 q 656 796 685 817 q 599 749 627 776 q 547 693 572 722 q 500 636 522 665 q 461 583 479 607 q 454 572 458 578 q 445 558 450 566 q 437 542 441 550 q 430 526 433 533 l 500 526 q 587 532 538 526 q 683 545 635 537 q 771 560 731 552 q 831 572 811 568 q 837 595 834 581 q 841 629 839 610 q 844 668 843 647 q 845 710 845 688 q 844 750 845 728 q 836 793 842 773 q 815 828 829 814 q 776 842 801 842 m 603 1170 q 605 1176 604 1172 q 608 1183 606 1179 q 656 1251 634 1221 q 701 1301 677 1280 q 750 1333 724 1322 q 810 1343 776 1343 q 863 1329 839 1343 q 902 1286 886 1315 q 920 1253 913 1267 q 935 1240 928 1240 q 944 1243 939 1240 q 955 1252 949 1247 q 964 1262 960 1257 q 970 1269 968 1267 q 983 1281 977 1274 q 996 1297 989 1289 q 1007 1313 1002 1305 q 1018 1325 1013 1320 q 1024 1333 1020 1327 q 1034 1345 1029 1339 q 1044 1356 1039 1352 q 1054 1361 1050 1361 q 1076 1350 1067 1361 q 1085 1321 1085 1338 q 1076 1289 1085 1308 q 1052 1247 1067 1269 q 1018 1204 1037 1225 q 980 1166 999 1183 q 942 1138 960 1149 q 910 1127 924 1127 q 882 1136 894 1127 q 861 1157 870 1144 q 844 1184 852 1169 q 828 1212 836 1199 q 810 1233 820 1224 q 789 1241 801 1241 q 751 1228 768 1241 q 711 1188 734 1215 q 692 1162 701 1176 q 673 1136 683 1148 q 651 1117 663 1124 q 625 1109 640 1109 q 607 1122 612 1109 q 601 1152 601 1136 q 603 1170 601 1162 z "},"Ä":{"ha":960,"x_min":120,"x_max":1040,"o":"m 741 -7 q 716 -2 727 -7 q 698 12 705 3 q 687 33 691 21 q 684 56 684 44 q 689 84 684 66 q 703 124 694 102 q 722 171 711 146 q 741 218 732 195 q 758 259 751 240 q 767 289 764 278 q 774 318 770 301 q 783 355 778 335 q 793 397 788 375 q 804 441 798 419 q 780 438 794 439 q 751 435 766 436 q 707 429 728 433 q 662 419 685 425 q 615 409 640 414 q 563 397 591 403 q 481 377 522 388 q 397 366 441 366 q 372 373 383 366 q 346 384 360 380 q 320 337 332 362 q 298 287 308 313 q 279 235 288 260 q 265 187 271 210 q 259 156 262 175 q 255 116 257 136 q 251 78 253 96 q 247 49 249 60 q 239 29 245 39 q 224 11 233 19 q 204 -2 215 3 q 182 -7 193 -7 q 152 4 163 -7 q 133 32 140 15 q 123 68 125 48 q 120 104 120 87 q 130 190 120 145 q 158 280 140 234 q 198 372 175 326 q 249 465 222 418 q 304 560 271 506 q 379 672 338 614 q 468 784 420 729 q 567 882 515 839 q 673 951 618 925 q 781 978 727 978 q 874 958 837 978 q 935 903 912 937 q 966 822 957 868 q 975 724 975 776 q 969 631 975 679 q 955 536 964 583 q 937 448 947 490 q 919 370 927 405 l 895 278 q 890 262 894 274 q 881 232 886 250 q 868 195 875 215 q 853 156 861 175 q 840 120 846 136 q 829 94 833 104 l 829 94 q 819 58 825 77 q 804 25 814 40 q 780 2 795 11 q 741 -7 765 -7 m 776 842 q 715 829 745 842 q 656 796 685 817 q 599 749 627 776 q 547 693 572 722 q 500 636 522 665 q 461 583 479 607 q 454 572 458 578 q 445 558 450 566 q 437 542 441 550 q 430 526 433 533 l 500 526 q 587 532 538 526 q 683 545 635 537 q 771 560 731 552 q 831 572 811 568 q 837 595 834 581 q 841 629 839 610 q 844 668 843 647 q 845 710 845 688 q 844 750 845 728 q 836 793 842 773 q 815 828 829 814 q 776 842 801 842 m 604 1190 q 616 1225 608 1205 q 644 1259 625 1244 q 674 1273 658 1267 q 696 1278 691 1278 q 718 1269 708 1278 q 736 1249 728 1259 q 755 1236 750 1246 q 760 1211 760 1225 q 758 1193 760 1202 q 755 1179 757 1184 q 740 1152 751 1164 q 714 1132 728 1140 q 684 1118 699 1123 q 659 1114 669 1114 l 642 1114 q 624 1123 633 1114 q 609 1141 615 1133 q 602 1156 603 1150 q 600 1166 600 1162 q 602 1179 600 1173 q 604 1190 603 1185 m 884 1190 q 896 1225 888 1205 q 924 1259 905 1244 q 955 1273 938 1267 q 977 1278 971 1278 q 998 1269 988 1278 q 1016 1249 1008 1259 q 1035 1236 1030 1246 q 1040 1211 1040 1225 q 1038 1193 1040 1202 q 1036 1179 1037 1184 q 1020 1152 1031 1164 q 994 1132 1008 1140 q 964 1118 979 1123 q 939 1114 949 1114 l 922 1114 q 904 1123 913 1114 q 889 1141 895 1133 q 882 1156 883 1150 q 880 1166 880 1162 q 882 1179 880 1173 q 884 1190 883 1185 z "},"Å":{"ha":960,"x_min":120,"x_max":985,"o":"m 741 -7 q 716 -2 727 -7 q 698 12 705 3 q 687 33 691 21 q 684 56 684 44 q 689 84 684 66 q 703 124 694 102 q 722 171 711 146 q 741 218 732 195 q 758 259 751 240 q 767 289 764 278 q 774 318 770 301 q 783 355 778 335 q 793 397 788 375 q 804 441 798 419 q 780 438 794 439 q 751 435 766 436 q 707 429 728 433 q 662 419 685 425 q 615 409 640 414 q 563 397 591 403 q 481 377 522 388 q 397 366 441 366 q 372 373 383 366 q 346 384 360 380 q 320 337 332 362 q 298 287 308 313 q 279 235 288 260 q 265 187 271 210 q 259 156 262 175 q 255 116 257 136 q 251 78 253 96 q 247 49 249 60 q 239 29 245 39 q 224 11 233 19 q 204 -2 215 3 q 182 -7 193 -7 q 152 4 163 -7 q 133 32 140 15 q 123 68 125 48 q 120 104 120 87 q 130 190 120 145 q 158 280 140 234 q 198 372 175 326 q 249 465 222 418 q 304 560 271 506 q 379 672 338 614 q 468 784 420 729 q 567 882 515 839 q 673 951 618 925 q 781 978 727 978 q 874 958 837 978 q 935 903 912 937 q 966 822 957 868 q 975 724 975 776 q 969 631 975 679 q 955 536 964 583 q 937 448 947 490 q 919 370 927 405 l 895 278 q 890 262 894 274 q 881 232 886 250 q 868 195 875 215 q 853 156 861 175 q 840 120 846 136 q 829 94 833 104 l 829 94 q 819 58 825 77 q 804 25 814 40 q 780 2 795 11 q 741 -7 765 -7 m 776 842 q 715 829 745 842 q 656 796 685 817 q 599 749 627 776 q 547 693 572 722 q 500 636 522 665 q 461 583 479 607 q 454 572 458 578 q 445 558 450 566 q 437 542 441 550 q 430 526 433 533 l 500 526 q 587 532 538 526 q 683 545 635 537 q 771 560 731 552 q 831 572 811 568 q 837 595 834 581 q 841 629 839 610 q 844 668 843 647 q 845 710 845 688 q 844 750 845 728 q 836 793 842 773 q 815 828 829 814 q 776 842 801 842 m 655 1038 q 671 1083 661 1059 q 700 1129 682 1106 q 743 1175 718 1153 q 805 1217 769 1198 l 804 1217 q 839 1232 819 1228 q 878 1236 859 1236 q 914 1232 899 1236 q 940 1220 929 1228 q 960 1200 951 1213 q 976 1170 968 1187 q 985 1127 985 1148 q 983 1104 985 1116 q 977 1080 981 1093 q 961 1036 972 1058 q 934 993 949 1014 q 899 954 918 972 q 857 922 879 936 q 815 903 839 910 q 760 895 791 895 q 677 923 704 895 q 650 995 650 950 q 655 1038 650 1014 m 743 1040 q 741 1029 742 1035 q 741 1018 741 1023 q 750 989 741 1000 q 781 979 759 979 q 818 989 801 979 q 848 1014 836 999 q 870 1046 861 1029 q 882 1078 878 1063 q 888 1112 888 1099 q 887 1114 888 1113 q 887 1116 887 1115 l 887 1116 q 877 1135 884 1128 q 845 1141 869 1141 q 819 1133 833 1141 q 790 1111 804 1125 q 763 1079 776 1097 q 743 1040 751 1061 z "},"Æ":{"ha":1375,"x_min":120,"x_max":1573,"o":"m 684 59 q 690 100 685 79 q 741 272 712 188 q 795 439 770 356 q 774 437 786 438 q 751 435 763 436 q 707 429 728 433 q 662 419 685 425 q 615 409 640 414 q 563 397 591 403 q 481 377 522 388 q 397 366 441 366 q 372 373 383 366 q 346 384 360 380 q 320 337 332 362 q 298 287 308 313 q 279 235 288 260 q 265 187 271 210 q 259 156 262 175 q 255 116 257 136 q 251 78 253 96 q 247 49 249 60 q 239 29 245 39 q 224 11 233 19 q 204 -2 215 3 q 182 -7 193 -7 q 152 4 163 -7 q 133 32 140 15 q 123 68 125 48 q 120 104 120 87 q 130 190 120 145 q 157 280 140 234 q 197 372 174 326 q 246 466 220 419 q 303 561 269 507 q 378 672 336 615 q 467 784 419 729 q 567 882 515 839 q 673 951 618 925 q 781 978 727 978 q 841 970 814 978 q 888 948 867 963 q 925 912 909 934 q 955 862 941 890 q 978 874 966 869 q 1003 885 989 880 q 1035 894 1017 890 q 1075 902 1053 898 q 1101 906 1085 903 q 1134 912 1118 909 q 1165 919 1151 916 q 1187 925 1179 922 q 1270 946 1232 937 q 1342 961 1308 955 q 1407 969 1376 966 q 1470 972 1438 972 q 1521 968 1501 972 q 1552 959 1541 965 q 1568 946 1564 954 q 1573 929 1573 938 q 1568 912 1573 921 q 1554 895 1564 903 q 1527 880 1544 886 q 1487 872 1511 874 q 1458 867 1480 871 q 1411 859 1436 863 q 1362 850 1385 854 q 1330 844 1339 846 l 1331 844 q 1311 839 1326 844 q 1274 829 1296 835 q 1227 815 1253 823 q 1177 801 1202 808 q 1132 787 1153 794 q 1098 776 1110 781 q 1033 734 1056 760 q 996 674 1009 707 q 987 653 993 668 q 976 620 982 639 q 962 581 969 602 q 947 541 954 559 q 936 506 941 522 q 928 483 930 490 q 926 471 926 476 q 925 463 925 465 q 927 458 925 458 q 969 468 937 458 q 1045 490 1002 477 q 1137 519 1088 504 q 1231 549 1186 535 q 1312 571 1276 562 q 1362 581 1347 581 q 1394 573 1386 581 q 1402 555 1402 565 q 1385 513 1402 531 q 1342 481 1368 494 q 1312 469 1334 477 q 1264 453 1290 461 q 1216 437 1239 445 q 1183 426 1193 430 q 1079 385 1120 401 q 1013 359 1038 369 q 972 343 987 349 q 946 333 958 337 q 923 327 935 330 q 891 319 911 323 q 884 317 888 317 q 876 315 880 317 q 862 272 870 301 q 846 213 854 243 q 834 155 839 182 q 829 119 829 129 q 836 95 829 100 q 850 91 843 91 l 857 91 q 936 100 890 91 q 1026 125 981 110 q 1101 158 1069 140 q 1161 191 1133 176 q 1216 217 1189 206 q 1274 228 1242 227 q 1289 227 1280 228 q 1306 222 1298 225 q 1319 213 1314 219 q 1324 199 1324 208 l 1324 196 q 1305 157 1322 176 q 1262 121 1288 138 q 1204 87 1236 103 q 1139 56 1173 71 q 1074 30 1106 41 q 1017 9 1042 18 q 896 -23 955 -13 q 790 -33 837 -33 q 711 -14 739 -33 q 684 50 684 5 l 684 59 m 776 842 q 715 829 745 842 q 656 796 685 817 q 599 749 627 776 q 547 693 572 722 q 500 636 522 665 q 461 583 479 607 q 454 572 458 578 q 445 558 450 566 q 437 542 441 550 q 430 526 433 533 l 500 526 q 587 532 538 526 q 683 545 635 537 q 771 560 731 552 q 831 572 811 568 q 837 595 834 581 q 841 629 839 610 q 844 668 843 647 q 845 710 845 688 q 844 750 845 728 q 836 793 842 773 q 815 828 829 814 q 776 842 801 842 z "},"Ç":{"ha":827,"x_min":160,"x_max":879,"o":"m 160 289 q 170 378 160 328 q 203 475 179 428 q 275 601 235 540 q 357 712 315 661 q 441 803 399 764 q 522 865 484 843 l 521 865 q 571 896 545 880 q 625 926 597 912 q 682 948 653 939 q 738 957 710 957 q 792 945 766 957 q 837 914 818 934 q 868 867 857 894 q 879 811 879 841 q 877 778 879 790 q 869 760 874 766 q 856 753 864 754 q 838 751 848 751 q 815 758 823 751 q 801 773 806 764 q 793 794 796 783 q 787 814 791 805 q 778 830 783 823 q 762 836 772 836 q 703 824 734 836 q 638 791 671 812 q 573 745 606 771 q 510 692 540 719 q 455 638 480 665 q 411 591 429 612 q 361 520 384 556 q 323 448 339 485 q 298 372 307 411 q 289 291 289 333 q 298 234 289 258 q 318 192 307 210 q 350 164 331 172 q 395 156 369 156 q 502 167 453 156 q 595 196 551 178 q 683 239 640 214 q 771 293 726 264 l 789 293 q 807 288 798 293 q 823 276 816 283 q 834 259 830 269 q 839 239 839 250 q 821 195 839 217 q 776 153 804 173 q 714 115 749 133 q 646 84 680 98 q 583 61 612 71 q 536 48 554 52 q 508 42 522 45 q 475 36 494 39 q 429 31 456 33 q 363 29 403 29 q 318 37 338 29 q 282 55 298 45 q 255 77 266 66 q 237 97 243 89 q 178 189 197 144 q 160 289 160 235 m 240 -224 q 250 -190 240 -206 q 281 -174 259 -174 q 295 -176 289 -174 q 310 -179 302 -179 q 330 -175 317 -179 q 354 -165 342 -172 q 374 -151 366 -159 q 382 -134 382 -142 q 336 -99 382 -113 q 302 -83 313 -95 q 291 -58 291 -72 q 304 -26 291 -41 q 333 20 319 -3 q 361 67 347 43 q 386 89 371 83 q 411 96 400 96 q 440 83 430 96 q 451 56 451 70 q 447 41 451 47 q 428 11 437 26 q 412 -19 419 -4 q 439 -36 426 -26 q 461 -56 452 -45 q 477 -81 471 -67 q 482 -111 482 -94 q 464 -174 482 -145 q 417 -224 445 -203 q 358 -257 390 -245 q 300 -269 327 -269 q 278 -266 289 -269 q 259 -259 267 -264 q 245 -245 250 -254 q 240 -224 240 -237 z "},"È":{"ha":837,"x_min":145,"x_max":1034,"o":"m 145 50 q 152 100 145 74 q 206 281 175 193 q 262 457 237 370 q 303 605 287 545 q 333 708 320 665 q 357 782 346 751 q 380 844 368 813 q 398 882 389 862 q 420 918 408 901 q 444 945 431 935 q 470 956 456 956 q 512 946 498 956 q 530 930 527 937 l 536 902 q 563 906 547 903 q 596 912 579 909 q 627 919 612 916 q 648 925 641 922 q 731 946 693 937 q 803 961 769 955 q 869 969 838 966 q 932 972 900 972 q 983 968 963 972 q 1014 959 1002 965 q 1030 946 1025 954 q 1034 929 1034 938 q 1030 912 1034 921 q 1015 895 1025 903 q 989 880 1005 886 q 948 872 972 874 q 920 867 942 871 q 872 859 898 863 q 823 850 846 854 q 791 844 800 846 l 792 844 q 773 839 788 844 q 736 829 758 835 q 689 816 714 823 q 638 801 663 808 q 593 788 614 794 q 559 777 572 781 q 494 734 517 761 q 457 674 471 707 q 449 653 454 668 q 437 620 444 639 q 423 581 431 602 q 409 541 416 559 q 397 506 402 522 q 390 483 392 490 q 387 471 388 476 q 387 463 387 465 q 389 458 387 458 q 431 468 399 458 q 506 490 463 477 q 598 519 549 504 q 693 549 648 535 q 773 571 738 562 q 824 581 808 581 q 856 573 848 581 q 864 555 864 565 q 847 513 864 531 q 804 481 829 494 q 773 469 795 477 q 726 453 751 461 q 677 437 701 445 q 644 427 654 430 q 536 384 578 401 q 469 357 494 368 q 429 341 443 347 q 403 332 415 336 q 377 325 391 328 q 338 315 363 321 q 323 272 332 301 q 308 213 315 243 q 295 155 300 182 q 290 119 290 129 q 294 101 290 106 q 302 93 297 95 q 311 91 307 91 q 319 91 316 91 q 397 100 351 91 q 488 125 443 110 q 562 158 530 140 q 622 191 594 176 q 677 217 650 206 q 736 228 704 227 q 752 227 743 228 q 769 221 761 225 q 782 212 777 218 q 786 196 787 205 q 766 157 783 176 q 724 121 749 138 q 666 87 698 103 q 601 56 634 71 q 536 30 568 41 q 479 9 504 18 q 357 -23 416 -13 q 252 -33 298 -33 q 173 -14 200 -33 q 145 50 145 5 m 529 1282 q 550 1315 534 1302 q 582 1328 565 1328 q 605 1324 598 1328 q 618 1316 612 1321 q 671 1271 637 1299 q 743 1211 704 1243 l 770 1189 q 788 1168 779 1181 q 797 1138 797 1156 q 794 1120 797 1129 q 786 1104 791 1111 q 771 1092 780 1097 q 750 1087 762 1087 q 728 1090 737 1087 q 709 1100 718 1094 l 559 1200 q 534 1224 543 1211 q 525 1255 525 1236 q 529 1282 525 1267 z "},"É":{"ha":837,"x_min":145,"x_max":1034,"o":"m 145 50 q 152 100 145 74 q 206 281 175 193 q 262 457 237 370 q 303 605 287 545 q 333 708 320 665 q 357 782 346 751 q 380 844 368 813 q 398 882 389 862 q 420 918 408 901 q 444 945 431 935 q 470 956 456 956 q 512 946 498 956 q 530 930 527 937 l 536 902 q 563 906 547 903 q 596 912 579 909 q 627 919 612 916 q 648 925 641 922 q 731 946 693 937 q 803 961 769 955 q 869 969 838 966 q 932 972 900 972 q 983 968 963 972 q 1014 959 1002 965 q 1030 946 1025 954 q 1034 929 1034 938 q 1030 912 1034 921 q 1015 895 1025 903 q 989 880 1005 886 q 948 872 972 874 q 920 867 942 871 q 872 859 898 863 q 823 850 846 854 q 791 844 800 846 l 792 844 q 773 839 788 844 q 736 829 758 835 q 689 816 714 823 q 638 801 663 808 q 593 788 614 794 q 559 777 572 781 q 494 734 517 761 q 457 674 471 707 q 449 653 454 668 q 437 620 444 639 q 423 581 431 602 q 409 541 416 559 q 397 506 402 522 q 390 483 392 490 q 387 471 388 476 q 387 463 387 465 q 389 458 387 458 q 431 468 399 458 q 506 490 463 477 q 598 519 549 504 q 693 549 648 535 q 773 571 738 562 q 824 581 808 581 q 856 573 848 581 q 864 555 864 565 q 847 513 864 531 q 804 481 829 494 q 773 469 795 477 q 726 453 751 461 q 677 437 701 445 q 644 427 654 430 q 536 384 578 401 q 469 357 494 368 q 429 341 443 347 q 403 332 415 336 q 377 325 391 328 q 338 315 363 321 q 323 272 332 301 q 308 213 315 243 q 295 155 300 182 q 290 119 290 129 q 294 101 290 106 q 302 93 297 95 q 311 91 307 91 q 319 91 316 91 q 397 100 351 91 q 488 125 443 110 q 562 158 530 140 q 622 191 594 176 q 677 217 650 206 q 736 228 704 227 q 752 227 743 228 q 769 221 761 225 q 782 212 777 218 q 786 196 787 205 q 766 157 783 176 q 724 121 749 138 q 666 87 698 103 q 601 56 634 71 q 536 30 568 41 q 479 9 504 18 q 357 -23 416 -13 q 252 -33 298 -33 q 173 -14 200 -33 q 145 50 145 5 m 979 1279 q 954 1231 972 1249 q 909 1199 936 1213 l 696 1093 q 664 1086 684 1086 q 642 1094 648 1086 q 635 1112 635 1101 q 641 1138 635 1126 q 655 1159 646 1149 q 674 1176 664 1168 q 692 1188 684 1183 l 744 1219 q 808 1257 777 1238 q 866 1292 839 1276 q 915 1317 893 1307 q 949 1326 937 1326 q 971 1317 962 1326 q 981 1292 981 1308 q 981 1285 981 1289 q 979 1279 981 1282 z "},"Ê":{"ha":837,"x_min":145,"x_max":1034,"o":"m 145 50 q 152 100 145 74 q 206 281 175 193 q 262 457 237 370 q 303 605 287 545 q 333 708 320 665 q 357 782 346 751 q 380 844 368 813 q 398 882 389 862 q 420 918 408 901 q 444 945 431 935 q 470 956 456 956 q 512 946 498 956 q 530 930 527 937 l 536 902 q 563 906 547 903 q 596 912 579 909 q 627 919 612 916 q 648 925 641 922 q 731 946 693 937 q 803 961 769 955 q 869 969 838 966 q 932 972 900 972 q 983 968 963 972 q 1014 959 1002 965 q 1030 946 1025 954 q 1034 929 1034 938 q 1030 912 1034 921 q 1015 895 1025 903 q 989 880 1005 886 q 948 872 972 874 q 920 867 942 871 q 872 859 898 863 q 823 850 846 854 q 791 844 800 846 l 792 844 q 773 839 788 844 q 736 829 758 835 q 689 816 714 823 q 638 801 663 808 q 593 788 614 794 q 559 777 572 781 q 494 734 517 761 q 457 674 471 707 q 449 653 454 668 q 437 620 444 639 q 423 581 431 602 q 409 541 416 559 q 397 506 402 522 q 390 483 392 490 q 387 471 388 476 q 387 463 387 465 q 389 458 387 458 q 431 468 399 458 q 506 490 463 477 q 598 519 549 504 q 693 549 648 535 q 773 571 738 562 q 824 581 808 581 q 856 573 848 581 q 864 555 864 565 q 847 513 864 531 q 804 481 829 494 q 773 469 795 477 q 726 453 751 461 q 677 437 701 445 q 644 427 654 430 q 536 384 578 401 q 469 357 494 368 q 429 341 443 347 q 403 332 415 336 q 377 325 391 328 q 338 315 363 321 q 323 272 332 301 q 308 213 315 243 q 295 155 300 182 q 290 119 290 129 q 294 101 290 106 q 302 93 297 95 q 311 91 307 91 q 319 91 316 91 q 397 100 351 91 q 488 125 443 110 q 562 158 530 140 q 622 191 594 176 q 677 217 650 206 q 736 228 704 227 q 752 227 743 228 q 769 221 761 225 q 782 212 777 218 q 786 196 787 205 q 766 157 783 176 q 724 121 749 138 q 666 87 698 103 q 601 56 634 71 q 536 30 568 41 q 479 9 504 18 q 357 -23 416 -13 q 252 -33 298 -33 q 173 -14 200 -33 q 145 50 145 5 m 532 1124 q 535 1136 534 1132 q 538 1144 536 1141 q 543 1151 540 1147 q 551 1159 545 1154 l 557 1164 q 640 1231 600 1198 q 718 1297 679 1263 q 843 1402 777 1350 q 861 1409 854 1408 q 874 1411 867 1411 l 886 1411 q 923 1402 909 1411 q 945 1381 937 1394 q 955 1350 952 1367 q 958 1314 958 1333 q 957 1295 958 1305 q 956 1276 957 1286 l 956 1270 q 955 1257 956 1263 q 955 1247 955 1252 q 955 1240 955 1244 q 956 1234 955 1237 l 956 1236 q 958 1225 957 1233 q 961 1208 960 1217 q 964 1191 963 1199 q 966 1179 966 1182 q 966 1173 966 1177 q 967 1165 966 1169 q 968 1155 968 1160 q 960 1137 966 1145 q 945 1122 954 1128 q 926 1113 937 1116 q 906 1109 916 1109 q 889 1112 895 1109 q 876 1121 884 1116 l 874 1122 l 868 1128 q 856 1159 861 1142 q 849 1195 852 1177 q 846 1233 847 1214 q 845 1270 845 1252 l 836 1265 l 823 1257 q 794 1236 813 1250 q 753 1206 774 1221 q 712 1176 732 1190 q 684 1154 693 1162 l 642 1118 q 630 1109 637 1114 q 613 1101 622 1105 q 596 1096 604 1098 q 584 1094 589 1094 q 568 1095 576 1094 q 551 1098 559 1096 q 537 1105 543 1101 q 532 1118 532 1110 q 532 1124 532 1122 z "},"Ë":{"ha":837,"x_min":145,"x_max":1034,"o":"m 145 50 q 152 100 145 74 q 206 281 175 193 q 262 457 237 370 q 303 605 287 545 q 333 708 320 665 q 357 782 346 751 q 380 844 368 813 q 398 882 389 862 q 420 918 408 901 q 444 945 431 935 q 470 956 456 956 q 512 946 498 956 q 530 930 527 937 l 536 902 q 563 906 547 903 q 596 912 579 909 q 627 919 612 916 q 648 925 641 922 q 731 946 693 937 q 803 961 769 955 q 869 969 838 966 q 932 972 900 972 q 983 968 963 972 q 1014 959 1002 965 q 1030 946 1025 954 q 1034 929 1034 938 q 1030 912 1034 921 q 1015 895 1025 903 q 989 880 1005 886 q 948 872 972 874 q 920 867 942 871 q 872 859 898 863 q 823 850 846 854 q 791 844 800 846 l 792 844 q 773 839 788 844 q 736 829 758 835 q 689 816 714 823 q 638 801 663 808 q 593 788 614 794 q 559 777 572 781 q 494 734 517 761 q 457 674 471 707 q 449 653 454 668 q 437 620 444 639 q 423 581 431 602 q 409 541 416 559 q 397 506 402 522 q 390 483 392 490 q 387 471 388 476 q 387 463 387 465 q 389 458 387 458 q 431 468 399 458 q 506 490 463 477 q 598 519 549 504 q 693 549 648 535 q 773 571 738 562 q 824 581 808 581 q 856 573 848 581 q 864 555 864 565 q 847 513 864 531 q 804 481 829 494 q 773 469 795 477 q 726 453 751 461 q 677 437 701 445 q 644 427 654 430 q 536 384 578 401 q 469 357 494 368 q 429 341 443 347 q 403 332 415 336 q 377 325 391 328 q 338 315 363 321 q 323 272 332 301 q 308 213 315 243 q 295 155 300 182 q 290 119 290 129 q 294 101 290 106 q 302 93 297 95 q 311 91 307 91 q 319 91 316 91 q 397 100 351 91 q 488 125 443 110 q 562 158 530 140 q 622 191 594 176 q 677 217 650 206 q 736 228 704 227 q 752 227 743 228 q 769 221 761 225 q 782 212 777 218 q 786 196 787 205 q 766 157 783 176 q 724 121 749 138 q 666 87 698 103 q 601 56 634 71 q 536 30 568 41 q 479 9 504 18 q 357 -23 416 -13 q 252 -33 298 -33 q 173 -14 200 -33 q 145 50 145 5 m 528 1190 q 539 1225 531 1205 q 568 1259 548 1244 q 598 1273 581 1267 q 620 1278 614 1278 q 642 1269 631 1278 q 659 1249 652 1259 q 678 1236 673 1246 q 683 1211 683 1225 q 682 1193 683 1202 q 679 1179 680 1184 q 663 1152 675 1164 q 637 1132 652 1140 q 607 1118 623 1123 q 582 1114 592 1114 l 566 1114 q 548 1123 557 1114 q 532 1141 538 1133 q 525 1156 526 1150 q 524 1166 524 1162 q 525 1179 524 1173 q 528 1190 526 1185 m 808 1190 q 820 1225 811 1205 q 848 1259 828 1244 q 878 1273 861 1267 q 900 1278 895 1278 q 922 1269 911 1278 q 939 1249 932 1259 q 958 1236 954 1246 q 963 1211 963 1225 q 962 1193 963 1202 q 959 1179 960 1184 q 943 1152 955 1164 q 917 1132 932 1140 q 887 1118 903 1123 q 862 1114 872 1114 l 846 1114 q 828 1123 837 1114 q 812 1141 819 1133 q 805 1156 806 1150 q 804 1166 804 1162 q 805 1179 804 1173 q 808 1190 806 1185 z "}}}
